<?xml version="1.0" encoding="UTF-8" standalone="no"?>
<svg
   width="570"
   height="570"
   viewBox="0 0 570 570"
   fill="none"
   version="1.1"
   id="svg262"
   sodipodi:docname="Avalanche-Icon.svg"
   inkscape:version="1.2.1 (9c6d41e4, 2022-07-14)"
   xmlns:inkscape="http://www.inkscape.org/namespaces/inkscape"
   xmlns:sodipodi="http://sodipodi.sourceforge.net/DTD/sodipodi-0.dtd"
   xmlns="http://www.w3.org/2000/svg"
   xmlns:svg="http://www.w3.org/2000/svg">
  <defs
     id="defs266" />
  <sodipodi:namedview
     id="namedview264"
     pagecolor="#ffffff"
     bordercolor="#000000"
     borderopacity="0.25"
     inkscape:showpageshadow="2"
     inkscape:pageopacity="0.0"
     inkscape:pagecheckerboard="0"
     inkscape:deskcolor="#d1d1d1"
     showgrid="false"
     inkscape:zoom="0.41403509"
     inkscape:cx="285"
     inkscape:cy="285"
     inkscape:window-width="1309"
     inkscape:window-height="456"
     inkscape:window-x="224"
     inkscape:window-y="25"
     inkscape:window-maximized="0"
     inkscape:current-layer="svg262" />
  <path
     d="M389.712 0.800781H180.575C81.1639 0.800781 0.575195 81.3896 0.575195 180.801V389.938C0.575195 489.349 81.164 569.938 180.575 569.938H389.712C489.123 569.938 569.712 489.349 569.712 389.938V180.801C569.712 81.3895 489.123 0.800781 389.712 0.800781Z"
     fill="#D75049"
     id="path256" />
  <path
     d="M138.717 427.344H202.784C214.155 427.344 219.839 427.344 224.96 425.822C230.534 424.164 235.633 421.205 239.838 417.192C243.701 413.505 246.52 408.573 252.159 398.707L336.039 251.969C341.597 242.246 344.377 237.383 345.596 232.256C346.923 226.674 346.92 220.86 345.588 215.279C344.364 210.153 341.58 205.292 336.015 195.576L303.663 139.092L303.66 139.087C296.008 125.726 292.182 119.045 287.322 116.563C282.071 113.881 275.848 113.886 270.601 116.575C265.744 119.065 261.926 125.752 254.292 139.128L114.018 384.872C106.495 398.051 102.733 404.642 103.038 410.048C103.366 415.889 106.468 421.223 111.383 424.402C115.932 427.344 123.527 427.344 138.717 427.344Z"
     fill="white"
     id="path258" />
  <path
     d="M357.077 427.344H431.355C446.706 427.344 454.382 427.344 458.945 424.373C463.877 421.162 466.968 415.782 467.254 409.908C467.518 404.472 463.647 397.85 455.903 384.608L418.7 320.992L418.693 320.979C411.064 307.934 407.248 301.409 402.423 298.971C397.208 296.334 391.046 296.338 385.835 298.983C381.013 301.431 377.204 307.964 369.587 321.03L332.51 384.643C324.795 397.877 320.938 404.495 321.208 409.927C321.5 415.796 324.592 421.17 329.522 424.376C334.085 427.344 341.749 427.344 357.077 427.344Z"
     fill="white"
     id="path260" />
</svg>
