<?xml version="1.0" encoding="UTF-8" standalone="no"?>
<svg
   width="2372"
   height="569"
   viewBox="0 0 2372 569"
   fill="none"
   version="1.1"
   id="svg309"
   sodipodi:docname="AvalancheUSDT-Dropdown.svg"
   inkscape:version="1.2.1 (9c6d41e4, 2022-07-14)"
   xmlns:inkscape="http://www.inkscape.org/namespaces/inkscape"
   xmlns:sodipodi="http://sodipodi.sourceforge.net/DTD/sodipodi-0.dtd"
   xmlns="http://www.w3.org/2000/svg"
   xmlns:svg="http://www.w3.org/2000/svg">
  <sodipodi:namedview
     id="namedview311"
     pagecolor="#ffffff"
     bordercolor="#000000"
     borderopacity="0.25"
     inkscape:showpageshadow="2"
     inkscape:pageopacity="0.0"
     inkscape:pagecheckerboard="0"
     inkscape:deskcolor="#d1d1d1"
     showgrid="false"
     inkscape:zoom="0.41476274"
     inkscape:cx="1186.2203"
     inkscape:cy="284.5"
     inkscape:window-width="1309"
     inkscape:window-height="456"
     inkscape:window-x="224"
     inkscape:window-y="25"
     inkscape:window-maximized="0"
     inkscape:current-layer="svg309" />
  <path
     d="M462.792 505.469C413.975 545.07 351.759 568.799 284.001 568.799C127.152 568.799 0.00195312 441.648 0.00195312 284.8C0.00195312 127.951 127.152 0.800781 284.001 0.800781C349.731 0.800781 410.247 23.1309 458.374 60.6191H458.959C506.419 96.2578 565.407 117.375 629.328 117.375C693.249 117.375 752.237 96.2578 799.697 60.6191H802.012C850.139 23.1309 910.654 0.800781 976.385 0.800781H2087.54C2244.39 0.800781 2371.54 127.951 2371.54 284.8C2371.54 441.648 2244.39 568.799 2087.54 568.799H976.385C909.602 568.799 848.202 545.748 799.709 507.168H798.184C750.985 472.213 692.571 451.541 629.328 451.541C567.117 451.541 509.578 471.544 462.792 505.469Z"
     fill="url(#paint0_linear_897_254)"
     id="path290" />
  <path
     fill-rule="evenodd"
     clip-rule="evenodd"
     d="M1118.08 310.564C1116.13 310.71 1106.08 311.31 1083.67 311.31C1065.84 311.31 1053.19 310.775 1048.75 310.564C979.859 307.534 928.439 295.542 928.439 281.184C928.439 266.826 979.859 254.85 1048.75 251.771V298.621C1053.25 298.945 1066.15 299.707 1083.98 299.707C1105.37 299.707 1116.08 298.816 1118.01 298.637V251.803C1186.75 254.866 1238.06 266.858 1238.06 281.184C1238.06 295.51 1186.77 307.502 1118.01 310.548L1118.08 310.564ZM1118.08 246.958V205.034H1214.01V141.104H952.812V205.034H1048.73V246.942C970.767 250.523 912.136 265.967 912.136 284.474C912.136 302.98 970.767 318.408 1048.73 322.006V456.349H1118.06V321.957C1195.85 318.375 1254.38 302.948 1254.38 284.457C1254.38 265.967 1195.89 250.539 1118.06 246.942L1118.08 246.958Z"
     fill="white"
     id="path292" />
  <path
     d="M1442.85 409.161C1427.07 409.161 1414.97 406.023 1406.54 399.746C1398.11 393.47 1392.37 384.682 1389.32 373.384C1386.27 361.907 1384.75 348.547 1384.75 333.303V188.85H1413.8V334.648C1413.8 343.974 1414.43 352.492 1415.69 360.203C1416.94 367.915 1419.63 374.012 1423.76 378.495C1428.06 382.979 1434.43 385.22 1442.85 385.22C1451.46 385.22 1457.83 382.979 1461.95 378.495C1466.08 374.012 1468.77 367.915 1470.02 360.203C1471.28 352.492 1471.91 343.974 1471.91 334.648V188.85H1500.69V333.303C1500.69 348.547 1499.17 361.907 1496.12 373.384C1493.07 384.682 1487.33 393.47 1478.9 399.746C1470.65 406.023 1458.64 409.161 1442.85 409.161ZM1584.07 409.161C1571.52 409.161 1561.03 406.471 1552.6 401.091C1544.35 395.711 1538.07 388.269 1533.77 378.764C1529.46 369.26 1526.95 358.231 1526.24 345.677L1553.14 338.414C1553.67 346.126 1554.84 353.568 1556.63 360.741C1558.61 367.915 1561.74 373.833 1566.05 378.495C1570.35 382.979 1576.36 385.22 1584.07 385.22C1591.96 385.22 1597.88 383.068 1601.83 378.764C1605.95 374.281 1608.01 367.915 1608.01 359.665C1608.01 349.802 1605.77 341.911 1601.29 335.993C1596.8 329.896 1591.15 323.799 1584.34 317.701L1547.76 285.421C1540.58 279.145 1535.29 272.33 1531.89 264.977C1528.48 257.445 1526.77 248.21 1526.77 237.27C1526.77 221.31 1531.35 208.936 1540.49 200.148C1549.64 191.361 1562.1 186.967 1577.88 186.967C1586.49 186.967 1594.02 188.133 1600.48 190.464C1607.12 192.616 1612.59 196.024 1616.89 200.686C1621.37 205.349 1624.87 211.267 1627.38 218.44C1630.07 225.434 1631.86 233.684 1632.76 243.188L1606.94 250.182C1606.4 243.009 1605.32 236.463 1603.71 230.545C1602.09 224.448 1599.22 219.606 1595.1 216.019C1591.15 212.253 1585.42 210.37 1577.88 210.37C1570.35 210.37 1564.43 212.433 1560.13 216.557C1556.01 220.503 1553.94 226.421 1553.94 234.311C1553.94 240.947 1555.02 246.416 1557.17 250.72C1559.5 255.024 1563.18 259.418 1568.2 263.901L1605.05 296.181C1613.3 303.355 1620.57 311.963 1626.84 322.005C1633.12 331.869 1636.26 343.615 1636.26 357.244C1636.26 368.004 1634.02 377.33 1629.53 385.22C1625.05 392.932 1618.86 398.85 1610.97 402.974C1603.26 407.099 1594.29 409.161 1584.07 409.161ZM1659.84 406.74V188.85H1707.18C1723.32 188.85 1736.05 191.361 1745.38 196.382C1754.88 201.224 1761.61 208.577 1765.55 218.44C1769.68 228.304 1771.74 240.588 1771.74 255.293V335.455C1771.74 350.878 1769.68 363.88 1765.55 374.46C1761.61 385.041 1755.06 393.111 1745.92 398.67C1736.95 404.05 1724.84 406.74 1709.6 406.74H1659.84ZM1690.23 384.951H1707.45C1718.57 384.951 1726.46 382.799 1731.12 378.495C1735.78 374.191 1738.56 367.915 1739.46 359.665C1740.54 351.416 1741.07 341.463 1741.07 329.806V259.059C1741.07 247.761 1740.36 238.615 1738.92 231.621C1737.49 224.627 1734.35 219.516 1729.51 216.288C1724.67 213.06 1717.04 211.446 1706.64 211.446H1690.23V384.951ZM1825.63 406.74V211.446H1788.78V188.85H1891.81V211.446H1856.03V406.74H1825.63Z"
     fill="white"
     id="path294" />
  <path
     fill-rule="evenodd"
     clip-rule="evenodd"
     d="M2215.77 308.167C2219.23 304.575 2221.16 299.779 2221.16 294.788C2221.16 289.796 2219.23 285 2215.77 281.408L2073.71 135.497C2072.86 134.622 2071.85 133.927 2070.73 133.452C2069.61 132.977 2068.4 132.732 2067.19 132.732C2065.97 132.732 2064.77 132.977 2063.65 133.452C2062.53 133.927 2061.51 134.622 2060.66 135.497L2047.62 148.905C2045.89 150.701 2044.93 153.099 2044.93 155.594C2044.93 158.09 2045.89 160.488 2047.62 162.284L2170.21 288.208C2171.94 290.009 2172.91 292.412 2172.91 294.912C2172.91 297.412 2171.94 299.815 2170.21 301.615L2047.7 427.346C2045.97 429.142 2045.01 431.541 2045.01 434.036C2045.01 436.532 2045.97 438.93 2047.7 440.726L2060.75 454.106C2061.59 454.981 2062.61 455.676 2063.73 456.151C2064.85 456.626 2066.05 456.871 2067.27 456.871C2068.49 456.871 2069.69 456.626 2070.81 456.151C2071.93 455.676 2072.94 454.981 2073.79 454.106L2215.77 308.167Z"
     fill="white"
     id="path296" />
  <path
     d="M155.115 406.49H211.188C221.14 406.49 226.115 406.49 230.597 405.158C235.475 403.707 239.938 401.118 243.618 397.605C246.999 394.379 249.467 390.061 254.402 381.427L327.815 252.999C332.68 244.489 335.112 240.233 336.179 235.745C337.341 230.861 337.338 225.772 336.172 220.888C335.101 216.401 332.665 212.147 327.794 203.642L299.479 154.207L299.476 154.202C292.78 142.509 289.431 136.661 285.177 134.489C280.581 132.142 275.135 132.146 270.543 134.5C266.291 136.679 262.95 142.532 256.269 154.238L133.498 369.318C126.914 380.853 123.621 386.621 123.888 391.352C124.175 396.465 126.89 401.133 131.192 403.915C135.174 406.49 141.821 406.49 155.115 406.49Z"
     fill="white"
     id="path298" />
  <path
     d="M346.228 406.49H411.237C424.673 406.49 431.391 406.49 435.384 403.89C439.701 401.079 442.406 396.371 442.657 391.23C442.888 386.472 439.5 380.676 432.722 369.087L400.162 313.41L400.155 313.398C393.478 301.981 390.138 296.27 385.916 294.136C381.351 291.828 375.958 291.832 371.397 294.147C367.178 296.289 363.844 302.007 357.177 313.443L324.726 369.118C317.974 380.7 314.598 386.493 314.835 391.247C315.09 396.383 317.796 401.087 322.111 403.893C326.105 406.49 332.813 406.49 346.228 406.49Z"
     fill="white"
     id="path300" />
  <defs
     id="defs307">
    <linearGradient
       id="paint0_linear_897_254"
       x1="0.00195312"
       y1="284.8"
       x2="2371.54"
       y2="284.8"
       gradientUnits="userSpaceOnUse">
      <stop
         offset="0.16"
         stop-color="#D75049"
         id="stop302" />
      <stop
         offset="0.38"
         stop-color="#50A389"
         id="stop304" />
    </linearGradient>
  </defs>
</svg>
