<?xml version="1.0" encoding="UTF-8" standalone="no"?>
<svg
   width="2372"
   height="569"
   viewBox="0 0 2372 569"
   fill="none"
   version="1.1"
   id="svg665"
   sodipodi:docname="Base-USDT-Dropdown.svg"
   inkscape:version="1.2.1 (9c6d41e4, 2022-07-14)"
   xmlns:inkscape="http://www.inkscape.org/namespaces/inkscape"
   xmlns:sodipodi="http://sodipodi.sourceforge.net/DTD/sodipodi-0.dtd"
   xmlns="http://www.w3.org/2000/svg"
   xmlns:svg="http://www.w3.org/2000/svg">
  <sodipodi:namedview
     id="namedview667"
     pagecolor="#ffffff"
     bordercolor="#000000"
     borderopacity="0.25"
     inkscape:showpageshadow="2"
     inkscape:pageopacity="0.0"
     inkscape:pagecheckerboard="0"
     inkscape:deskcolor="#d1d1d1"
     showgrid="false"
     inkscape:zoom="0.41476274"
     inkscape:cx="1186.2203"
     inkscape:cy="284.5"
     inkscape:window-width="1309"
     inkscape:window-height="456"
     inkscape:window-x="224"
     inkscape:window-y="25"
     inkscape:window-maximized="0"
     inkscape:current-layer="svg665" />
  <path
     d="M462.792 505.27C413.975 544.871 351.759 568.6 284.001 568.6C127.152 568.6 0.00195312 441.449 0.00195312 284.601C0.00195312 127.752 127.152 0.601562 284.001 0.601562C349.731 0.601562 410.247 22.9316 458.374 60.4199H458.959C506.419 96.0586 565.407 117.176 629.328 117.176C693.249 117.176 752.237 96.0586 799.697 60.4199H802.012C850.139 22.9316 910.654 0.601562 976.385 0.601562H2087.54C2244.39 0.601562 2371.54 127.752 2371.54 284.601C2371.54 441.449 2244.39 568.6 2087.54 568.6H976.385C909.602 568.6 848.202 545.549 799.709 506.969H798.184C750.985 472.014 692.571 451.342 629.328 451.342C567.117 451.342 509.578 471.345 462.792 505.27Z"
     fill="url(#paint0_linear_897_460)"
     id="path648" />
  <path
     fill-rule="evenodd"
     clip-rule="evenodd"
     d="M1118.08 310.365C1116.13 310.511 1106.08 311.111 1083.67 311.111C1065.84 311.111 1053.19 310.576 1048.75 310.365C979.859 307.335 928.439 295.343 928.439 280.985C928.439 266.627 979.859 254.651 1048.75 251.572V298.422C1053.25 298.746 1066.15 299.508 1083.98 299.508C1105.37 299.508 1116.08 298.616 1118.01 298.438V251.604C1186.75 254.667 1238.06 266.659 1238.06 280.985C1238.06 295.31 1186.77 307.303 1118.01 310.349L1118.08 310.365ZM1118.08 246.759V204.835H1214.01V140.904H952.812V204.835H1048.73V246.742C970.767 250.324 912.136 265.768 912.136 284.274C912.136 302.781 970.767 318.209 1048.73 321.806V456.15H1118.06V321.758C1195.85 318.176 1254.38 302.749 1254.38 284.258C1254.38 265.768 1195.89 250.34 1118.06 246.742L1118.08 246.759Z"
     fill="white"
     id="path650" />
  <path
     d="M1442.85 408.962C1427.07 408.962 1414.97 405.824 1406.54 399.547C1398.11 393.27 1392.37 384.483 1389.32 373.185C1386.27 361.708 1384.75 348.347 1384.75 333.104V188.651H1413.8V334.449C1413.8 343.774 1414.43 352.293 1415.69 360.004C1416.94 367.715 1419.63 373.813 1423.76 378.296C1428.06 382.779 1434.43 385.021 1442.85 385.021C1451.46 385.021 1457.83 382.779 1461.95 378.296C1466.08 373.813 1468.77 367.715 1470.02 360.004C1471.28 352.293 1471.91 343.774 1471.91 334.449V188.651H1500.69V333.104C1500.69 348.347 1499.17 361.708 1496.12 373.185C1493.07 384.483 1487.33 393.27 1478.9 399.547C1470.65 405.824 1458.64 408.962 1442.85 408.962ZM1584.07 408.962C1571.52 408.962 1561.03 406.272 1552.6 400.892C1544.35 395.512 1538.07 388.07 1533.77 378.565C1529.46 369.06 1526.95 358.031 1526.24 345.478L1553.14 338.215C1553.67 345.926 1554.84 353.369 1556.63 360.542C1558.61 367.715 1561.74 373.633 1566.05 378.296C1570.35 382.779 1576.36 385.021 1584.07 385.021C1591.96 385.021 1597.88 382.869 1601.83 378.565C1605.95 374.082 1608.01 367.715 1608.01 359.466C1608.01 349.603 1605.77 341.712 1601.29 335.794C1596.8 329.697 1591.15 323.599 1584.34 317.502L1547.76 285.222C1540.58 278.945 1535.29 272.131 1531.89 264.778C1528.48 257.246 1526.77 248.01 1526.77 237.071C1526.77 221.11 1531.35 208.736 1540.49 199.949C1549.64 191.162 1562.1 186.768 1577.88 186.768C1586.49 186.768 1594.02 187.934 1600.48 190.265C1607.12 192.417 1612.59 195.824 1616.89 200.487C1621.37 205.15 1624.87 211.068 1627.38 218.241C1630.07 225.235 1631.86 233.484 1632.76 242.989L1606.94 249.983C1606.4 242.81 1605.32 236.264 1603.71 230.346C1602.09 224.249 1599.22 219.407 1595.1 215.82C1591.15 212.054 1585.42 210.171 1577.88 210.171C1570.35 210.171 1564.43 212.233 1560.13 216.358C1556.01 220.303 1553.94 226.221 1553.94 234.112C1553.94 240.747 1555.02 246.217 1557.17 250.521C1559.5 254.825 1563.18 259.219 1568.2 263.702L1605.05 295.982C1613.3 303.155 1620.57 311.763 1626.84 321.806C1633.12 331.669 1636.26 343.416 1636.26 357.045C1636.26 367.805 1634.02 377.13 1629.53 385.021C1625.05 392.732 1618.86 398.65 1610.97 402.775C1603.26 406.9 1594.29 408.962 1584.07 408.962ZM1659.84 406.541V188.651H1707.18C1723.32 188.651 1736.05 191.162 1745.38 196.183C1754.88 201.025 1761.61 208.378 1765.55 218.241C1769.68 228.104 1771.74 240.389 1771.74 255.094V335.256C1771.74 350.679 1769.68 363.68 1765.55 374.261C1761.61 384.842 1755.06 392.912 1745.92 398.471C1736.95 403.851 1724.84 406.541 1709.6 406.541H1659.84ZM1690.23 384.752H1707.45C1718.57 384.752 1726.46 382.6 1731.12 378.296C1735.78 373.992 1738.56 367.715 1739.46 359.466C1740.54 351.217 1741.07 341.264 1741.07 329.607V258.86C1741.07 247.562 1740.36 238.416 1738.92 231.422C1737.49 224.428 1734.35 219.317 1729.51 216.089C1724.67 212.861 1717.04 211.247 1706.64 211.247H1690.23V384.752ZM1825.63 406.541V211.247H1788.78V188.651H1891.81V211.247H1856.03V406.541H1825.63Z"
     fill="white"
     id="path652" />
  <path
     fill-rule="evenodd"
     clip-rule="evenodd"
     d="M2215.77 307.968C2219.23 304.376 2221.16 299.579 2221.16 294.588C2221.16 289.597 2219.23 284.801 2215.77 281.209L2073.71 135.298C2072.86 134.423 2071.85 133.727 2070.73 133.252C2069.61 132.777 2068.4 132.532 2067.19 132.532C2065.97 132.532 2064.77 132.777 2063.65 133.252C2062.53 133.727 2061.51 134.423 2060.66 135.298L2047.62 148.706C2045.89 150.502 2044.93 152.899 2044.93 155.395C2044.93 157.89 2045.89 160.289 2047.62 162.085L2170.21 288.009C2171.94 289.81 2172.91 292.213 2172.91 294.713C2172.91 297.213 2171.94 299.616 2170.21 301.416L2047.7 427.147C2045.97 428.943 2045.01 431.342 2045.01 433.837C2045.01 436.333 2045.97 438.73 2047.7 440.527L2060.75 453.907C2061.59 454.782 2062.61 455.477 2063.73 455.952C2064.85 456.427 2066.05 456.672 2067.27 456.672C2068.49 456.672 2069.69 456.427 2070.81 455.952C2071.93 455.477 2072.94 454.782 2073.79 453.907L2215.77 307.968Z"
     fill="white"
     id="path654" />
  <path
     d="M281.501 457.793C377.123 457.793 454.694 380.276 454.694 284.6C454.694 188.978 377.178 111.407 281.501 111.407C190.812 111.407 116.331 181.226 108.959 270.018H337.823V299.128H108.959C116.331 387.974 190.812 457.793 281.501 457.793Z"
     fill="white"
     id="path656" />
  <defs
     id="defs663">
    <linearGradient
       id="paint0_linear_897_460"
       x1="0.00195312"
       y1="284.601"
       x2="2371.54"
       y2="284.601"
       gradientUnits="userSpaceOnUse">
      <stop
         offset="0.16"
         stop-color="#0052FF"
         id="stop658" />
      <stop
         offset="0.38"
         stop-color="#50A389"
         id="stop660" />
    </linearGradient>
  </defs>
</svg>
