<?xml version="1.0" encoding="UTF-8" standalone="no"?>
<svg
   width="570"
   height="570"
   viewBox="0 0 570 570"
   fill="none"
   version="1.1"
   id="svg960"
   sodipodi:docname="BNBChain-icon.svg"
   inkscape:version="1.2.1 (9c6d41e4, 2022-07-14)"
   xmlns:inkscape="http://www.inkscape.org/namespaces/inkscape"
   xmlns:sodipodi="http://sodipodi.sourceforge.net/DTD/sodipodi-0.dtd"
   xmlns="http://www.w3.org/2000/svg"
   xmlns:svg="http://www.w3.org/2000/svg">
  <defs
     id="defs964" />
  <sodipodi:namedview
     id="namedview962"
     pagecolor="#ffffff"
     bordercolor="#000000"
     borderopacity="0.25"
     inkscape:showpageshadow="2"
     inkscape:pageopacity="0.0"
     inkscape:pagecheckerboard="0"
     inkscape:deskcolor="#d1d1d1"
     showgrid="false"
     inkscape:zoom="0.41403509"
     inkscape:cx="285"
     inkscape:cy="285"
     inkscape:window-width="1309"
     inkscape:window-height="456"
     inkscape:window-x="224"
     inkscape:window-y="25"
     inkscape:window-maximized="0"
     inkscape:current-layer="svg960" />
  <path
     d="M389.712 0.800781H180.575C81.1639 0.800781 0.575195 81.3896 0.575195 180.801V389.938C0.575195 489.349 81.164 569.938 180.575 569.938H389.712C489.123 569.938 569.712 489.349 569.712 389.938V180.801C569.712 81.3895 489.123 0.800781 389.712 0.800781Z"
     fill="#F0B90B"
     id="path938" />
  <path
     d="M283.292 472.167C283.213 471.569 282.664 471.467 282.27 471.226C271.477 464.631 260.688 458.029 249.866 451.482C248.828 450.854 248.403 450.22 248.408 448.966C248.462 436.388 248.439 423.809 248.446 411.23C248.446 410.705 248.345 410.166 248.545 409.639C249.124 409.437 249.458 409.899 249.845 410.134C260.694 416.732 271.543 423.329 282.362 429.975C283.285 430.543 283.907 430.546 284.828 429.98C295.521 423.408 306.243 416.884 316.963 410.358C317.451 410.061 317.891 409.646 318.462 409.562C318.859 409.756 318.737 410.089 318.737 410.355C318.744 423.423 318.731 436.491 318.772 449.559C318.775 450.48 318.335 450.85 317.687 451.245C306.841 457.848 295.999 464.456 285.164 471.075C284.688 471.366 284.044 471.495 283.879 472.167H283.292Z"
     fill="#FCFCFC"
     id="path940" />
  <path
     d="M380.772 231.604C379.81 231.934 379.803 231.934 379.803 233.104C379.8 246.276 379.8 259.448 379.8 272.62C379.8 272.914 379.761 273.214 379.807 273.5C379.946 274.364 379.517 274.807 378.801 275.212C374.804 277.473 370.832 279.778 366.853 282.069C351.149 291.116 335.452 300.173 319.726 309.182C318.812 309.705 318.735 310.335 318.735 311.204C318.747 333.484 318.744 355.764 318.744 378.044C318.744 379.479 318.121 380.574 316.874 381.33C306.194 387.841 295.509 394.342 284.851 400.888C283.946 401.444 283.323 401.496 282.385 400.919C271.48 394.214 260.551 387.549 249.601 380.92C248.667 380.355 248.418 379.728 248.419 378.689C248.448 355.772 248.43 332.856 248.472 309.939C248.475 308.705 248.13 308.031 247.053 307.413C227.774 296.352 208.529 285.231 189.239 274.189C187.828 273.381 187.333 272.54 187.343 270.908C187.42 258.373 187.405 245.837 187.354 233.301C187.349 232.094 187.766 231.497 188.77 230.933C199.542 224.876 210.298 218.79 221.028 212.658C222.088 212.052 222.85 212.018 223.936 212.63C243.502 223.676 263.108 234.652 282.662 245.718C284.411 246.708 285.661 246.831 287.506 245.756C306.585 234.642 325.741 223.661 344.857 212.612C345.802 212.065 346.505 211.974 347.503 212.545C358.233 218.677 368.994 224.753 379.742 230.853C380.105 231.059 380.568 231.157 380.772 231.604Z"
     fill="#FCFCFC"
     id="path942" />
  <path
     d="M126.315 267.256C126.98 267.208 127.326 267.602 127.727 267.847C138.451 274.376 149.171 280.914 159.892 287.447C160.637 287.901 161.337 288.457 162.303 288.367C162.801 288.321 162.978 288.654 162.969 289.118C162.962 289.509 162.971 289.901 162.971 290.293C162.971 312.963 162.971 335.633 162.971 358.303C162.971 358.646 163.006 358.993 162.964 359.33C162.873 360.066 163.203 360.48 163.831 360.834C166.809 362.514 169.764 364.236 172.726 365.943C189.401 375.552 206.07 385.171 222.766 394.743C223.761 395.313 224.071 395.919 224.067 397.035C224.026 409.717 224.043 422.398 224.035 435.08C224.035 435.553 224.147 436.044 223.916 436.531C223.37 436.612 223.005 436.225 222.605 435.994C193.733 419.277 164.866 402.551 135.999 385.826C133.209 384.209 130.446 382.545 127.614 381.006C126.616 380.464 126.285 379.854 126.287 378.718C126.325 357.223 126.315 335.728 126.315 314.233C126.315 299.103 126.315 283.974 126.315 268.844V267.256Z"
     fill="#FCFCFC"
     id="path944" />
  <path
     d="M346.405 435.137C346.175 434.506 346.254 434.013 346.254 433.529C346.249 420.847 346.264 408.166 346.226 395.485C346.222 394.376 346.518 393.757 347.52 393.182C366.841 382.101 386.135 370.973 405.436 359.857C407.316 358.774 407.32 358.783 407.32 356.602C407.32 334.471 407.331 312.34 407.293 290.209C407.291 288.904 407.627 288.126 408.785 287.408C419.997 280.458 431.166 273.437 442.348 266.438C442.796 266.158 443.254 265.894 443.798 265.567C444.089 266.149 443.971 266.684 443.971 267.186C443.98 279.917 443.978 292.647 443.978 305.377C443.978 329.27 443.971 353.164 444.001 377.057C444.002 378.205 443.703 378.859 442.653 379.466C415.243 395.295 387.859 411.168 360.471 427.034C356.371 429.409 352.276 431.792 348.176 434.167C347.633 434.481 347.076 434.77 346.405 435.137Z"
     fill="#FCFCFC"
     id="path946" />
  <path
     d="M187.639 161.342C188.177 160.774 188.905 160.476 189.564 160.094C203.17 152.201 216.779 144.314 230.39 136.429C248.142 126.145 265.904 115.877 283.634 105.552C284.775 104.888 285.556 104.948 286.665 105.592C318.264 123.938 349.886 142.244 381.502 160.561C381.875 160.778 382.309 160.918 382.614 161.371C382.328 161.756 381.862 161.901 381.466 162.116C370.138 168.274 358.8 174.412 347.484 180.592C346.559 181.097 345.875 181.083 344.956 180.552C325.458 169.285 305.936 158.062 286.442 146.787C285.456 146.217 284.765 146.226 283.795 146.773C264.225 157.81 244.635 168.813 225.046 179.816C224.198 180.292 223.378 181.14 222.453 181.066C221.607 180.998 220.806 180.281 219.999 179.824C209.541 173.908 199.085 167.987 188.631 162.063C188.298 161.875 187.918 161.746 187.639 161.342Z"
     fill="#FCFCFC"
     id="path948" />
  <path
     d="M161.263 259C160.719 259.033 160.362 258.655 159.962 258.412C149.196 251.856 138.445 245.278 127.662 238.752C126.663 238.147 126.282 237.512 126.286 236.328C126.332 223.549 126.327 210.769 126.292 197.99C126.289 196.938 126.591 196.333 127.508 195.777C138.455 189.144 149.378 182.471 160.294 175.787C161.025 175.339 161.593 175.203 162.407 175.682C174.072 182.539 185.758 189.36 197.437 196.192C197.561 196.264 197.67 196.36 197.836 196.482C197.627 196.999 197.105 197.107 196.714 197.337C185.334 204.004 173.954 210.671 162.548 217.294C161.666 217.806 161.354 218.35 161.356 219.36C161.39 232.042 161.38 244.723 161.373 257.405C161.373 257.93 161.479 258.47 161.263 259Z"
     fill="#FCFCFC"
     id="path950" />
  <path
     d="M407.32 259.232C407.32 258.46 407.32 257.931 407.32 257.401C407.32 244.77 407.306 232.138 407.346 219.507C407.349 218.396 407.041 217.77 406.063 217.178C395.279 210.657 384.528 204.08 373.77 197.515C373.322 197.241 372.828 197.026 372.464 196.604C372.606 196.151 373.023 196.052 373.336 195.86C384.299 189.163 395.275 182.485 406.222 175.761C407.063 175.245 407.626 175.29 408.437 175.787C419.388 182.505 430.356 189.195 441.339 195.86C442.132 196.341 442.499 196.818 442.496 197.809C442.456 210.733 442.461 223.658 442.489 236.583C442.491 237.459 442.276 238.005 441.5 238.476C430.433 245.191 419.384 251.935 408.329 258.67C408.086 258.819 407.831 258.949 407.32 259.232Z"
     fill="#FCFCFC"
     id="path952" />
  <path
     d="M320.176 196.597C316.157 198.947 312.366 201.162 308.576 203.378C300.611 208.035 292.639 212.68 284.693 217.368C283.924 217.822 283.377 217.874 282.596 217.395C271.608 210.657 260.599 203.953 249.596 197.239C249.309 197.064 249.032 196.869 248.769 196.694C248.781 196.197 249.189 196.136 249.456 195.98C261.042 189.199 272.639 182.437 284.215 175.639C284.916 175.227 285.389 175.265 286.051 175.67C297.085 182.427 308.134 189.159 319.178 195.9C319.457 196.07 319.716 196.274 320.176 196.597Z"
     fill="#FCFCFC"
     id="path954" />
  <path
     d="M222.247 364.726C221.274 364.185 220.336 363.671 219.406 363.144C209.122 357.319 198.842 351.487 188.549 345.677C187.826 345.268 187.356 344.905 187.358 343.923C187.398 330.312 187.385 316.701 187.387 303.09C187.387 302.895 187.411 302.701 187.422 302.525C187.765 302.261 187.993 302.533 188.221 302.671C199.36 309.457 210.493 316.254 221.639 323.029C222.299 323.43 222.556 323.868 222.554 324.664C222.526 337.638 222.535 350.613 222.528 363.588C222.528 363.912 222.635 364.267 222.247 364.726Z"
     fill="#FCFCFC"
     id="path956" />
  <path
     d="M381.193 303.978C381.41 304.397 381.309 304.841 381.309 305.269C381.315 318.046 381.3 330.823 381.339 343.601C381.343 344.678 380.985 345.237 380.063 345.755C369.252 351.835 358.465 357.959 347.669 364.068C347.297 364.279 346.956 364.578 346.49 364.588C346.143 364.333 346.256 363.967 346.256 363.652C346.249 351.168 346.259 338.685 346.231 326.201C346.23 325.351 346.531 324.892 347.235 324.465C358.215 317.796 369.179 311.1 380.15 304.417C380.468 304.223 380.748 303.901 381.193 303.978Z"
     fill="#FCFCFC"
     id="path958" />
</svg>
