<?xml version="1.0" encoding="UTF-8" standalone="no"?>
<svg
   width="2372"
   height="569"
   viewBox="0 0 2372 569"
   fill="none"
   version="1.1"
   id="svg532"
   sodipodi:docname="BNBChain-USDT-Dropdown.svg"
   inkscape:version="1.2.1 (9c6d41e4, 2022-07-14)"
   xmlns:inkscape="http://www.inkscape.org/namespaces/inkscape"
   xmlns:sodipodi="http://sodipodi.sourceforge.net/DTD/sodipodi-0.dtd"
   xmlns="http://www.w3.org/2000/svg"
   xmlns:svg="http://www.w3.org/2000/svg">
  <sodipodi:namedview
     id="namedview534"
     pagecolor="#ffffff"
     bordercolor="#000000"
     borderopacity="0.25"
     inkscape:showpageshadow="2"
     inkscape:pageopacity="0.0"
     inkscape:pagecheckerboard="0"
     inkscape:deskcolor="#d1d1d1"
     showgrid="false"
     inkscape:zoom="0.41476274"
     inkscape:cx="1186.2203"
     inkscape:cy="284.5"
     inkscape:window-width="1309"
     inkscape:window-height="456"
     inkscape:window-x="224"
     inkscape:window-y="25"
     inkscape:window-maximized="0"
     inkscape:current-layer="svg532" />
  <path
     d="M462.792 505.469C413.975 545.07 351.759 568.799 284.001 568.799C127.152 568.799 0.00195312 441.648 0.00195312 284.8C0.00195312 127.951 127.152 0.800781 284.001 0.800781C349.731 0.800781 410.247 23.1309 458.374 60.6191H458.959C506.419 96.2578 565.407 117.375 629.328 117.375C693.249 117.375 752.237 96.2578 799.697 60.6191H802.012C850.139 23.1309 910.654 0.800781 976.385 0.800781H2087.54C2244.39 0.800781 2371.54 127.951 2371.54 284.8C2371.54 441.648 2244.39 568.799 2087.54 568.799H976.385C909.602 568.799 848.202 545.748 799.709 507.168H798.184C750.985 472.213 692.571 451.541 629.328 451.541C567.117 451.541 509.578 471.544 462.792 505.469Z"
     fill="url(#paint0_linear_897_342)"
     id="path497" />
  <path
     d="M281.55 469.164C281.477 468.609 280.966 468.514 280.599 468.29C270.566 462.159 260.536 456.022 250.475 449.935C249.51 449.352 249.115 448.762 249.12 447.596C249.17 435.903 249.149 424.209 249.155 412.515C249.156 412.027 249.062 411.526 249.248 411.036C249.786 410.848 250.096 411.277 250.456 411.496C260.541 417.63 270.627 423.763 280.685 429.942C281.543 430.469 282.121 430.472 282.978 429.946C292.918 423.837 302.886 417.772 312.852 411.705C313.305 411.429 313.715 411.043 314.245 410.965C314.614 411.145 314.501 411.454 314.501 411.701C314.508 423.85 314.495 435.999 314.533 448.147C314.536 449.003 314.127 449.348 313.525 449.715C303.442 455.853 293.363 461.996 283.29 468.15C282.848 468.42 282.249 468.54 282.095 469.164H281.55Z"
     fill="#FCFCFC"
     id="path499" />
  <path
     d="M372.171 245.527C371.277 245.834 371.27 245.834 371.27 246.921C371.268 259.166 371.268 271.412 371.267 283.657C371.267 283.93 371.231 284.209 371.274 284.475C371.403 285.278 371.005 285.69 370.338 286.067C366.623 288.169 362.931 290.311 359.232 292.442C344.632 300.851 330.039 309.272 315.42 317.647C314.571 318.133 314.498 318.719 314.499 319.526C314.51 340.239 314.507 360.951 314.507 381.664C314.507 382.998 313.928 384.016 312.768 384.719C302.84 390.771 292.907 396.815 282.999 402.901C282.157 403.418 281.578 403.466 280.706 402.93C270.569 396.696 260.408 390.501 250.228 384.337C249.36 383.812 249.128 383.229 249.13 382.264C249.157 360.959 249.14 339.655 249.179 318.351C249.181 317.203 248.861 316.577 247.859 316.002C229.937 305.719 212.047 295.381 194.114 285.116C192.801 284.365 192.341 283.582 192.351 282.065C192.423 270.412 192.409 258.758 192.361 247.105C192.356 245.982 192.744 245.428 193.678 244.903C203.692 239.272 213.691 233.614 223.666 227.914C224.651 227.35 225.36 227.319 226.369 227.888C244.559 238.156 262.785 248.36 280.964 258.648C282.59 259.568 283.752 259.683 285.467 258.683C303.204 248.351 321.012 238.142 338.783 227.871C339.662 227.363 340.315 227.278 341.243 227.809C351.217 233.51 361.222 239.158 371.213 244.829C371.551 245.02 371.981 245.112 372.171 245.527Z"
     fill="#FCFCFC"
     id="path501" />
  <path
     d="M135.617 278.671C136.235 278.626 136.556 278.993 136.929 279.22C146.899 285.29 156.864 291.367 166.832 297.441C167.524 297.863 168.175 298.38 169.072 298.297C169.536 298.254 169.701 298.563 169.692 298.994C169.685 299.358 169.693 299.723 169.693 300.087C169.694 321.162 169.694 342.237 169.694 363.312C169.694 363.631 169.726 363.953 169.687 364.267C169.602 364.951 169.91 365.336 170.494 365.665C173.262 367.227 176.009 368.827 178.763 370.414C194.264 379.347 209.76 388.29 225.282 397.188C226.207 397.719 226.495 398.282 226.492 399.319C226.453 411.108 226.469 422.898 226.462 434.687C226.462 435.127 226.565 435.584 226.351 436.037C225.843 436.112 225.504 435.752 225.132 435.537C198.291 419.996 171.455 404.447 144.619 388.898C142.026 387.396 139.457 385.848 136.825 384.418C135.896 383.914 135.589 383.347 135.591 382.291C135.626 362.308 135.617 342.325 135.617 322.343C135.617 308.277 135.617 294.212 135.617 280.147V278.671Z"
     fill="#FCFCFC"
     id="path503" />
  <path
     d="M340.222 434.74C340.009 434.153 340.082 433.695 340.082 433.245C340.078 421.456 340.092 409.667 340.056 397.878C340.053 396.847 340.327 396.271 341.259 395.737C359.221 385.435 377.157 375.09 395.1 364.757C396.848 363.75 396.852 363.758 396.852 361.73C396.852 341.156 396.862 320.582 396.827 300.009C396.825 298.796 397.137 298.072 398.214 297.405C408.637 290.944 419.02 284.417 429.415 277.91C429.832 277.65 430.258 277.404 430.764 277.101C431.033 277.641 430.924 278.139 430.925 278.606C430.932 290.44 430.931 302.275 430.931 314.109C430.931 336.322 430.924 358.534 430.952 380.747C430.953 381.814 430.675 382.422 429.699 382.986C404.217 397.701 378.76 412.457 353.299 427.207C349.488 429.415 345.68 431.63 341.869 433.838C341.365 434.13 340.847 434.399 340.222 434.74Z"
     fill="#FCFCFC"
     id="path505" />
  <path
     d="M192.626 180.208C193.127 179.68 193.803 179.403 194.416 179.047C207.065 171.71 219.716 164.378 232.369 157.048C248.873 147.487 265.385 137.941 281.868 128.344C282.928 127.726 283.654 127.782 284.685 128.38C314.061 145.435 343.458 162.454 372.85 179.482C373.197 179.683 373.6 179.814 373.883 180.235C373.618 180.593 373.185 180.727 372.817 180.927C362.286 186.652 351.745 192.358 341.225 198.103C340.365 198.573 339.73 198.56 338.875 198.066C320.749 187.592 302.6 177.158 284.478 166.677C283.562 166.147 282.919 166.156 282.018 166.664C263.824 176.924 245.613 187.153 227.401 197.382C226.613 197.824 225.851 198.613 224.991 198.544C224.205 198.481 223.46 197.814 222.71 197.39C212.987 191.889 203.267 186.386 193.548 180.878C193.239 180.703 192.885 180.583 192.626 180.208Z"
     fill="#FCFCFC"
     id="path507" />
  <path
     d="M168.106 270.995C167.601 271.025 167.268 270.674 166.897 270.448C156.888 264.354 146.893 258.238 136.869 252.171C135.94 251.609 135.586 251.019 135.59 249.918C135.633 238.038 135.628 226.157 135.595 214.277C135.592 213.3 135.874 212.736 136.725 212.22C146.902 206.054 157.057 199.85 167.205 193.636C167.885 193.22 168.413 193.093 169.17 193.538C180.013 199.914 190.877 206.254 201.735 212.605C201.85 212.672 201.952 212.762 202.106 212.875C201.911 213.356 201.427 213.457 201.062 213.67C190.483 219.868 179.904 226.066 169.301 232.223C168.481 232.699 168.19 233.204 168.193 234.144C168.224 245.933 168.215 257.723 168.208 269.512C168.208 270 168.307 270.502 168.106 270.995Z"
     fill="#FCFCFC"
     id="path509" />
  <path
     d="M396.851 271.212C396.851 270.494 396.851 270.002 396.851 269.509C396.851 257.767 396.838 246.024 396.875 234.282C396.878 233.248 396.591 232.666 395.683 232.117C385.657 226.054 375.662 219.94 365.661 213.836C365.245 213.582 364.785 213.382 364.447 212.99C364.579 212.568 364.967 212.476 365.258 212.298C375.45 206.072 385.653 199.864 395.83 193.613C396.612 193.133 397.136 193.175 397.89 193.637C408.07 199.883 418.267 206.101 428.477 212.298C429.213 212.746 429.555 213.189 429.552 214.109C429.515 226.125 429.52 238.141 429.546 250.156C429.547 250.97 429.348 251.478 428.627 251.916C418.338 258.158 408.066 264.428 397.789 270.689C397.563 270.827 397.326 270.948 396.851 271.212Z"
     fill="#FCFCFC"
     id="path511" />
  <path
     d="M315.839 212.983C312.102 215.167 308.578 217.227 305.055 219.287C297.65 223.616 290.239 227.934 282.852 232.293C282.137 232.714 281.628 232.762 280.903 232.318C270.687 226.054 260.453 219.821 250.225 213.58C249.957 213.417 249.7 213.235 249.455 213.073C249.467 212.611 249.846 212.554 250.094 212.409C260.865 206.106 271.646 199.82 282.408 193.499C283.059 193.117 283.499 193.151 284.115 193.528C294.372 199.81 304.644 206.068 314.911 212.334C315.171 212.493 315.411 212.683 315.839 212.983Z"
     fill="#FCFCFC"
     id="path513" />
  <path
     d="M224.8 369.284C223.894 368.78 223.023 368.303 222.158 367.813C212.598 362.398 203.041 356.976 193.472 351.574C192.8 351.194 192.363 350.857 192.365 349.944C192.402 337.291 192.39 324.637 192.392 311.984C192.392 311.803 192.414 311.622 192.425 311.458C192.743 311.214 192.956 311.466 193.167 311.595C203.523 317.903 213.872 324.222 224.234 330.52C224.848 330.893 225.086 331.3 225.085 332.04C225.059 344.102 225.067 356.163 225.061 368.225C225.061 368.527 225.16 368.857 224.8 369.284Z"
     fill="#FCFCFC"
     id="path515" />
  <path
     d="M372.562 312.81C372.764 313.199 372.67 313.612 372.67 314.009C372.676 325.887 372.662 337.766 372.698 349.644C372.702 350.646 372.369 351.166 371.512 351.647C361.461 357.3 351.433 362.993 341.397 368.672C341.051 368.868 340.734 369.145 340.301 369.155C339.978 368.918 340.083 368.578 340.083 368.285C340.077 356.679 340.086 345.074 340.061 333.469C340.059 332.678 340.339 332.252 340.994 331.855C351.201 325.655 361.393 319.43 371.593 313.217C371.889 313.037 372.149 312.738 372.562 312.81Z"
     fill="#FCFCFC"
     id="path517" />
  <path
     fill-rule="evenodd"
     clip-rule="evenodd"
     d="M1118.08 310.564C1116.13 310.71 1106.08 311.31 1083.67 311.31C1065.84 311.31 1053.19 310.775 1048.75 310.564C979.859 307.534 928.439 295.542 928.439 281.184C928.439 266.826 979.859 254.85 1048.75 251.771V298.621C1053.25 298.945 1066.15 299.707 1083.98 299.707C1105.37 299.707 1116.08 298.816 1118.01 298.637V251.803C1186.75 254.866 1238.06 266.858 1238.06 281.184C1238.06 295.51 1186.77 307.502 1118.01 310.548L1118.08 310.564ZM1118.08 246.958V205.034H1214.01V141.104H952.812V205.034H1048.73V246.942C970.767 250.523 912.136 265.967 912.136 284.474C912.136 302.98 970.767 318.408 1048.73 322.006V456.349H1118.06V321.957C1195.85 318.375 1254.38 302.948 1254.38 284.457C1254.38 265.967 1195.89 250.539 1118.06 246.942L1118.08 246.958Z"
     fill="white"
     id="path519" />
  <path
     d="M1442.85 409.161C1427.07 409.161 1414.97 406.023 1406.54 399.746C1398.11 393.47 1392.37 384.682 1389.32 373.384C1386.27 361.907 1384.75 348.547 1384.75 333.303V188.85H1413.8V334.648C1413.8 343.974 1414.43 352.492 1415.69 360.203C1416.94 367.915 1419.63 374.012 1423.76 378.495C1428.06 382.979 1434.43 385.22 1442.85 385.22C1451.46 385.22 1457.83 382.979 1461.95 378.495C1466.08 374.012 1468.77 367.915 1470.02 360.203C1471.28 352.492 1471.91 343.974 1471.91 334.648V188.85H1500.69V333.303C1500.69 348.547 1499.17 361.907 1496.12 373.384C1493.07 384.682 1487.33 393.47 1478.9 399.746C1470.65 406.023 1458.64 409.161 1442.85 409.161ZM1584.07 409.161C1571.52 409.161 1561.03 406.471 1552.6 401.091C1544.35 395.711 1538.07 388.269 1533.77 378.764C1529.46 369.26 1526.95 358.231 1526.24 345.677L1553.14 338.414C1553.67 346.126 1554.84 353.568 1556.63 360.741C1558.61 367.915 1561.74 373.833 1566.05 378.495C1570.35 382.979 1576.36 385.22 1584.07 385.22C1591.96 385.22 1597.88 383.068 1601.83 378.764C1605.95 374.281 1608.01 367.915 1608.01 359.665C1608.01 349.802 1605.77 341.911 1601.29 335.993C1596.8 329.896 1591.15 323.799 1584.34 317.701L1547.76 285.421C1540.58 279.145 1535.29 272.33 1531.89 264.977C1528.48 257.445 1526.77 248.21 1526.77 237.27C1526.77 221.31 1531.35 208.936 1540.49 200.148C1549.64 191.361 1562.1 186.967 1577.88 186.967C1586.49 186.967 1594.02 188.133 1600.48 190.464C1607.12 192.616 1612.59 196.024 1616.89 200.686C1621.37 205.349 1624.87 211.267 1627.38 218.44C1630.07 225.434 1631.86 233.684 1632.76 243.188L1606.94 250.182C1606.4 243.009 1605.32 236.463 1603.71 230.545C1602.09 224.448 1599.22 219.606 1595.1 216.019C1591.15 212.253 1585.42 210.37 1577.88 210.37C1570.35 210.37 1564.43 212.433 1560.13 216.557C1556.01 220.503 1553.94 226.421 1553.94 234.311C1553.94 240.947 1555.02 246.416 1557.17 250.72C1559.5 255.024 1563.18 259.418 1568.2 263.901L1605.05 296.181C1613.3 303.355 1620.57 311.963 1626.84 322.005C1633.12 331.869 1636.26 343.615 1636.26 357.244C1636.26 368.004 1634.02 377.33 1629.53 385.22C1625.05 392.932 1618.86 398.85 1610.97 402.974C1603.26 407.099 1594.29 409.161 1584.07 409.161ZM1659.84 406.74V188.85H1707.18C1723.32 188.85 1736.05 191.361 1745.38 196.382C1754.88 201.224 1761.61 208.577 1765.55 218.44C1769.68 228.304 1771.74 240.588 1771.74 255.293V335.455C1771.74 350.878 1769.68 363.88 1765.55 374.46C1761.61 385.041 1755.06 393.111 1745.92 398.67C1736.95 404.05 1724.84 406.74 1709.6 406.74H1659.84ZM1690.23 384.951H1707.45C1718.57 384.951 1726.46 382.799 1731.12 378.495C1735.78 374.191 1738.56 367.915 1739.46 359.665C1740.54 351.416 1741.07 341.463 1741.07 329.806V259.059C1741.07 247.761 1740.36 238.615 1738.92 231.621C1737.49 224.627 1734.35 219.516 1729.51 216.288C1724.67 213.06 1717.04 211.446 1706.64 211.446H1690.23V384.951ZM1825.63 406.74V211.446H1788.78V188.85H1891.81V211.446H1856.03V406.74H1825.63Z"
     fill="white"
     id="path521" />
  <path
     fill-rule="evenodd"
     clip-rule="evenodd"
     d="M2215.77 308.167C2219.23 304.575 2221.16 299.779 2221.16 294.788C2221.16 289.796 2219.23 285 2215.77 281.408L2073.71 135.497C2072.86 134.622 2071.85 133.927 2070.73 133.452C2069.61 132.977 2068.4 132.732 2067.19 132.732C2065.97 132.732 2064.77 132.977 2063.65 133.452C2062.53 133.927 2061.51 134.622 2060.66 135.497L2047.62 148.905C2045.89 150.701 2044.93 153.099 2044.93 155.594C2044.93 158.09 2045.89 160.488 2047.62 162.284L2170.21 288.208C2171.94 290.009 2172.91 292.412 2172.91 294.912C2172.91 297.412 2171.94 299.815 2170.21 301.615L2047.7 427.346C2045.97 429.142 2045.01 431.541 2045.01 434.036C2045.01 436.532 2045.97 438.93 2047.7 440.726L2060.75 454.106C2061.59 454.981 2062.61 455.676 2063.73 456.151C2064.85 456.626 2066.05 456.871 2067.27 456.871C2068.49 456.871 2069.69 456.626 2070.81 456.151C2071.93 455.676 2072.94 454.981 2073.79 454.106L2215.77 308.167Z"
     fill="white"
     id="path523" />
  <defs
     id="defs530">
    <linearGradient
       id="paint0_linear_897_342"
       x1="0.00195312"
       y1="284.8"
       x2="2371.54"
       y2="284.8"
       gradientUnits="userSpaceOnUse">
      <stop
         offset="0.16"
         stop-color="#F0B90B"
         id="stop525" />
      <stop
         offset="0.38"
         stop-color="#50A389"
         id="stop527" />
    </linearGradient>
  </defs>
</svg>
