<?xml version="1.0" encoding="UTF-8"?><svg id="a" xmlns="http://www.w3.org/2000/svg" viewBox="0 0 1768.63501 260.89062"><defs><style>.b{fill:#2a89f8;}.b,.c,.d{stroke-width:0px;}.c{fill:#2988f8;}.d{fill:#fff;}</style></defs><rect class="d" x="-46.13162" y="-45.50651" width="1863.627" height="360.78884"/><path class="c" d="m820.94046,174.02933c-3.29812,1.41583-6.4106,2.69176-9.78417,3.16484-12.37334,1.73513-22.31395-2.4304-29.95618-12.21396-1.8552-2.37501-1.92407-2.47162.24868-4.54296,3.41431-3.25496,6.95254-6.38057,10.4383-9.56095-.13332-.22771-.26665-.45543-.39997-.68314.52011.94897,1.01679,1.91162,1.56403,2.84476,4.34519,7.40924,11.72138,10.12683,18.98795,7.00649,6.08713-2.61389,9.57842-9.07423,8.52076-15.76697-.99937-6.32376-6.65021-11.62968-13.11439-12.00888-5.14785-.30199-9.21611,2.29518-12.75803,5.64924-5.9798,5.66265-11.81743,11.47472-17.71332,17.22551-4.9452,4.8235-9.84916,9.68984-14.84011,14.46574-11.36466,10.87498-28.62785,11.26237-40.33287.74607-9.54228-8.57321-12.99794-19.36559-9.64805-31.69873,3.39563-12.50154,12.01259-20.07562,24.71805-22.67538,11.90634-2.43625,24.89674,3.24223,31.5325,13.41429.44899.68825.87282,1.20499.05972,2.03382-3.43811,3.50461-6.79862,7.08499-10.29048,10.74563-1.18048-1.82907-2.05463-3.67375-3.37132-5.23602-3.81089-4.52169-11.90572-6.15982-18.02091-3.60826-5.64409,2.35499-9.51261,8.33936-9.02946,13.96804.61443,7.15809,5.00218,12.3693,11.78738,13.70676,5.22282,1.0295,9.72411-.57605,13.44473-4.32735,10.38526-10.47089,20.72853-20.9833,31.13343-31.43469,9.48397-9.52635,22.77537-11.95113,35.08076-6.49019.41731.18519.84079.35653,1.24558.52764.12814-.17528.2572-.27013.26422-.37325q.23179-3.40876,3.77384-3.40888c3.65896.00003,7.31874.0436,10.97642-.02449,1.2052-.02243,1.59964.3245,1.59753,1.56052-.03389,19.84287-.03715,39.68584.00481,59.52867.00285,1.34834-.57055,1.48568-1.66682,1.47363-4.05764-.04463-8.11869-.10298-12.17294.022-1.76498.0544-2.61773-.36009-2.29263-2.24864.08582-.4985.01296-1.02419.01296-1.7809Z"/><path class="c" d="m894.11013,159.53694c0-13.72975.03864-27.45974-.04679-41.18896-.01123-1.80467.50086-2.20479,2.21711-2.15489,4.31807.12553,8.64314.09034,12.96345.01226,1.31445-.02376,1.69618.3724,1.67581,1.66975-.01995,1.27227-.63031,2.88077.37037,3.69895.37391.30574,2.0782-1.02537,3.18532-1.59175,17.78869-9.1002,38.91352.80854,42.75365,20.25765,3.41694,17.30589-9.87734,36.88544-30.46824,36.04012-4.98439-.20463-9.65702-1.65753-13.96203-4.22829-.53176-.31754-1.07547-1.12085-1.70271-.68507-.53597.37237-.20604,1.23377-.20716,1.87228-.01593,9.15314-.05801,18.30677.03116,27.45906.01664,1.70674-.50405,2.09066-2.12225,2.04787-4.25229-.11242-8.51178-.11729-12.76368.00216-1.6348.04595-1.96242-.5046-1.95632-2.02203.05521-13.72951.03232-27.45936.03231-41.18911Zm32.52195,2.94965c8.83804-.00915,15.80025-6.97753,15.77747-15.79147-.02234-8.6444-7.08108-15.70966-15.7102-15.72473-8.77942-.01533-15.87819,7.02575-15.88248,15.7534-.00434,8.81625,6.97449,15.77195,15.81521,15.7628Z"/><path class="b" d="m1063.73441,150.35724c3.42686-7.94972,6.67482-15.48195,9.92058-23.01511,1.49401-3.46751,3.03707-6.91546,4.44751-10.41653.51909-1.28851,1.18389-1.79889,2.634-1.76945,4.92036.09991,9.84401.0366,14.76641.03881,2.42667.00109,2.43527.00805,1.47433,2.16363-8.17426,18.33641-16.35242,36.67109-24.52829,55.00677-4.80373,10.77305-9.62632,21.5378-14.38145,32.33216-.58743,1.33342-1.29187,1.85146-2.80247,1.81841-4.98653-.10915-9.97803-.10047-14.96527-.00975-1.80272.0328-2.01232-.40523-1.26085-1.98848,5.00108-10.5369,9.90918-21.11771,14.90891-31.65528.63087-1.32962.60382-2.36821-.06205-3.69808-8.66609-17.30758-17.26761-34.6473-25.88239-51.98043-.98019-1.97222-.97154-1.98554,1.24227-1.98781,5.38804-.00552,10.77696.05189,16.16353-.03684,1.48025-.02438,2.2139.44478,2.83312,1.80252,4.83862,10.60965,9.76497,21.17948,14.66689,31.76039.18999.41013.40665.80798.82521,1.63506Z"/><path class="c" d="m1006.0648,119.3199q.2422-3.82136,4.09654-3.82136c3.59126.00002,7.18321.04017,10.77337-.02262,1.1798-.02064,1.6169.28162,1.61456,1.54499-.03635,19.8367-.03728,39.6735.00097,59.51019.00251,1.30571-.51446,1.52128-1.64699,1.50782-4.18919-.04979-8.38311-.12323-12.56737.02862-1.80796.0656-2.40983-.4808-2.13226-2.20014.08313-.51491.01284-1.05449.01284-1.87075-7.21956,3.61797-14.65454,4.55539-22.33403,2.72449-7.74123-1.84563-13.67106-6.32484-17.9081-12.99749-7.11355-11.2027-5.98928-26.56384,2.37933-37.26401,6.82302-8.72399,21.981-14.55609,37.71113-7.13974Zm-14.67405,43.1667c8.76581.00956,15.95079-7.08118,15.94431-15.73518-.00648-8.65164-7.22314-15.78976-15.95469-15.78102-8.67191.00868-15.9159,7.27773-15.83543,15.8902.08042,8.61109,7.18443,15.61655,15.84581,15.62599Z"/><path class="c" d="m869.70029,134.59946c-.00001-13.46974.02659-26.93961-.03544-40.40906-.00732-1.58929.30764-2.18804,2.03841-2.13296,4.1197.13109,8.24769.10039,12.36965.01141,1.48841-.03213,2.03975.26814,2.03624,1.92923-.05751,27.20479-.04947,54.40974-.01464,81.61461.00171,1.32815-.26768,1.85719-1.7292,1.82545-4.32139-.09387-8.64748-.09487-12.96881.00038-1.47173.03244-1.72666-.51378-1.72253-1.83271.04277-13.66868.02631-27.33754.02631-41.00634Z"/><path class="b" d="m861.32045,134.74054c.00001,13.53469-.02803,27.06952.03679,40.6039.00777,1.62497-.37422,2.15444-2.06915,2.10305-4.18611-.12695-8.37906-.07361-12.5684-.02231-1.23558.01512-1.74038-.27671-1.73832-1.65928.04057-27.33471.0401-54.66952.00073-82.00424-.00195-1.35374.45091-1.69998,1.71434-1.6837,4.25576.05485,8.51409.08314,12.76838-.01315,1.47927-.03348,1.8994.35785,1.89237,1.87278-.06296,13.60075-.03676,27.20191-.03675,40.80295Z"/></svg>