<?xml version="1.0" encoding="UTF-8"?><svg id="b" xmlns="http://www.w3.org/2000/svg" viewBox="0 0 4393.16537 313.64515"><defs><style>.d{fill:#1480ba;}.d,.e,.f{stroke-width:0px;}.e{fill:#1dd3ad;}.f{fill:#e4e6e7;}</style></defs><g id="c"><rect class="d" width="4393.16537" height="313.64515"/><path class="f" d="m1806.2584,191.13228h-14.54248v-29.97461l-22.13013-44.14551h16.12329l13.17285,29.53906,13.17236-29.53906h16.12354l-21.91943,44.14551v29.97461Z"/><path class="f" d="m1880.077,183.22994c-4.46216,6.1416-12.13696,9.20996-23.02563,9.20996-10.89062,0-18.56543-3.06836-23.02588-9.20996-4.4624-6.13965-6.69189-15.75098-6.69189-28.83105s2.22949-22.79785,6.69189-29.15723c4.46045-6.35742,12.13525-9.53711,23.02588-9.53711,10.88867,0,18.56348,3.17969,23.02563,9.53711,4.46069,6.35938,6.69165,16.07715,6.69165,29.15723s-2.23096,22.69141-6.69165,28.83105Zm-34.67041-9.5918c2.07153,3.81445,5.9541,5.72168,11.64478,5.72168s9.57153-1.90723,11.64453-5.72168c2.07129-3.81543,3.10889-10.20898,3.10889-19.18457,0-8.97363-1.05396-15.49512-3.16162-19.56543-2.10742-4.06836-5.97217-6.10352-11.5918-6.10352-5.62158,0-9.48438,2.03516-11.59204,6.10352-2.10767,4.07031-3.16138,10.5918-3.16138,19.56543,0,8.97559,1.03564,15.36914,3.10864,19.18457Z"/><path class="f" d="m1910.47862,166.38912c0,8.64844,4.25,12.9707,12.75122,12.9707,8.49976,0,12.75122-4.32227,12.75122-12.9707v-49.37695h14.54248v49.0498c0,9.08496-2.26562,15.75098-6.79688,20.00195-4.53149,4.25098-11.36475,6.37598-20.49683,6.37598-9.13354,0-15.96509-2.125-20.49658-6.37598s-6.79712-10.91699-6.79712-20.00195v-49.0498h14.54248v49.37695Z"/><path class="f" d="m1977.39512,166.27974v24.85254h-14.54272v-74.12012h27.82056c16.86108,0,25.2915,8.13965,25.2915,24.41602,0,9.66504-3.51367,16.78613-10.53809,21.36426l10.22217,28.33984h-15.9126l-8.3252-24.85254h-14.01562Zm21.18164-16.13184c1.68604-2.17969,2.52905-5.0498,2.52905-8.61035,0-3.55957-.89575-6.39355-2.68726-8.50293-1.7915-2.10645-4.37329-3.16016-7.74561-3.16016h-13.27783v23.54395h13.48877c3.44141,0,6.00659-1.08984,7.69287-3.27051Z"/><path class="e" d="m2046.10166,117.01216h28.13672c7.4458,0,13.03101,1.54492,16.75537,4.63281,3.72314,3.08887,5.58545,8.08496,5.58545,14.9873,0,4.1416-.59766,7.43066-1.7915,9.86426-1.19531,2.43555-3.23242,4.59668-6.1123,6.48535,3.16162,1.38184,5.49658,3.37891,7.00781,5.99512,1.51025,2.61621,2.26587,6.25098,2.26587,10.90039,0,7.19336-2.03833,12.53516-6.11206,16.02246-4.0752,3.48828-9.80054,5.23242-17.17725,5.23242h-28.55811v-74.12012Zm27.39893,12.8623h-12.85645v17.6582h12.96191c5.47974,0,8.21973-2.94336,8.21973-8.8291,0-5.88672-2.77612-8.8291-8.3252-8.8291Zm.42163,30.30176h-13.27808v18.09375h13.27808c3.16138,0,5.49634-.65332,7.00781-1.96191,1.51001-1.30762,2.26562-3.70605,2.26562-7.19336,0-5.95801-3.09229-8.93848-9.27344-8.93848Z"/><path class="e" d="m2122.18614,166.27974v24.85254h-14.54248v-74.12012h27.82056c16.86108,0,25.29126,8.13965,25.29126,24.41602,0,9.66504-3.51367,16.78613-10.53809,21.36426l10.22217,28.33984h-15.9126l-8.3252-24.85254h-14.01562Zm21.18164-16.13184c1.68604-2.17969,2.5293-5.0498,2.5293-8.61035,0-3.55957-.896-6.39355-2.6875-8.50293-1.7915-2.10645-4.37305-3.16016-7.74536-3.16016h-13.27808v23.54395h13.48877c3.44141,0,6.00684-1.08984,7.69287-3.27051Z"/><path class="e" d="m2163.49571,191.13228l16.12305-74.12012h27.60986l16.12354,74.12012h-14.54248l-2.84546-13.40723h-25.08081l-2.84521,13.40723h-14.54248Zm27.39893-61.69434l-7.27124,35.20703h19.60083l-7.27124-35.20703h-5.05835Z"/><path class="e" d="m2230.30625,191.13228v-74.12012h24.55371l17.28271,61.04004h1.05371v-61.04004h14.54248v74.12012h-23.92139l-17.91504-61.04004h-1.05371v61.04004h-14.54248Z"/><path class="e" d="m2324.83213,191.13228h-24.13232v-74.12012h24.13232c6.18164,0,11.27588.67285,15.28027,2.0166,4.00439,1.3457,7.11328,3.56152,9.32617,6.64844,2.21289,3.08984,3.74121,6.72266,4.58398,10.90039.84326,4.17969,1.26465,9.61133,1.26465,16.2959,0,6.68652-.38672,12.22656-1.15918,16.62207-.77344,4.39746-2.23096,8.32129-4.37305,11.77246-2.14404,3.45215-5.25293,5.95898-9.32617,7.52051-4.0752,1.56348-9.27344,2.34375-15.59668,2.34375Zm15.28027-29.42969c.14014-2.3252.21094-5.54102.21094-9.64648s-.1416-7.39355-.42188-9.86523c-.28125-2.46875-.94824-4.72266-2.00195-6.75781-1.05371-2.0332-2.61816-3.43359-4.68945-4.19629-2.07324-.7627-4.86572-1.14453-8.37793-1.14453h-9.58984v47.95996h9.58984c5.26904,0,9.09766-1.37988,11.48633-4.14258,2.03711-2.25098,3.30176-6.32129,3.79395-12.20703Z"/><path class="e" d="m2427.04893,191.13228v-30.73828h-26.66113v30.73828h-14.54297v-74.12012h14.54297v30.30176h26.66113v-30.30176h14.54297v74.12012h-14.54297Z"/><path class="e" d="m2454.55186,191.13228v-74.12012h46.36816v13.08008h-31.8252v17.33105h25.50195v12.86133h-25.50195v17.76758h31.8252v13.08008h-46.36816Z"/><path class="e" d="m2524.83994,166.27974v24.85254h-14.54297v-74.12012h27.8208c16.86084,0,25.2915,8.13965,25.2915,24.41602,0,9.66504-3.51367,16.78613-10.53809,21.36426l10.22168,28.33984h-15.91211l-8.3252-24.85254h-14.01562Zm21.18164-16.13184c1.68555-2.17969,2.52881-5.0498,2.52881-8.61035,0-3.55957-.896-6.39355-2.68701-8.50293-1.7915-2.10645-4.37354-3.16016-7.74561-3.16016h-13.27783v23.54395h13.48828c3.44141,0,6.00684-1.08984,7.69336-3.27051Z"/><path class="e" d="m2572.99815,191.13228v-74.12012h46.36816v13.08008h-31.8252v17.33105h25.50195v12.86133h-25.50195v17.76758h31.8252v13.08008h-46.36816Z"/></g></svg>