<?xml version="1.0" encoding="utf-8"?>
<!-- Generator: Adobe Illustrator 28.0.0, SVG Export Plug-In . SVG Version: 6.00 Build 0)  -->
<svg version="1.1" id="Layer_1" xmlns:xodm="http://www.corel.com/coreldraw/odm/2003"
	 xmlns="http://www.w3.org/2000/svg" xmlns:xlink="http://www.w3.org/1999/xlink" x="0px" y="0px" viewBox="0 0 2529.9 575.3"
	 style="enable-background:new 0 0 2529.9 575.3;" xml:space="preserve">
<style type="text/css">
	.st0{fill:#22143D;}
	.st1{fill:url(#SVGID_1_);}
</style>
<g id="Layer_x0020_1">
	<g id="_1705846844560">
		<g>
			<path class="st0" d="M793.3,525.5V181.4h51.4l4.5,27.9h2.7c14.4-18.9,39.6-32.4,73.9-32.4c63.1,0,114.4,51.4,114.4,127.9
				s-50.5,127.9-114.5,127.9c-34.2,0-57.7-14.4-70.3-30.6h-2.7v122.5h-59.5l0,0v0.9H793.3z M980.7,304.8c0-45-28.8-73-64-73
				s-64,27.9-64,73s28.8,73,64,73S980.7,349.9,980.7,304.8z"/>
			<path class="st0" d="M1069.9,304.8c0-74.8,54.1-127.9,125.2-127.9c72.1,0,125.2,54.1,125.2,127.9c0,74.8-54.1,127.9-125.2,127.9
				C1123,432.7,1069.9,378.7,1069.9,304.8z M1260.8,304.8c0-44.1-28.8-73-65.8-73c-36,0-65.8,28.8-65.8,73s29.7,73,65.8,73
				S1260.8,349,1260.8,304.8z"/>
			<polygon class="st0" points="1363.5,428.2 1363.5,86.8 1423,86.8 1423,428.2 			"/>
			<path class="st0" d="M1644.6,181.4h63.1l-107.2,300c-10.8,29.7-25.2,44.1-64,44.1h-57.6v-55h48.6c9,0,13.5-4.5,16.2-11.7
				l5.4-16.2l-100.9-261.3h63.1l64,171.2h9.9l57.7-171.2h1.7V181.4z"/>
			<path class="st0" d="M1719.4,440.9h60.4c2.7,16.2,18.9,37.8,56.8,37.8c36,0,59.5-22.5,59.5-56.8v-34.2h-2.7
				c-13.5,14.4-37.8,27-68.5,27c-63.1,0-112.6-48.6-112.6-118.9s48.6-118.9,112.6-118.9c32.4,0,56.8,13.5,72.1,31.5h2.7l4.5-27h51.4
				v240.5c0,65.8-44.1,109-118.9,109C1752.7,530.9,1721.2,476,1719.4,440.9L1719.4,440.9z M1895.1,295.8c0-38.7-27-65.8-62.2-65.8
				c-34.2,0-61.3,27-61.3,65.8s27,65.8,61.3,65.8C1867.2,361.6,1895.1,334.5,1895.1,295.8z"/>
			<path class="st0" d="M1996,304.8c0-74.8,54.1-127.9,125.2-127.9c72.1,0,125.2,54.1,125.2,127.9c0,74.8-54.1,127.9-125.2,127.9
				C2049.1,432.7,1996,378.7,1996,304.8z M2187,304.8c0-44.1-29.7-73-65.8-73c-36,0-65.8,28.8-65.8,73s29.7,73,65.8,73
				C2157.2,377.8,2187,349,2187,304.8z"/>
			<path class="st0" d="M2287.9,428.2V181.4h51.4l4.5,23.4h2.7c9.9-10.8,34.2-27.9,71.2-27.9c56.8,0,97.3,40.5,97.3,103.6v148.6
				h-59.5V288.6c0-31.5-22.5-55-53.2-55s-55,24.3-55,55v140.5h-59.4l0,0V428.2z"/>
		</g>
		
			<linearGradient id="SVGID_1_" gradientUnits="userSpaceOnUse" x1="-197.3312" y1="845.106" x2="454.6688" y2="464.106" gradientTransform="matrix(0.9009 0 0 0.9009 191.6448 -293.0672)">
			<stop  offset="0" style="stop-color:#A726C1"/>
			<stop  offset="0.8784" style="stop-color:#803BDF"/>
			<stop  offset="1" style="stop-color:#7B3FE4"/>
		</linearGradient>
		<path class="st1" d="M472.6,399.4l145.9-84.7c8.1-4.5,12.6-12.6,12.6-21.6V123.7c0-9-4.5-17.1-12.6-21.6L472.6,17.4
			c-8.1-4.5-17.1-4.5-25.2,0l-146,84.7c-8.1,4.5-12.6,12.6-12.6,21.6v301.8L186.1,485L83.4,425.5v-118L186.1,248l67.6,38.7v-79.3
			l-55-31.5c-3.6-1.8-8.1-3.6-12.6-3.6s-9,0.9-12.6,3.6l-146,84.8c-8.1,4.5-12.6,12.6-12.6,21.6v169.4c0,9,4.5,17.1,12.6,21.6
			L173.4,558c8.1,4.5,17.1,4.5,25.2,0l145.9-84.7c8.1-4.5,12.6-12.6,12.6-21.6V149.9l1.8-0.9l101-58.6l102.7,59.5v118l-102.7,59.4
			l-67.6-38.7v79.3l55,31.5C455.4,403.9,464.4,403.9,472.6,399.4L472.6,399.4z"/>
	</g>
</g>
</svg>
