<?xml version="1.0" encoding="UTF-8" standalone="no"?>
<svg
   width="570"
   height="570"
   viewBox="0 0 570 570"
   fill="none"
   version="1.1"
   id="svg228"
   sodipodi:docname="Polygon-icon.svg"
   inkscape:version="1.2.1 (9c6d41e4, 2022-07-14)"
   xmlns:inkscape="http://www.inkscape.org/namespaces/inkscape"
   xmlns:sodipodi="http://sodipodi.sourceforge.net/DTD/sodipodi-0.dtd"
   xmlns="http://www.w3.org/2000/svg"
   xmlns:svg="http://www.w3.org/2000/svg">
  <sodipodi:namedview
     id="namedview230"
     pagecolor="#ffffff"
     bordercolor="#000000"
     borderopacity="0.25"
     inkscape:showpageshadow="2"
     inkscape:pageopacity="0.0"
     inkscape:pagecheckerboard="0"
     inkscape:deskcolor="#d1d1d1"
     showgrid="false"
     inkscape:zoom="0.41403509"
     inkscape:cx="285"
     inkscape:cy="285"
     inkscape:window-width="1309"
     inkscape:window-height="456"
     inkscape:window-x="224"
     inkscape:window-y="25"
     inkscape:window-maximized="0"
     inkscape:current-layer="svg228" />
  <path
     d="M389.712 0H180.575C81.1639 0 0.575195 80.5888 0.575195 180V389.137C0.575195 488.548 81.164 569.137 180.575 569.137H389.712C489.123 569.137 569.712 488.548 569.712 389.137V180C569.712 80.5888 489.123 0 389.712 0Z"
     fill="url(#paint0_linear_897_161)"
     id="path217" />
  <path
     d="M360.324 340.66L433.87 298.192C437.766 295.942 440.175 291.76 440.175 287.26V202.335C440.175 197.845 437.755 193.653 433.87 191.402L360.324 148.935C356.428 146.684 351.599 146.695 347.704 148.935L274.157 191.402C270.262 193.653 267.852 197.845 267.852 202.335V347.757C267.852 351.687 265.756 355.319 262.352 357.284L221.777 380.707C218.374 382.671 214.181 382.671 210.778 380.707L170.204 357.284C166.8 355.319 164.703 351.687 164.703 347.757V300.903C164.703 296.973 166.8 293.341 170.204 291.376L210.779 267.953C214.182 265.989 218.374 265.989 221.777 267.953L233.797 274.891C241.131 279.124 250.297 273.832 250.297 265.365V250.815C250.297 246.884 248.199 243.253 244.795 241.288L222.583 228.467C220.672 227.363 218.486 226.78 216.267 226.78C214.049 226.78 211.862 227.363 209.962 228.467L136.416 270.935C132.521 273.185 130.111 277.367 130.111 281.868V366.792C130.111 371.282 132.531 375.475 136.416 377.725L209.962 420.193C213.847 422.432 218.687 422.432 222.583 420.193L296.129 377.736C300.024 375.485 302.434 371.293 302.434 366.803V216.104C302.434 215.44 302.791 214.827 303.368 214.499L348.509 188.432C351.912 186.467 356.105 186.467 359.509 188.432L400.083 211.854C403.486 213.819 405.583 217.451 405.583 221.381V268.235C405.583 272.165 403.486 275.797 400.083 277.761L359.509 301.184C356.105 303.149 351.912 303.148 348.509 301.183L336.544 294.273C329.211 290.038 320.043 295.331 320.043 303.799V318.346C320.043 322.276 322.139 325.907 325.542 327.872L347.704 340.671C351.599 342.91 356.428 342.9 360.324 340.66Z"
     fill="white"
     id="path219" />
  <defs
     id="defs226">
    <linearGradient
       id="paint0_linear_897_161"
       x1="-103.434"
       y1="46.7775"
       x2="484.108"
       y2="406.325"
       gradientUnits="userSpaceOnUse">
      <stop
         stop-color="#8E489C"
         id="stop221" />
      <stop
         offset="1"
         stop-color="#6E56A4"
         id="stop223" />
    </linearGradient>
  </defs>
</svg>
