<?xml version="1.0" encoding="UTF-8" standalone="no"?>
<svg
   width="2372"
   height="568"
   viewBox="0 0 2372 568"
   fill="none"
   version="1.1"
   id="svg26"
   sodipodi:docname="PolygonUSDT-Dropdown.svg"
   inkscape:version="1.2.1 (9c6d41e4, 2022-07-14)"
   xmlns:inkscape="http://www.inkscape.org/namespaces/inkscape"
   xmlns:sodipodi="http://sodipodi.sourceforge.net/DTD/sodipodi-0.dtd"
   xmlns="http://www.w3.org/2000/svg"
   xmlns:svg="http://www.w3.org/2000/svg">
  <sodipodi:namedview
     id="namedview28"
     pagecolor="#ffffff"
     bordercolor="#000000"
     borderopacity="0.25"
     inkscape:showpageshadow="2"
     inkscape:pageopacity="0.0"
     inkscape:pagecheckerboard="0"
     inkscape:deskcolor="#d1d1d1"
     showgrid="false"
     inkscape:zoom="0.34033628"
     inkscape:cx="1322.2217"
     inkscape:cy="285.01222"
     inkscape:window-width="1309"
     inkscape:window-height="456"
     inkscape:window-x="224"
     inkscape:window-y="25"
     inkscape:window-maximized="0"
     inkscape:current-layer="svg26" />
  <path
     d="M462.792 504.668C413.975 544.27 351.759 567.998 284.001 567.998C127.152 567.998 0.00195312 440.848 0.00195312 283.999C0.00195312 127.15 127.152 0 284.001 0C349.731 0 410.247 22.3301 458.374 59.8184H458.959C506.419 95.457 565.407 116.574 629.328 116.574C693.249 116.574 752.237 95.457 799.697 59.8184H802.012C850.139 22.3301 910.654 0 976.385 0H2087.54C2244.39 0 2371.54 127.15 2371.54 283.999C2371.54 440.848 2244.39 567.998 2087.54 567.998H976.385C909.602 567.998 848.202 544.947 799.709 506.367H798.184C750.985 471.412 692.571 450.74 629.328 450.74C567.117 450.74 509.578 470.743 462.792 504.668Z"
     fill="url(#paint0_linear_897_227)"
     id="path9" />
  <path
     d="M362.817 333.712L436.363 291.244C440.259 288.994 442.668 284.812 442.668 280.311V195.387C442.668 190.897 440.248 186.704 436.363 184.454L362.817 141.986C358.922 139.736 354.092 139.747 350.197 141.986L276.65 184.454C272.755 186.704 270.346 190.897 270.346 195.387V340.809C270.346 344.739 268.249 348.371 264.845 350.336L224.27 373.758C220.867 375.723 216.675 375.723 213.271 373.758L172.697 350.336C169.293 348.371 167.196 344.739 167.196 340.809V293.955C167.196 290.025 169.293 286.393 172.697 284.428L213.272 261.005C216.675 259.041 220.867 259.04 224.27 261.005L236.291 267.943C243.624 272.176 252.79 266.884 252.79 258.416V243.867C252.79 239.936 250.693 236.304 247.288 234.34L225.076 221.519C223.165 220.415 220.979 219.831 218.76 219.831C216.542 219.831 214.355 220.415 212.456 221.519L138.909 263.987C135.014 266.237 132.604 270.419 132.604 274.919V359.844C132.604 364.334 135.025 368.526 138.909 370.777L212.456 413.244C216.34 415.484 221.18 415.484 225.076 413.244L298.622 370.787C302.518 368.537 304.927 364.344 304.927 359.855V209.156C304.927 208.491 305.284 207.879 305.861 207.55L351.002 181.484C354.405 179.519 358.598 179.519 362.002 181.483L402.576 204.906C405.98 206.871 408.076 210.502 408.076 214.432V261.287C408.076 265.217 405.98 268.848 402.576 270.813L362.002 294.236C358.599 296.2 354.405 296.2 351.002 294.235L339.037 287.325C331.704 283.09 322.536 288.382 322.536 296.851V311.398C322.536 315.327 324.632 318.958 328.035 320.924L350.197 333.722C354.092 335.962 358.922 335.951 362.817 333.712Z"
     fill="white"
     id="path11" />
  <path
     fill-rule="evenodd"
     clip-rule="evenodd"
     d="M1118.08 309.764C1116.13 309.91 1106.08 310.509 1083.67 310.509C1065.84 310.509 1053.19 309.974 1048.75 309.764C979.859 306.733 928.439 294.741 928.439 280.383C928.439 266.025 979.859 254.049 1048.75 250.97V297.82C1053.25 298.144 1066.15 298.906 1083.98 298.906C1105.37 298.906 1116.08 298.015 1118.01 297.836V251.003C1186.75 254.065 1238.06 266.058 1238.06 280.383C1238.06 294.709 1186.77 306.701 1118.01 309.748L1118.08 309.764ZM1118.08 246.157V204.233H1214.01V140.303H952.812V204.233H1048.73V246.141C970.767 249.722 912.136 265.166 912.136 283.673C912.136 302.18 970.767 317.607 1048.73 321.205V455.548H1118.06V321.156C1195.85 317.575 1254.38 302.147 1254.38 283.657C1254.38 265.166 1195.89 249.738 1118.06 246.141L1118.08 246.157Z"
     fill="white"
     id="path13" />
  <path
     d="M1442.85 408.36C1427.07 408.36 1414.97 405.222 1406.54 398.945C1398.11 392.669 1392.37 383.881 1389.32 372.583C1386.27 361.106 1384.75 347.746 1384.75 332.502V188.049H1413.8V333.847C1413.8 343.173 1414.43 351.691 1415.69 359.402C1416.94 367.114 1419.63 373.211 1423.76 377.694C1428.06 382.178 1434.43 384.419 1442.85 384.419C1451.46 384.419 1457.83 382.178 1461.95 377.694C1466.08 373.211 1468.77 367.114 1470.02 359.402C1471.28 351.691 1471.91 343.173 1471.91 333.847V188.049H1500.69V332.502C1500.69 347.746 1499.17 361.106 1496.12 372.583C1493.07 383.881 1487.33 392.669 1478.9 398.945C1470.65 405.222 1458.64 408.36 1442.85 408.36ZM1584.07 408.36C1571.52 408.36 1561.03 405.67 1552.6 400.29C1544.35 394.91 1538.07 387.468 1533.77 377.963C1529.46 368.459 1526.95 357.43 1526.24 344.876L1553.14 337.613C1553.67 345.325 1554.84 352.767 1556.63 359.94C1558.61 367.114 1561.74 373.032 1566.05 377.694C1570.35 382.178 1576.36 384.419 1584.07 384.419C1591.96 384.419 1597.88 382.267 1601.83 377.963C1605.95 373.48 1608.01 367.114 1608.01 358.864C1608.01 349.001 1605.77 341.11 1601.29 335.192C1596.8 329.095 1591.15 322.998 1584.34 316.9L1547.76 284.62C1540.58 278.344 1535.29 271.529 1531.89 264.176C1528.48 256.644 1526.77 247.409 1526.77 236.469C1526.77 220.509 1531.35 208.135 1540.49 199.347C1549.64 190.56 1562.1 186.166 1577.88 186.166C1586.49 186.166 1594.02 187.332 1600.48 189.663C1607.12 191.815 1612.59 195.223 1616.89 199.885C1621.37 204.548 1624.87 210.466 1627.38 217.639C1630.07 224.633 1631.86 232.883 1632.76 242.387L1606.94 249.381C1606.4 242.208 1605.32 235.662 1603.71 229.744C1602.09 223.647 1599.22 218.805 1595.1 215.218C1591.15 211.452 1585.42 209.569 1577.88 209.569C1570.35 209.569 1564.43 211.632 1560.13 215.756C1556.01 219.702 1553.94 225.62 1553.94 233.51C1553.94 240.146 1555.02 245.615 1557.17 249.919C1559.5 254.223 1563.18 258.617 1568.2 263.1L1605.05 295.38C1613.3 302.554 1620.57 311.162 1626.84 321.204C1633.12 331.068 1636.26 342.814 1636.26 356.443C1636.26 367.203 1634.02 376.529 1629.53 384.419C1625.05 392.131 1618.86 398.049 1610.97 402.173C1603.26 406.298 1594.29 408.36 1584.07 408.36ZM1659.84 405.939V188.049H1707.18C1723.32 188.049 1736.05 190.56 1745.38 195.581C1754.88 200.423 1761.61 207.776 1765.55 217.639C1769.68 227.503 1771.74 239.787 1771.74 254.492V334.654C1771.74 350.077 1769.68 363.079 1765.55 373.659C1761.61 384.24 1755.06 392.31 1745.92 397.869C1736.95 403.249 1724.84 405.939 1709.6 405.939H1659.84ZM1690.23 384.15H1707.45C1718.57 384.15 1726.46 381.998 1731.12 377.694C1735.78 373.39 1738.56 367.114 1739.46 358.864C1740.54 350.615 1741.07 340.662 1741.07 329.005V258.258C1741.07 246.96 1740.36 237.814 1738.92 230.82C1737.49 223.826 1734.35 218.715 1729.51 215.487C1724.67 212.259 1717.04 210.645 1706.64 210.645H1690.23V384.15ZM1825.63 405.939V210.645H1788.78V188.049H1891.81V210.645H1856.03V405.939H1825.63Z"
     fill="white"
     id="path15" />
  <path
     fill-rule="evenodd"
     clip-rule="evenodd"
     d="M2215.77 307.366C2219.23 303.774 2221.16 298.978 2221.16 293.987C2221.16 288.996 2219.23 284.199 2215.77 280.607L2073.71 134.697C2072.86 133.822 2071.85 133.126 2070.73 132.651C2069.61 132.176 2068.4 131.931 2067.19 131.931C2065.97 131.931 2064.77 132.176 2063.65 132.651C2062.53 133.126 2061.51 133.822 2060.66 134.697L2047.62 148.104C2045.89 149.9 2044.93 152.298 2044.93 154.793C2044.93 157.289 2045.89 159.687 2047.62 161.483L2170.21 287.407C2171.94 289.208 2172.91 291.611 2172.91 294.111C2172.91 296.611 2171.94 299.014 2170.21 300.815L2047.7 426.545C2045.97 428.341 2045.01 430.74 2045.01 433.236C2045.01 435.731 2045.97 438.129 2047.7 439.925L2060.75 453.305C2061.59 454.18 2062.61 454.875 2063.73 455.35C2064.85 455.825 2066.05 456.07 2067.27 456.07C2068.49 456.07 2069.69 455.825 2070.81 455.35C2071.93 454.875 2072.94 454.18 2073.79 453.305L2215.77 307.366Z"
     fill="white"
     id="path17" />
  <defs
     id="defs24">
    <linearGradient
       id="paint0_linear_897_227"
       x1="0.00195312"
       y1="283.999"
       x2="2371.54"
       y2="283.999"
       gradientUnits="userSpaceOnUse">
      <stop
         offset="0.16"
         stop-color="#7950DD"
         id="stop19" />
      <stop
         offset="0.38"
         stop-color="#50A389"
         id="stop21" />
    </linearGradient>
  </defs>
</svg>
