<svg width="111" height="18" viewBox="0 0 111 18" fill="none" xmlns="http://www.w3.org/2000/svg">
<path d="M0.525 12.575V7.5H0.938V7.766C1.302 7.542 1.68467 7.43 2.086 7.43C2.492 7.43 2.793 7.57233 2.989 7.857C3.18967 8.14167 3.29 8.606 3.29 9.25C3.29 9.88933 3.17333 10.3537 2.94 10.643C2.70667 10.9277 2.31933 11.07 1.778 11.07C1.48867 11.07 1.20867 11.0397 0.938 10.979V12.575H0.525ZM2.002 7.808C1.848 7.808 1.68233 7.83367 1.505 7.885C1.32767 7.93633 1.19 7.99 1.092 8.046L0.938 8.123V10.615C1.25533 10.671 1.53067 10.699 1.764 10.699C2.16533 10.699 2.44767 10.587 2.611 10.363C2.77433 10.1343 2.856 9.761 2.856 9.243C2.856 8.72033 2.78367 8.35167 2.639 8.137C2.499 7.91767 2.28667 7.808 2.002 7.808ZM4.04206 9.243C4.04206 8.585 4.15173 8.11833 4.37106 7.843C4.59506 7.56767 4.97306 7.43 5.50506 7.43C6.04173 7.43 6.41973 7.56767 6.63906 7.843C6.86306 8.11833 6.97506 8.585 6.97506 9.243C6.97506 9.901 6.8724 10.37 6.66706 10.65C6.4664 10.93 6.0814 11.07 5.51206 11.07C4.94273 11.07 4.5554 10.93 4.35006 10.65C4.14473 10.37 4.04206 9.901 4.04206 9.243ZM4.47606 9.236C4.47606 9.78667 4.53906 10.1693 4.66506 10.384C4.79573 10.594 5.07573 10.699 5.50506 10.699C5.93906 10.699 6.2214 10.5917 6.35206 10.377C6.48273 10.1623 6.54806 9.782 6.54806 9.236C6.54806 8.68533 6.4734 8.30967 6.32406 8.109C6.1794 7.90367 5.90873 7.801 5.51206 7.801C5.1154 7.801 4.8424 7.90133 4.69306 8.102C4.5484 8.30267 4.47606 8.68067 4.47606 9.236ZM7.53862 7.5H7.96562L8.73562 10.636H8.83362L9.74362 7.57H10.1846L11.0946 10.636H11.1996L11.9696 7.5H12.3966L11.5216 11H10.7936L9.96762 8.116L9.13462 11H8.41362L7.53862 7.5ZM15.4201 10.65L15.6301 10.629L15.6441 10.972C15.1168 11.0373 14.6711 11.07 14.3071 11.07C13.8031 11.0653 13.4508 10.916 13.2501 10.622C13.0495 10.328 12.9491 9.87533 12.9491 9.264C12.9491 8.04133 13.4298 7.43 14.3911 7.43C14.8531 7.43 15.1985 7.563 15.4271 7.829C15.6558 8.09033 15.7701 8.51033 15.7701 9.089L15.7561 9.425H13.3761C13.3761 9.85433 13.4485 10.174 13.5931 10.384C13.7425 10.5893 13.9945 10.692 14.3491 10.692C14.7085 10.692 15.0655 10.678 15.4201 10.65ZM13.3761 9.075H15.3501C15.3501 8.613 15.2731 8.284 15.1191 8.088C14.9698 7.892 14.7271 7.794 14.3911 7.794C14.0598 7.794 13.8078 7.89667 13.6351 8.102C13.4625 8.30267 13.3761 8.627 13.3761 9.075ZM16.6305 11V7.5H17.0435V8.004C17.2161 7.88267 17.4261 7.766 17.6735 7.654C17.9255 7.542 18.1565 7.46733 18.3665 7.43V7.85C18.1658 7.892 17.9558 7.95733 17.7365 8.046C17.5171 8.13 17.3468 8.20467 17.2255 8.27L17.0435 8.375V11H16.6305ZM21.2307 10.65L21.4407 10.629L21.4547 10.972C20.9273 11.0373 20.4817 11.07 20.1177 11.07C19.6137 11.0653 19.2613 10.916 19.0607 10.622C18.86 10.328 18.7597 9.87533 18.7597 9.264C18.7597 8.04133 19.2403 7.43 20.2017 7.43C20.6637 7.43 21.009 7.563 21.2377 7.829C21.4663 8.09033 21.5807 8.51033 21.5807 9.089L21.5667 9.425H19.1867C19.1867 9.85433 19.259 10.174 19.4037 10.384C19.553 10.5893 19.805 10.692 20.1597 10.692C20.519 10.692 20.876 10.678 21.2307 10.65ZM19.1867 9.075H21.1607C21.1607 8.613 21.0837 8.284 20.9297 8.088C20.7803 7.892 20.5377 7.794 20.2017 7.794C19.8703 7.794 19.6183 7.89667 19.4457 8.102C19.273 8.30267 19.1867 8.627 19.1867 9.075ZM25.059 5.946V11H24.639V10.741C24.2703 10.9603 23.897 11.07 23.519 11.07C23.3463 11.07 23.197 11.049 23.071 11.007C22.945 10.9697 22.8167 10.8927 22.686 10.776C22.42 10.538 22.287 10.0737 22.287 9.383C22.287 8.68767 22.399 8.18833 22.623 7.885C22.847 7.58167 23.225 7.43 23.757 7.43C23.9623 7.43 24.2563 7.46033 24.639 7.521V5.946H25.059ZM22.994 10.461C23.0827 10.5497 23.169 10.6103 23.253 10.643C23.3417 10.6757 23.4537 10.692 23.589 10.692C23.729 10.692 23.8877 10.6663 24.065 10.615C24.247 10.5637 24.3893 10.5147 24.492 10.468L24.639 10.391V7.885C24.2657 7.829 23.9763 7.801 23.771 7.801C23.3743 7.801 23.099 7.92233 22.945 8.165C22.7957 8.40767 22.721 8.78333 22.721 9.292C22.721 9.88933 22.812 10.279 22.994 10.461ZM29.1482 7.43C29.6148 7.43 29.9392 7.56533 30.1212 7.836C30.3032 8.10667 30.3942 8.57567 30.3942 9.243C30.3942 9.90567 30.2775 10.377 30.0442 10.657C29.8155 10.9323 29.3862 11.07 28.7562 11.07C28.4948 11.07 28.1822 11.0513 27.8182 11.014L27.6362 11V5.946H28.0562V7.689C28.4202 7.51633 28.7842 7.43 29.1482 7.43ZM28.0562 10.65C28.3828 10.678 28.6442 10.692 28.8402 10.692C29.0408 10.692 29.2205 10.664 29.3792 10.608C29.5378 10.552 29.6592 10.4587 29.7432 10.328C29.8318 10.1927 29.8902 10.041 29.9182 9.873C29.9462 9.70033 29.9602 9.474 29.9602 9.194C29.9602 8.69933 29.8995 8.34467 29.7782 8.13C29.6615 7.91533 29.4398 7.808 29.1132 7.808C28.9545 7.808 28.7865 7.829 28.6092 7.871C28.4318 7.90833 28.2942 7.948 28.1962 7.99L28.0562 8.046V10.65ZM30.896 7.5H31.323L32.254 10.636H32.506L33.444 7.5H33.871L32.359 12.575H31.939L32.408 11H31.925L30.896 7.5Z" fill="#606060"/>
<path d="M78.1287 8.87628L81.1649 2.69298C81.2061 2.56302 81.1887 2.44401 81.1148 2.33593C81.0395 2.22786 80.9418 2.17383 80.8196 2.17383H79.641C79.4507 2.17383 79.3356 2.26822 79.2951 2.45495L76.1668 8.89064L80.1638 17.1389C80.2043 17.312 80.3194 17.3988 80.5091 17.3988H81.6883C81.7964 17.3988 81.8845 17.3592 81.952 17.2798C82.0201 17.2005 82.0536 17.1109 82.0536 17.0096C82.0536 16.9522 78.1287 8.87628 78.1287 8.87628Z" fill="#606060"/>
<path d="M72.5117 8.89728L70.7472 12.4499C70.7067 12.5799 70.7241 12.6989 70.798 12.807C70.8726 12.9151 70.971 12.9691 71.0925 12.9691H72.2718C72.4615 12.9691 72.5766 12.8747 72.6171 12.688L74.4735 8.88292L72.7605 5.40208C72.72 5.22903 72.6049 5.14285 72.4152 5.14285H71.2359C71.1279 5.14285 71.0392 5.18183 70.9716 5.26186C70.9041 5.3412 70.8701 5.43081 70.8701 5.53204C70.8701 5.58949 72.5117 8.89728 72.5117 8.89728Z" fill="#606060"/>
<path d="M76.1619 4.84738L74.9909 2.43357C74.9504 2.26052 74.8353 2.17434 74.6457 2.17434H73.467C73.3583 2.17434 73.2703 2.21333 73.2021 2.29336C73.1346 2.37201 73.1005 2.4623 73.1005 2.56353C73.1005 2.5991 74.2817 5.03685 75.1755 6.87679L76.1619 4.84738Z" fill="#606060"/>
<path d="M75.1729 10.903L73.121 15.0808C73.0805 15.2101 73.0972 15.3291 73.1718 15.4372C73.2464 15.5452 73.3448 15.5993 73.467 15.5993H74.6456C74.8353 15.5993 74.9504 15.5056 74.9909 15.3182L76.1541 12.9262L75.1729 10.903Z" fill="#606060"/>
<path d="M43.1635 9.12249L44.5244 12.9342C44.5244 12.9342 44.2131 12.9327 43.9763 12.9327C43.7394 12.9327 43.6599 12.7292 43.6599 12.7292L42.7709 10.1494L41.8026 12.9342H41.0087L42.3697 9.12249L41 5.30153H41.4957C41.8443 5.30153 41.8831 5.53381 41.8831 5.53381L42.7709 8.09554L43.7306 5.30153H44.5331L43.1635 9.12249Z" fill="#606060"/>
<path d="M49.5256 5.72278V12.9342H48.784V5.30155C48.784 5.30155 48.7663 5.30549 49.1546 5.30155C49.5429 5.29762 49.5256 5.72278 49.5256 5.72278Z" fill="#606060"/>
<path d="M53.8343 6.98374C53.8343 6.50266 53.9832 6.09095 54.2811 5.74863C54.579 5.40632 55.1719 5.31075 55.5974 5.31075C56.023 5.31075 56.6158 5.40632 56.9137 5.74863C57.2116 6.09095 57.3605 6.50266 57.3605 6.98374V11.2705C57.3605 11.7516 57.2116 12.1632 56.9137 12.5056C56.6158 12.8479 56.023 12.9434 55.5974 12.9434C55.1774 12.9434 54.5861 12.8479 54.2853 12.5056C53.9845 12.1632 53.8343 11.7516 53.8343 11.2705V6.98374ZM54.5577 11.2705C54.5577 11.5234 54.6371 11.7393 54.7961 11.9181C54.9548 12.0971 55.3761 12.1108 55.5974 12.1108C55.8187 12.1108 56.2398 12.0971 56.3988 11.9181C56.5576 11.7393 56.6371 11.5234 56.6371 11.2705V6.98374C56.6371 6.73091 56.5576 6.51508 56.3988 6.33611C56.2398 6.15731 55.8187 6.14342 55.5974 6.14342C55.3761 6.14342 54.9548 6.15731 54.7961 6.33611C54.6371 6.51508 54.5577 6.73091 54.5577 6.98374V11.2705Z" fill="#606060"/>
<path d="M64.4672 10.9034V5.30157H65.2087V12.9343C65.2087 12.9343 64.9879 12.9328 64.7037 12.9328C64.4194 12.9328 64.3428 12.7105 64.3428 12.7105L62.4446 7.37614V12.9343H61.703V5.30157C61.703 5.30157 61.9321 5.3055 62.2401 5.30157C62.548 5.29764 62.5991 5.55493 62.5991 5.55493L64.4672 10.9034Z" fill="#606060"/>
<path d="M86.8173 13.0363C86.3617 13.0363 86.0098 12.9371 85.7614 12.7391C85.5128 12.5408 85.3398 12.2654 85.2421 11.9131C85.1445 11.5607 85.0957 11.161 85.0957 10.7141V7.46669C85.0957 7.01978 85.1445 6.62641 85.2421 6.2866C85.3398 5.94678 85.5157 5.68101 85.7702 5.48896C86.0246 5.2969 86.3826 5.20104 86.844 5.20104C87.264 5.20104 87.5939 5.2893 87.8335 5.46548C88.0731 5.64167 88.2446 5.89356 88.3482 6.22048C88.4517 6.54774 88.5036 6.93482 88.5036 7.38174V7.64619H88.042V7.35331C88.042 6.97581 88.0066 6.65947 87.9356 6.4046C87.8645 6.14974 87.7432 5.95637 87.5717 5.82414C87.4 5.69192 87.1576 5.62581 86.844 5.62581C86.4949 5.62581 86.2286 5.70283 86.0452 5.8572C85.8619 6.01157 85.7392 6.22544 85.677 6.49915C85.6148 6.77285 85.5838 7.08919 85.5838 7.44785V10.7802C85.5838 11.1514 85.6194 11.4741 85.6904 11.7478C85.7614 12.0215 85.8885 12.234 86.072 12.3851C86.2553 12.5362 86.5157 12.6115 86.8529 12.6115C87.1723 12.6115 87.4194 12.5391 87.5939 12.3943C87.7684 12.2496 87.8897 12.042 87.9578 11.7712C88.0257 11.5008 88.0599 11.1799 88.0599 10.8083V9.68508H86.915V9.28874H88.5125V12.9325H88.2019L88.1309 12.0734C88.042 12.3692 87.8956 12.6036 87.6915 12.7768C87.4874 12.9497 87.196 13.0363 86.8173 13.0363Z" fill="#606060"/>
<path d="M90.2162 12.9324V5.28589H90.6955V12.5265H92.8697V12.9324L90.2162 12.9324Z" fill="#606060"/>
<path d="M95.5761 13.0363C95.1086 13.0363 94.7462 12.9371 94.4889 12.7391C94.2316 12.5408 94.0525 12.2701 93.952 11.9273C93.8514 11.5841 93.8011 11.1954 93.8011 10.7614V7.41942C93.8011 6.98507 93.8544 6.60129 93.961 6.26775C94.0674 5.93422 94.2494 5.67308 94.5067 5.48433C94.7641 5.29558 95.1204 5.20104 95.5761 5.20104C96.0315 5.20104 96.3881 5.29558 96.6454 5.48433C96.9029 5.67308 97.0847 5.93422 97.1912 6.26775C97.2977 6.60129 97.351 6.98507 97.351 7.41942V10.7706C97.351 11.205 97.3006 11.5921 97.2001 11.9319C97.0994 12.2717 96.9206 12.5408 96.6631 12.7391C96.4058 12.9371 96.0433 13.0363 95.5761 13.0363ZM95.5761 12.6115C95.9192 12.6115 96.1839 12.5391 96.3704 12.3943C96.5567 12.2496 96.6853 12.0466 96.7563 11.7855C96.8274 11.5243 96.8628 11.2209 96.8628 10.8744V7.34406C96.8628 6.99796 96.8274 6.69583 96.7563 6.43766C96.6853 6.17982 96.5581 5.97984 96.3747 5.83836C96.1912 5.69655 95.9251 5.62581 95.5761 5.62581C95.2329 5.62581 94.9681 5.69655 94.7818 5.83836C94.5954 5.97984 94.4667 6.17982 94.3957 6.43766C94.3247 6.69583 94.2893 6.99796 94.2893 7.34406V10.8744C94.2893 11.2209 94.3247 11.5243 94.3957 11.7855C94.4667 12.0466 94.5954 12.2496 94.7818 12.3943C94.9681 12.5391 95.2329 12.6115 95.5761 12.6115Z" fill="#606060"/>
<path d="M98.9753 12.9324V5.28589H100.457C100.789 5.28589 101.062 5.33481 101.278 5.43233C101.494 5.52984 101.663 5.66669 101.784 5.84288C101.905 6.01907 101.991 6.22203 102.041 6.45177C102.092 6.68151 102.117 6.92844 102.117 7.19289C102.117 7.3942 102.095 7.60972 102.05 7.83946C102.006 8.0692 101.924 8.27216 101.806 8.44835C101.688 8.62454 101.51 8.7442 101.274 8.80701C101.552 8.89527 101.763 9.04633 101.908 9.26021C102.053 9.47408 102.151 9.71175 102.201 9.97289C102.251 10.234 102.277 10.478 102.277 10.7044C102.277 10.994 102.257 11.271 102.219 11.5351C102.18 11.7996 102.105 12.0372 101.993 12.2481C101.88 12.459 101.719 12.6256 101.509 12.7483C101.299 12.8709 101.019 12.9324 100.67 12.9324L98.9753 12.9324ZM99.4545 8.6371H100.67C100.937 8.6371 101.141 8.57099 101.283 8.43877C101.425 8.30687 101.524 8.13201 101.58 7.91483C101.636 7.69798 101.664 7.457 101.664 7.19289C101.664 6.9096 101.632 6.65473 101.567 6.4283C101.501 6.20154 101.376 6.0237 101.189 5.89478C101.003 5.76586 100.72 5.7014 100.342 5.7014H99.4545V8.6371ZM99.4545 12.5265H100.608C101.081 12.5265 101.399 12.3787 101.562 12.0829C101.725 11.787 101.806 11.3308 101.806 10.714C101.806 10.4056 101.772 10.1256 101.704 9.87373C101.636 9.62217 101.521 9.42053 101.358 9.26979C101.195 9.11873 100.969 9.04303 100.679 9.04303H99.4545V12.5265Z" fill="#606060"/>
<path d="M103.368 12.9324L104.876 5.28589H105.435L106.953 12.9324H106.465L106.092 10.8178H104.228L103.847 12.9324H103.368ZM104.299 10.4403H106.03L105.16 5.90899L104.299 10.4403Z" fill="#606060"/>
<path d="M108.346 12.9324V5.28589H108.826V12.5265H111V12.9324L108.346 12.9324Z" fill="#606060"/>
</svg>
