<?xml version="1.0" encoding="UTF-8"?><svg id="a" xmlns="http://www.w3.org/2000/svg" viewBox="0 0 1768.63501 260.89062"><defs><style>.b{fill:#fcfcfc;}.c{fill:#eb5d28;}.d{fill:#fff;}.e{fill:#b83330;}.f{fill:#d1472c;}.g{fill:#de5029;}.h{fill:#2a2a2a;}</style></defs><rect class="h" x="-40.58855" y="-31.24285" width="1863.627" height="360.78884"/><g><path class="b" d="M1035.03174,102.84662c.90881-.68146,1.67065-1.33875,2.51294-1.86862,2.99805-1.88631,6.28516-2.60613,9.82349-2.52914,3.64661,.07935,6.83289,1.29663,9.58386,3.59076,2.81384,2.34656,4.78455,5.33353,5.78931,8.85917,1.62268,5.69422,1.57092,11.38498-.7594,16.882-2.24292,5.29082-6.06079,8.97897-11.82971,10.17836-5.32202,1.10646-10.17822-.006-14.33301-3.6555-.09045-.07948-.14502-.12859-.38416,.0452v1.28262c0,5.57375-.00012,11.14749,0,16.72124,0,1.27046,.15356,1.24358-1.26636,1.24205-3.20264-.0034-6.4054-.01868-9.60767,.01221-.72961,.00703-1.11145-.16595-.98102-.96306,.03088-.18881,.00446-.38698,.00446-.58086,0-17.10898-.00208-34.21796,.00317-51.32693,.00055-1.75682-.23248-1.55319,1.53015-1.55937,2.86292-.01004,5.72583-.00956,8.58875,.00076,1.11694,.00403,1.11609,.02168,1.146,1.12494,.02161,.80131-.07642,1.61462,.17932,2.54416l-.00012,.00002Zm17.32703,14.9916c.04712-.7535-.17944-2.03762-.55676-3.28479-1.99475-6.59299-8.29443-7.28337-12.26709-5.20559-1.18933,.62203-2.16309,1.51672-2.80701,2.66653-2.19629,3.92185-2.3363,7.96099-.37671,12.00808,2.60999,5.39059,10.71179,6.09814,14.28601,.70955,1.27832-1.92708,1.66858-4.07604,1.72168-6.89377h-.00012Z"/><path class="b" d="M856.35529,103.19011c0-1.05484,.0235-2.11041-.00916-3.16425-.01837-.59263,.12567-.8699,.79834-.86435,3.39801,.02799,6.79633,.02033,10.19452,.00526,.49829-.00222,.71515,.16274,.67554,.66663-.02271,.28912-.00287,.58154-.00287,.87247,.00006,11.83135,.0011,23.6627-.00116,35.49406-.00037,1.76624,.14984,1.55833-1.5448,1.56238-3.05841,.00732-6.11682,.00694-9.17517-.00037-1.20758-.00288-1.21381-.01517-1.22485-1.16403-.00928-.96725-.00189-1.93465-.00189-3.08353-.88202,.5451-1.46838,1.23814-2.1673,1.77159-5.7525,4.39078-14.35413,3.96211-19.59094-.72079-3.2262-2.88493-5.21405-6.4642-6.13684-10.62175-1.03308-4.65456-.86139-9.29238,.75446-13.81673,1.64807-4.61456,4.50262-8.28294,9.03479-10.29242,5.05914-2.24313,10.14209-2.22643,15.01849,.71362,1.20105,.72411,2.19879,1.68657,3.10437,2.75506,.09149-.03762,.18298-.07525,.27448-.11287v.00002Zm-8.36627,25.25923c2.95819-.12071,5.45709-1.28335,6.97217-4.04564,2.06995-3.77396,2.07849-7.68509,.30066-11.53413-1.48877-3.22314-4.24768-4.73597-7.72705-4.63674-3.52142,.10042-6.02374,1.96375-7.37128,5.20389-1.20752,2.90352-1.284,5.92997-.3476,8.91734,1.29529,4.13218,4.28748,6.00204,8.1731,6.09528Z"/><path class="b" d="M1097.2948,103.55653c0-1.49068,.01697-2.59949-.00757-3.70739-.01111-.50526,.18787-.68123,.68127-.67968,3.44727,.01087,6.89453,.01331,10.34167-.00281,.52954-.00247,.67285,.23179,.64246,.69963-.0188,.28973-.00269,.58172-.00269,.8727,.00012,11.78462,.00012,23.56924,.00012,35.35384,0,.24248-.02673,.48846,.00476,.72681,.10486,.79478-.27563,.96626-1.00708,.959-3.30127-.03287-6.60315-.0071-9.90466-.01866-1.01526-.00356-1.02502-.02695-1.03809-1.05708-.01282-1.00768-.00269-2.01562-.00269-3.28574-.64978,.60342-1.09827,1.07558-1.60181,1.47923-6.27429,5.02866-15.41235,4.45923-20.8114-.99669-3.94397-3.98557-5.80188-8.79493-5.95044-14.34213-.0874-3.26344,.10059-6.47901,1.29761-9.56497,2.21875-5.71989,6-9.81568,12.14575-11.22804,4.7489-1.09134,9.23035-.42542,13.16309,2.70582,.67212,.53521,1.20972,1.19887,2.04968,2.08616Zm-17.01111,15.17481c-.06665,1.045,.10657,2.57061,.65686,4.0445,1.24402,3.33157,3.59729,5.47141,7.48694,5.64595,3.29968,.14806,6.29004-1.28815,7.94019-4.77262,.54382-1.14818,.80444-2.34914,.96399-3.60935,.40405-3.19013-.15002-6.11204-2.07349-8.74477-2.55127-3.49195-8.50635-4.19379-11.86328-1.0418-2.30603,2.16524-3.146,4.88731-3.11133,8.47808h.00012Z"/><path class="b" d="M1004.56598,118.37005c-.00806,5.62429-1.84448,10.51527-5.95819,14.43356-3.21509,3.06236-7.06439,4.82362-11.4884,5.38002-3.50354,.44061-6.97784,.3465-10.31537-.79524-7.64343-2.61473-12.41315-7.77544-13.6308-15.91467-.85583-5.72026,.28656-10.97486,3.93286-15.53565,3.34875-4.18863,7.75586-6.59053,13.07556-7.35617,4.46167-.64216,8.81787-.27597,12.90179,1.65191,6.45337,3.04644,10.33087,8.08232,11.29492,15.24845,.12982,.96511,.15796,1.91966,.18768,2.8878h-.00006Zm-11.94604-.275c.04932-.55313-.06982-1.41079-.22528-2.26855-.75189-4.1487-3.98779-7.16705-8.1402-7.43244-4.11603-.26307-7.61438,2.44343-8.81879,6.18077-.84546,2.62345-.88171,5.26008,.0686,7.80556,2.35211,6.30022,9.36084,7.37881,13.42615,4.16402,2.62067-2.07233,3.7002-4.85486,3.68951-8.44936Z"/><path class="b" d="M1123.0636,154.35138c.36047-1.43794,.9707-2.53697,1.44873-3.68015,1.84485-4.41183,3.71362-8.81409,5.62585-13.19714,.30383-.69638,.25842-1.23662-.0448-1.88869-2.03809-4.38312-4.04749-8.7796-6.06616-13.17174-2.82556-6.14766-5.65222-12.29475-8.47595-18.44327-.70068-1.52581-1.39136-3.05624-2.18298-4.79634h1.28723c3.69006,0,7.38025,.01061,11.07019-.01005,.64197-.00359,1.01062,.10945,1.29712,.80491,2.8158,6.83402,5.68823,13.64483,8.54187,20.4633,.2157,.51524,.41187,1.03859,.73694,1.86154,.74744-2.14473,1.3894-3.98975,2.03333-5.83406,1.9115-5.474,3.83313-10.94448,5.72168-16.42635,.19897-.57754,.40125-.88036,1.08728-.87504,4.1228,.03193,8.24585,.01585,12.34314,.01585,.14697,.36283,.03003,.62178-.08643,.89421-4.84302,11.32276-9.7218,22.63045-14.50525,33.97826-2.64551,6.27599-5.13196,12.6189-7.68628,18.93321-.5531,1.36722-.54541,1.37112-2.06482,1.37138-3.297,.00053-6.59399,.00018-10.08069,.00018v-.00003Z"/><path class="b" d="M889.70813,103.33559c1.51129-1.6203,3.26453-2.90446,5.297-3.71305,5.12933-2.04066,10.11481-1.96752,14.72211,1.39487,2.16254,1.57816,3.2179,3.9272,3.95831,6.41809,.58118,1.95531,.81097,3.98131,.82373,6.00275,.04816,7.6573,.01941,15.31509,.01941,22.97268,0,.19386-.01611,.38925,.00244,.58131,.05402,.55904-.1875,.81302-.75037,.77306-.19305-.0137-.388-.00098-.58209-.00098-3.05688,.00008-6.11383,.00325-9.17078-.0014-1.34021-.00204-1.34796-.00932-1.34845-1.33232-.00275-7.076-.00134-14.15202-.00116-21.22803,0-.91947-.04633-1.83048-.26923-2.73198-.6922-2.79981-2.01227-3.98655-4.81183-4.22212-2.99976-.25241-5.51575,.81968-7.10065,3.55489-.65332,1.12742-.73602,2.37397-.7348,3.64113,.00629,6.83367,.00299,13.66735,.00299,20.50103,0,.2908-.03229,.58588,.00592,.87157,.10828,.80969-.3053,.96387-1.01562,.95831-3.25085-.02541-6.5022-.03101-9.75281,.00417-.71997,.0078-.95178-.23901-.90259-.92155,.04175-.57858,.00842-1.16255,.00842-1.74414v-34.1684c0-.33926,.01941-.67985-.00409-1.01747-.03717-.5342,.12238-.77178,.72717-.76653,3.20221,.02783,6.40497,.02727,9.60724,.00145,.66992-.00541,.83746,.32336,.83826,.88122,.00079,.53312,.01093,1.06641,.00037,1.5993-.01123,.56659,.02563,1.11711,.43109,1.69216Z"/><path class="b" d="M751.10913,131.67348c2.24182-1.9467,4.40131-3.80322,6.53448-5.68939,.45001-.39791,.77863-.45878,1.23071-.01811,2.54462,2.48027,5.71741,3.53352,9.15833,3.91487,1.06464,.118,2.12646-.03584,3.11768-.49271,1.04926-.48361,1.73932-1.30109,1.75629-2.45195,.01733-1.17321-.68701-1.98125-1.76245-2.43468-1.3374-.5639-2.72919-.96829-4.12323-1.36392-2.83636-.80495-5.69611-1.52681-8.31592-2.95961-2.84216-1.55442-5.04718-3.70157-5.8208-6.88569-1.11963-4.60802-.03192-8.29192,4.06049-11.5273,2.50153-1.97765,5.41504-2.95433,8.55341-3.28372,5.89532-.61875,11.32489,.71284,16.27106,3.97923,.76617,.50599,1.47308,1.09237,2.18048,1.84198-2.03308,2.26786-4.05591,4.52421-6.14282,6.85211-1.61432-1.31428-3.24353-2.49732-5.12518-3.28105-2.08301-.86761-4.19421-1.41705-6.46735-.84286-1.91351,.48336-2.79779,2.04778-2.08435,3.71136,.35278,.82262,1.03595,1.25535,1.79681,1.5994,1.49939,.67796,3.07178,1.15352,4.64624,1.61677,2.46271,.7246,4.94305,1.3957,7.27026,2.51008,.30365,.1454,.59534,.31571,.89886,.46135,7.22119,3.46491,6.35602,12.58836,2.28235,16.61469-3.02563,2.99054-6.66833,4.40546-10.76941,4.77711-3.84113,.34808-7.63745-.03259-11.29016-1.36478-2.99896-1.09373-5.66736-2.69724-7.85577-5.28317v-.00002Z"/><path class="b" d="M817.83002,112.9354c-1.09863-1.04463-2.08765-2.02861-3.28882-2.7588-3.68585-2.24067-8.19299-2.25813-11.41357,.32256-1.70715,1.36794-2.69458,3.16332-3.11688,5.2474-.82788,4.08629,.02185,7.70079,3.33838,10.47194,3.30951,2.76529,8.41675,2.38303,11.80627,.07613,.9649-.65672,1.83728-1.41547,2.63696-2.42516,1.24817,1.50093,2.47894,2.9797,3.70825,4.45963,.64789,.77991,1.29724,1.55858,1.93878,2.3437,.76776,.93961,.75354,.97475-.12305,1.90668-1.96918,2.09348-4.39246,3.46471-7.07336,4.40459-4.53485,1.58981-9.19098,2.04155-13.83136,.73636-7.21948-2.03056-11.81421-6.85147-13.60303-14.08254-1.47607-5.96674-.71234-11.74284,2.8017-16.93076,3.17883-4.69302,7.63629-7.44852,13.28772-8.17781,5.13617-.66279,10.00671,.18499,14.57599,2.66469,1.59735,.86688,2.94971,2.03161,4.17596,3.35154,.31665,.34088,.66467,.65576,.17975,1.22149-2.00903,2.34365-3.96729,4.73075-5.99963,7.16837h-.00006Z"/><path class="g" d="M663.84296,152.41457c.17151-1.72061,.34265-3.44125,.51471-5.1618,.07208-.72098,.48456-1.09247,1.2373-1.11443,.09698-.00282,.19409-.00053,.29114-.00052,12.85913,.00136,25.71826,.00787,38.57739-.0009,2.19757-.0015,3.82953,.94914,4.85913,2.84947,.52942,.97716,.69849,2.04468,.54907,3.2047-.37531,2.91508-.62402,5.84621-.94794,8.76819-.65869,5.94104-1.33563,11.88004-2.00006,17.82047-.14478,1.29459-.25372,2.59323-.40472,3.88702-.34375,2.9453-2.41986,4.82144-5.36023,4.83002-.72198,.00211-1.4552,.11662-2.16766-.10936,.03961-.51064-.20294-.87949-.48792-1.2981-.79565-1.16876-1.8963-2.04295-2.8103-3.09222-1.40594-1.61403-2.61285-3.43008-4.60706-4.43552-.18384-.09268-.23022-.29666-.26227-.49007,1.06586-.01701,2.13361-.00038,3.19714-.05891,1.58868-.08745,2.43689-.86311,2.61371-2.37151,.30841-2.63077,.5946-5.26416,.88464-7.89705,.3429-3.11263,.65491-6.22899,1.04059-9.33627,.07843-.6321-.06018-1.13647-.34845-1.64761-.59332-1.05228-1.63007-1.13403-2.65472-1.13625-6.78998-.01453-13.58002-.01047-20.37-.00224-1.10944,.00134-1.09204,.02667-1.2168,1.11082-.18073,1.57019-.19128,3.16306-.61157,4.70219-.36774,.00679-.64331-.17529-.88031-.43234-1.43481-1.55634-2.95184-3.04691-4.27466-4.69308-.91248-1.13551-2.12616-1.98219-2.91852-3.19199-.38416-.58656-.82397-.74927-1.44183-.70274l.00018,.00003Z"/><path class="e" d="M655.21808,183.8466c-.9411,2.51927-2.57184,3.64696-5.29596,3.64828-11.44983,.00551-22.89972,.00835-34.34961,.01218-4.18976,.0014-6.45709-2.55206-5.97528-6.67783,.50293-4.30663,.96954-8.61748,1.44769-12.92696,.78113-7.03996,1.55933-14.08023,2.3349-21.1208,.02173-.19734,.03851-.37971,.24457-.47414,.32831-.01257,.65656-.02515,.9848-.03772,2.38135-.1498,4.76294-.12756,7.14484-.01089,.64447,1.31445,1.677,2.34309,2.66571,3.36945,1.36792,1.41997,2.53778,3.01553,3.99072,4.3604,.43695,.40446,.83063,.93423,.94324,1.58054-1.84344,.0154-3.68701,.04932-5.53021,.03583-.61646-.0045-.79712,.20245-.85809,.82802-.34631,3.55052-.71454,7.09999-1.15533,10.63989-.34949,2.80659-.36755,5.65862-1.11548,8.41208-.03827,.14078-.03021,.2569-.00043,.40343,.16449,.80898,.86115,1.22501,1.29749,1.83125,.33453,.46477,.80048,.13586,1.19482,.25729,.4007,.1234,.86511,.04662,1.30164,.04678,5.77576,.0023,11.55151,.00281,17.32727,.00359,3.06879,.00041,3.53699-.41188,3.96576-3.49091,.82178-.08636,1.26166,.52771,1.62402,1.05325,.6416,.93057,1.57587,1.59236,2.21051,2.48904,1.04132,1.47131,2.49951,2.54976,3.5517,4.01112,.5152,.71553,1.09644,1.49011,2.05084,1.75687l-.00012-.00005Z"/><path class="c" d="M954.50287,165.21835c.13599-2.40952,.31036-4.80327,1.63599-6.94048,2.24261-3.61551,6.33984-5.49747,10.27856-4.68906,3.26471,.6701,5.55444,3.47997,5.60541,6.82747,.03986,2.61673-.50049,5.17427-.76263,7.75906-.36896,3.63812-.88361,7.26146-1.32782,10.89211-.11108,.90788-.19135,1.81953-.28589,2.72942-.00739,.61765-.06348,1.23933-.0127,1.85219,.13385,1.61523,.64813,3.05463,2.06622,4.02042,1.57422,1.57416,3.50372,1.94331,5.61072,1.58339,4.08893-.69846,7.05164-4.55534,7.44928-8.11099,.31073-2.77859,.64935-5.55424,.99536-8.32875,.43628-3.49802,.89374-6.99336,1.3382-10.49036,.0365-.28758,.0816-.58264,.05566-.86813-.12219-1.34485-1.39703-2.0732-2.65094-1.54442-1.10095,.46429-1.57983,1.30811-1.72345,2.47026-.20123,1.62759-.25085,3.27579-.6236,4.88142-2.10712,.19235-4.17645-.43079-6.28119-.28999,.28168-2.38275,.25311-4.81302,1.04858-7.11797,1.58313-4.58685,6.78296-7.4496,11.39661-6.28635,3.10516,.78291,5.216,3.48164,5.26996,6.64481,.04553,2.67139-.47046,5.28503-.7533,7.92068-.39124,3.64534-.9743,7.27026-1.3587,10.91618-.35956,3.41029-1.06714,6.66898-3.1405,9.50262-2.77228,3.78889-6.33887,6.3972-11.05139,7.09924-5.9043,.87959-11.35229-1.85197-13.47559-7.43761-.53748-1.98129-1.22839-3.94292-.60559-6.04764,.09113-.30814,.00488-.66867,.00079-1.00499,.66956-5.30331,1.34192-10.60625,2.00604-15.91019,.13751-1.09834,.25903-2.19919,.36127-3.30133,.0788-.84869-.23822-1.54749-1.02325-1.90865-.75531-.34749-1.52502-.23463-2.19098,.27515-.68011,.52058-1.09113,1.18965-1.16486,2.08257-.08716,1.0562-.26373,2.10506-.40161,3.15707-2.09442-.12195-4.17511-.4976-6.28473-.3372l.00006,.00003Z"/><path class="b" d="M952.11151,123.59933c-.00006,4.36252,.00452,8.72504-.00336,13.08753-.00189,1.04478-.02075,1.06918-1.02087,1.07291-3.2514,.01204-6.50293,.0116-9.75433,.00053-1.05353-.00359-1.06628-.02528-1.06934-1.17136-.00769-2.85985-.0025-5.71973-.0025-8.57961,0-5.81669-.00049-11.63338,.00037-17.45006,.00018-1.30513,.07666-1.19906-1.15265-1.19792-1.60144,.00148-3.20319-.01568-4.80426,.0086-.56024,.00849-.75824-.18291-.75391-.75314,.02209-2.90818,.02246-5.81671,.00055-8.72488-.00452-.59817,.25336-.73251,.78656-.72537,1.60114,.02144,3.20282,.00771,4.80426,.00742,1.1463-.00021,1.12354,.13812,1.12073-1.075-.00574-2.47208-.00555-4.94419-.00006-7.41627,.00269-1.20899,.01056-1.22473,1.14081-1.22775,3.20294-.00856,6.40588-.00922,9.60876,.00047,1.08173,.00327,1.09357,.02166,1.0968,1.12503,.00757,2.56902,.02594,5.13844-.01306,7.70689-.0105,.69261,.1709,.92133,.88696,.903,1.89142-.04841,3.78516,.00389,5.67725-.02788,.60986-.01023,.85236,.14452,.84521,.802-.03088,2.85954-.02808,5.71974-.00122,8.57936,.00574,.61441-.159,.84542-.80652,.83102-1.74622-.03884-3.49384-.01862-5.24084-.01145-1.4447,.00593-1.34375-.19032-1.34454,1.29376-.00238,4.31404-.00079,8.62809-.00079,12.94213v.00002Z"/><path class="g" d="M618.61243,102.36361c-.00092-.14491-.00854-.29013-.00177-.43468,.05927-1.26295,.70703-1.89458,1.94342-1.89491,12.65247,.00065,25.30591,.08808,37.95673-.05426,3.45831-.03891,6.34277,3.10735,5.6665,6.72814-.5293,2.83365-.66388,5.74034-.98566,8.61326-.6698,5.97989-1.3515,11.95846-2.01843,17.93867-.12817,1.14925-.15247,2.31256-.32843,3.45338-.25061,1.62431-.87677,3.05276-2.47278,3.83311-2.08838-1.37955-3.35394-3.55437-5.09558-5.27145-1.14685-1.13074-1.96417-2.62585-3.66333-3.11072-.08105-.02313-.10327-.25211-.15283-.38522,.9679-.52556,1.42639-1.30202,1.53119-2.43576,.28772-3.11281,.69067-6.21491,1.04028-9.32212,.26379-2.34474,.46967-4.69704,.78583-7.03457,.31915-2.35958-.48419-3.34673-2.88434-3.34735-6.49274-.00166-12.98547,.00023-19.47821,.00084-1.38074,.00013-2.14905,.67829-2.30499,2.03447-.55554-.00927-.83447-.44393-1.17096-.77638-1.16504-1.15126-2.24359-2.39863-3.27905-3.64938-1.10571-1.33564-2.48212-2.42174-3.44116-3.88909-.35162-.53801-.83374-1.10374-1.64648-.99599l.00006,.00002Z"/><path class="f" d="M649.46033,131.77893c.04962,.13312,.07178,.36211,.15283,.38522,1.69916,.48486,2.51648,1.98,3.66333,3.11072,1.74164,1.7171,3.0072,3.89192,5.09558,5.27145-1.12915,.92258-2.47961,.97598-3.84399,.97623-10.61084,.00189-21.22168,.0076-31.83246,.00011-.91614-.00066-1.83997,.11392-2.74939-.09882-.05835-.0374-.12262-.0554-.19238-.05399-2.92432-.20821-5.27661-3.05873-4.91138-5.89125,.38104-2.95482,.7226-5.91492,1.05896-8.87525,.68469-6.02488,1.35516-12.05136,2.02966-18.07739,.22992-2.05382,.45435-4.10824,.68134-6.16239,.81281-.10775,1.29486,.45797,1.64655,.99598,.95905,1.46734,2.33545,2.55345,3.44116,3.88909,1.0354,1.25075,2.11395,2.49812,3.27905,3.64938,.33643,.33245,.61542,.76712,1.17096,.77641-.16699,1.62839-.33337,3.25683-.50122,4.88512-.42053,4.07995-.8313,8.16095-1.2677,12.2392-.1781,1.66434,.05646,2.17621,1.52502,3.00819,.1076,.14175,.25372,.1985,.42792,.19344,.52789-.02773,1.05579-.07915,1.58374-.07957,5.84265-.00465,11.68536,.00314,17.52802-.00658,.67157-.00111,1.34302-.08812,2.01453-.13531l-.00012,.00002Z"/><path class="g" d="M693.74573,141.41016c-.62836,.03725-1.25671,.10603-1.88513,.10687-6.65186,.00874-13.30377,.00896-19.95563,.00562-1.33136-.00067-2.59705-.24487-3.69989-1.06192-1.4093-1.04404-2.2016-2.38644-2.19684-4.18649,.00739-2.76396,.49573-5.48225,.74036-8.22299,.29156-3.26669,.73645-6.51958,1.10455-9.77961,.65466-5.79732,1.32068-11.59352,1.92798-17.39582,.07849-.74979,.38184-.8488,1.00208-.84687,4.75824,.01479,9.5166,.02025,14.27478-.0041,.73578-.00376,.89612,.24259,.81366,.94238-.31036,2.63342-.57141,5.27274-.83569,7.91137-.06207,.61968-.39288,.78087-.96948,.76705-1.26166-.03022-2.52502,.01121-3.78674-.01734-.57599-.01304-.83118,.11832-.89337,.77515-.19519,2.06269-.50928,4.11381-.73376,6.17415-.42334,3.88504-.81708,7.7733-1.22021,11.66051-.02991,.28819-.04828,.57861-.05231,.86829-.02747,1.97685,.78296,2.79401,2.80859,2.81018,1.60175,.01279,3.20367-.00188,4.80542,.00745,.4834,.00282,.96649,.04509,1.44977,.06931-.0097,.44904,.05768,.8669,.42322,1.18628,.87866,.76775,1.49347,1.78323,2.32489,2.57784,1.43842,1.37473,2.56433,3.02859,4.04053,4.35959,.39337,.35468,.55676,.7771,.51331,1.29311l-.00006,.00002Z"/><path class="f" d="M655.21808,183.8466c-.95441-.26675-1.53571-1.04134-2.05084-1.75687-1.05212-1.46136-2.51031-2.53979-3.5517-4.01112-.63464-.89668-1.56891-1.55847-2.21051-2.48904-.36237-.52554-.80225-1.1396-1.62402-1.05327,.0722-.76164,.13342-1.52448,.21857-2.28464,.24683-2.20229,.52191-4.40154,.75104-6.60561,.25946-2.49557,.52118-4.99217,.70288-7.49405,.09729-1.33983-.52405-2.05371-1.80927-2.42163-.52777-.15108-1.05884-.10741-1.58978-.10962-4.90027-.02042-9.8006-.03525-14.70087-.0517-.11267-.6463-.50629-1.17609-.94324-1.58054-1.45294-1.34485-2.62274-2.94041-3.99072-4.3604-.98877-1.02634-2.02124-2.05499-2.66571-3.36945,.46344-.21384,.95605-.11627,1.43463-.11647,10.04132-.0041,20.08319,.0601,30.12354-.03519,3.02808-.02875,5.73499,2.46521,5.53601,5.56728-.16077,2.50665-.52869,4.98734-.74384,7.48637-.2851,3.31146-.74719,6.60745-1.11139,9.91248-.50159,4.55156-.97852,9.10582-1.48047,13.65733-.04175,.37823-.19366,.74434-.29437,1.11607l.00006,.00005Z"/><path class="f" d="M690.82367,178.07152c.03204,.19341,.07843,.39738,.26227,.49007,1.9942,1.00543,3.20111,2.82149,4.60706,4.43552,.914,1.04929,2.01459,1.92348,2.8103,3.09222,.28497,.41861,.52753,.78748,.48792,1.2981-.51752,.18881-1.05597,.10825-1.58484,.10863-10.37036,.00723-20.74188-.07838-31.11029,.06412-3.02722,.04161-6.26886-2.5269-5.69861-6.59576,.46094-3.28888,.76355-6.59982,1.13983-9.9006,.53937-4.73175,1.08392-9.46292,1.62183-14.19484,.1687-1.48395,.323-2.96951,.48389-4.45438,.61786-.04652,1.05768,.11618,1.44183,.70274,.7923,1.20979,2.00604,2.05647,2.91852,3.19199,1.32281,1.64618,2.83984,3.13673,4.27466,4.69308,.237,.25705,.51257,.43913,.88031,.43236,.13983,1.16628-.16333,2.29985-.27356,3.44579-.30365,3.15747-.61255,6.31564-1.00433,9.46301-.28711,2.30701-.1463,2.5623,1.77191,3.71822,.62384,.37593,.97101-.0789,1.44977-.07237,5.17328,.07062,10.34753,.06613,15.52155,.08215v-.00003Z"/><path class="c" d="M815.38947,167.83725c1.85834,0,3.64844,.00336,5.43842-.00246,.42761-.00139,.71906,.06683,.78192,.60219,.58624,4.9902,.28821,9.85834-2.28259,14.31764-2.1593,3.74564-5.50415,5.46106-9.8266,5.14972-1.9126-.13776-3.24408-1.15833-3.90369-3.05652-.50134,.22379-.69116,.66348-.97461,1.00478-1.55591,1.87366-3.61633,2.36674-5.89783,2.00096-2.18854-.35089-3.82544-2.48605-3.93079-4.95502-.07434-1.74133,.04614-3.47215,.28497-5.20174,.41547-3.00891,.77832-6.02512,1.15405-9.03938,.04797-.3848-.00586-.81139,.56848-.81178,1.83221-.00124,3.66449-.00044,5.6272-.00044-.26538,2.15118-.51245,4.14766-.75781,6.14435-.22345,1.81854-.47144,3.63472-.65283,5.45747-.0614,.61702-.08746,1.25504,.07562,1.87788,.30682,1.17172,.97406,1.40678,1.86072,.56744,.93469-.88477,1.45996-2.03018,1.80341-3.25961,.46936-1.68001,.56714-3.41872,.80316-5.13477,.22351-1.62524,.41919-3.25526,.57697-4.888,.05255-.54416,.24231-.7818,.79486-.77628,1.50378,.01503,3.00787,.01636,4.5116,.00021,.53925-.00577,.66809,.28728,.62219,.73216-.11902,1.15298-.23834,2.30617-.38025,3.45648-.33575,2.72176-.6842,5.44199-1.02863,8.16267-.12384,.9781,.237,2.06573,.77563,2.1602,.94135,.16512,1.39923-.54451,1.83069-1.17455,1.52484-2.22678,1.9707-4.79861,2.29266-7.40297,.23798-1.92488,.00183-3.83627-.16705-5.93066h.00012Z"/><path class="c" d="M1005.48132,160.68433c.77661,.00027,1.55609,.04161,2.32904-.01138,.76642-.05257,.9082,.31303,.82477,.96075-.32697,2.53647-.65063,5.07347-.95538,7.61269-.35022,2.91748-.85126,5.81831-.98944,8.75941-.02502,.53233,.04407,1.05145,.16211,1.58012,.302,1.35254,.80591,2.52614,2.34058,2.79576,1.62848,.2861,3.07703-.06094,4.16327-1.42203,.84601-1.06003,1.18536-2.3335,1.36676-3.61804,.45105-3.19499,.80914-6.40312,1.19818-9.60674,.23883-1.96635,.44519-3.93687,.70654-5.90016,.15125-1.13606,.18726-1.13896,1.383-1.14854,1.21344-.00974,2.42694-.00761,3.64038-.00072,1.40857,.008,1.42535,.01462,1.2572,1.4874-.27924,2.44531-.57324,4.88905-.87799,7.33136-.35199,2.82072-.71051,5.64076-1.08936,8.45801-.23352,1.73637-.71716,3.41245-1.48151,4.98773-1.20148,2.47606-3.1095,4.16721-5.78693,4.91718-2.375,.66527-4.79242,.7534-7.19012,.21112-3.65845-.82742-5.49585-3.44392-6.01068-7.45616-.33588-2.61792,.13361-5.18719,.41382-7.76215,.40118-3.6871,.92456-7.36084,1.38568-11.04155,.13824-1.10391,.12268-1.11247,1.17163-1.1319,.67932-.01259,1.35907-.00237,2.03857-.00211l-.00012-.00006Z"/><path class="c" d="M754.45276,187.62793c-.48529,.00032-.97058,.00076-1.45593,.00024-1.71552-.00185-1.74426-.00551-1.52631-1.77005,.82709-6.69685,1.67889-13.39067,2.51117-20.08691,.23816-1.91623,.48163-3.83347,.64093-5.75699,.06305-.76176,.24603-1.11842,1.09265-1.09013,3.4389,.11494,6.88141-.12032,10.32208,.16885,3.63373,.30542,6.16333,2.20325,6.74194,6.32291,.26349,1.87605,.0733,3.66827-.42627,5.42839-1.13702,4.0061-3.83185,6.3717-7.91504,7.18011-1.33978,.26524-2.6911,.30772-4.0506,.29559-1.56628-.01398-1.54834,.00038-1.7196,1.47321-.27307,2.34831-.60089,4.69063-.84308,7.04192-.06561,.63712-.30444,.82356-.89722,.80054-.82379-.03198-1.64972-.00804-2.47473-.00772v.00005Zm5.27936-15.2216c.60242,.16177,1.23407,.05611,1.85596,.08554,3.17798,.15038,4.83905-2.77773,4.37701-5.50891-.18317-1.08282-.91962-1.78409-2.02808-2.04153-.86395-.20065-1.73975-.10725-2.61115-.13345-.59088-.01775-.86139,.22296-.92267,.84061-.15686,1.58157-.41888,3.15338-.55157,4.73639-.05487,.6544-.41827,1.29897-.11951,2.02138v-.00002Z"/><path class="c" d="M945.09668,167.83643c-.48706,3.93697-.91956,7.672-1.41931,11.39804-.40973,3.05464-.49072,6.16666-1.40112,9.1386-1.20123,3.92123-3.65857,6.55777-7.84137,7.28088-3.03137,.52405-5.97186,.18787-8.76788-1.13844-1.01215-.4801-1.0415-.59996-.5943-1.6619,.48535-1.1525,.98462-2.29912,1.52698-3.56291,1.28833,.69402,2.55707,1.22298,3.95782,1.4287,3.16217,.46437,5.12646-1.15158,5.69684-3.4751,.14789-.60223,.43384-1.17348,.42035-1.93585-.98499,.82574-1.84277,1.65485-2.97516,2.12093-1.64856,.67847-3.31445,.69098-4.97272,.18394-1.2724-.38905-2.09869-1.27786-2.5415-2.57811-.7135-2.09525-.39008-4.19144-.14368-6.29094,.34857-2.9696,.76172-5.93182,1.0921-8.90334,.22229-1.9998,.17963-2.00464,2.14087-2.0047,1.11615-.00005,2.2326-.01657,3.34827,.00616,.81787,.01668,.9317,.14777,.83136,.94577-.33044,2.62904-.71741,5.25168-1.00305,7.88541-.14557,1.34172-.43042,2.6739-.35162,4.03983,.09241,1.60304,1.07904,2.18924,2.44678,1.34238,1.93243-1.1965,2.93915-3.05527,3.2735-5.23296,.40247-2.62109,.66028-5.26443,.97632-7.89867,.12567-1.04765,.12006-1.07169,1.10028-1.08255,1.69226-.01875,3.38483-.00519,5.2002-.00519l.00006,.00002Z"/><path class="c" d="M886.25635,185.23653c-.35406,.09612-.53705,.39697-.7655,.64182-1.49274,1.59988-3.33051,2.29868-5.5014,2.03172-2.27759-.28008-3.83295-1.59196-4.69263-3.64803-1.46667-3.50783-.97638-7.00244,.30304-10.44875,.63483-1.71001,1.63434-3.1982,3.02277-4.37538,2.52679-2.14243,6.36328-2.86578,9.88654-.33221,.23047-1.89806,.45251-3.73444,.6767-5.57053,.19275-1.57857,.42676-3.15347,.56439-4.73679,.06226-.71582,.37909-.87947,1.02155-.86563,1.4552,.03137,2.9126,.04405,4.36688-.0038,.77106-.02538,.88776,.32243,.80804,.967-.33746,2.72916-.64563,5.46191-.98169,8.19125-.35352,2.8708-.72833,5.73898-1.09094,8.60867-.46503,3.68108-.94226,7.36075-1.37494,11.04562-.06738,.57405-.17908,.90059-.8327,.89233-1.74042-.02197-3.48138-.00746-5.25867-.00746-.2312-.79796,.0321-1.4977,.0495-2.19933,.09277-.13013,.11426-.25819-.00934-.3831-.06384,.06418-.12775,.12839-.19159,.19257v.00002Zm-1.35175-12.22191c-1.1012,.01889-1.94678,.49564-2.55109,1.29195-1.41846,1.86922-1.9137,4.01402-1.52747,6.31017,.27478,1.63319,1.70062,2.27699,3.18939,1.55896,.6698-.32304,1.19537-.81163,1.65283-1.38957,1.14032-1.44073,1.7348-3.11749,2.11841-4.88188,.37225-1.71231,.13861-2.06895-1.51654-2.64436-.47144-.16389-.94867-.16483-1.36554-.24525Z"/><path class="c" d="M717.32001,89.50903c2.41418-.26814,4.84277-.19951,7.25073-.06796,2.49786,.13646,4.28302,2.34851,4.11444,4.91053-.14545,2.21115-.43512,4.41331-.6803,6.61732-.32489,2.92076-.67621,5.83857-1.00195,8.75922-.42188,3.78207-.81232,7.56772-1.25116,11.34778-.21155,1.82221-1.5835,3.34029-3.34839,3.7889-.41974,.10669-.85968,.18741-1.29053,.1881-2.22931,.0036-4.45874-.02265-6.68811-.03849-.0011-2.74713-.00214-5.49426-.00311-8.24132,2.17566-.10065,2.69751-.4749,2.8916-2.22348,.5246-4.72614,1.03033-9.45442,1.52429-14.18386,.17017-1.62875-.01917-1.9251-1.50085-2.706-.00555-2.71692-.01117-5.43383-.01672-8.15074h.00006Z"/><path class="c" d="M913.05646,157.94681c-.49481,4.12048-.9707,8.08334-1.45197,12.09102,.53497,.04771,.68658-.37183,.92456-.60735,1.64368-1.62646,3.64899-2.18561,5.86884-1.84319,2.32886,.35922,3.90295,1.86705,4.55243,4.01691,1.3703,4.53593,.9281,8.89323-2.05994,12.75812-1.69873,2.1972-4.11737,3.22784-6.78015,3.48782-3.20227,.31265-6.38605,.07756-9.38031-1.32199-1.35175-.63182-1.3349-.6106-1.14441-2.06342,.46967-3.58162,.91827-7.16608,1.35907-10.75137,.61151-4.97318,1.21234-9.94768,1.80426-14.9232,.05823-.48985,.17834-.84575,.75635-.84467,1.83185,.00346,3.66364,.00128,5.55127,.00128v.00003Zm-1.45398,24.48315c4.53253,.34885,6.56451-4.65456,5.60431-7.67381-.53284-1.67551-1.9212-2.20439-3.41565-1.29305-.79047,.48206-1.39844,1.1685-1.90698,1.95024-1.10602,1.70015-1.54352,3.61185-1.84271,5.57558-.18292,1.201-.13257,1.27708,1.12854,1.40173,.14404,.01424,.28833,.02625,.43256,.03931h-.00006Z"/><path class="e" d="M698.68854,125.01226c-2.52283,.01688-5.04614,.07089-7.56836,.04018-2.50964-.03055-4.89337-1.84947-4.73096-4.9403,.13196-2.51032,.52417-4.98994,.7475-7.48903,.27441-3.07002,.68347-6.1279,1.02307-9.19227,.49365-4.45464,.97504-8.91064,1.47375-13.36471,.01959-.17526,.16437-.33654,.25-.50411,1.89801-.01718,3.79681-.03458,5.69568-.05198,.84161-.1149,1.68292-.11585,2.52411,.00591,.0014,2.71906,.00275,5.43809,.00409,8.15712-.0755,.11459-.20508,.22325-.21838,.34463-.24121,2.19631-.4588,4.39522-.70099,6.59142-.34192,3.1011-.6853,6.20219-1.05847,9.29963-.13794,1.14486,.11377,2.09215,1.09979,2.77074,.11743,.15948,.27557,.20212,.46295,.16081,.33289-.0718,.66376-.07405,.99146,.02929,.00159,2.71422,.00311,5.42844,.0047,8.14266h.00006Z"/><path class="c" d="M1107.32288,160.56377c-.49316,3.61082-.9696,7.09933-1.47717,10.81641,.75671-.54688,1.31921-.96642,1.89502-1.367,1.69336-1.17821,3.60742-1.38326,5.57007-1.10645,1.76697,.24922,2.97888,1.68304,3.16223,3.66171,.12512,1.34995,.12634,2.71455-.0481,4.06435-.45117,3.4913-.94714,6.97694-1.37537,10.47095-.08728,.71211-.29895,1.01913-1.05872,.9978-1.63489-.04588-3.27197-.01408-4.97766-.01408,.505-3.89255,.97253-7.61501,1.48096-11.33188,.13-.95041,.22742-1.95213-.68335-2.46126-.94214-.52664-1.75916,.13788-2.45471,.77411-1.82886,1.67279-2.42944,3.90982-2.76758,6.23572-.27734,1.90773-.48889,3.82666-.66479,5.74655-.06506,.71056-.28052,1.06303-1.04468,1.04532-1.40723-.03267-2.8158-.01845-4.22363-.00604-.64624,.00569-.79883-.23235-.7113-.89243,.97046-7.31601,1.90198-14.63716,2.85022-21.9561,.17358-1.3392,.40063-2.67194,.55103-4.01344,.05518-.49243,.24292-.67274,.72278-.66924,1.74109,.01274,3.4823,.00504,5.25476,.00504v-.00003Z"/><path class="c" d="M1052.8689,160.56155c-.49426,3.58801-.97217,7.05676-1.4585,10.5872,.61328,.04399,.83276-.40689,1.13147-.64195,1.77649-1.39838,3.79736-1.8782,6.00305-1.65623,2.0918,.21053,3.39209,1.78568,3.49878,4.12955,.09729,2.13551-.12915,4.24863-.41235,6.3577-.33997,2.53084-.70264,5.05864-1.04517,7.58914-.15417,1.13878-.14282,1.14862-1.33093,1.15865-1.21289,.01025-2.42627,.01781-3.63904-.00346-.93689-.01643-1.03894-.0894-.93604-1.00014,.21655-1.91615,.49963-3.82486,.75989-5.73604,.22107-1.62395,.47925-3.24362,.65991-4.87196,.09143-.8244,.07935-1.72845-.76013-2.19791-.8075-.45155-1.5094,.10031-2.12964,.54404-1.36609,.97728-2.01501,2.44633-2.53345,3.9729-.56372,1.6599-.63672,3.40948-.8678,5.12868-.14758,1.09821-.30103,2.19878-.3689,3.30336-.03845,.62592-.29102,.86578-.88428,.86264-1.50415-.00798-3.0083,.00165-4.51245-.00681-.46753-.00262-.65454-.16496-.57861-.71924,.92822-6.78188,1.8291-13.56752,2.72485-20.35378,.23987-1.81699,.47119-3.63637,.64014-5.46078,.06433-.69513,.2323-1.02934,1.01843-1.0025,1.64172,.05605,3.28662,.01697,5.02063,.01697l.00012-.00002Z"/><path class="c" d="M1031.14014,176.53439c2.43433-1.50771,3.7157-3.49458,4.59802-5.79233,.10364-.26984,.22827-.54578,.25623-.8275,.06104-.61462,.3866-.80774,.97131-.79851,1.45557,.02299,2.91187-.0098,4.36743,.01396,.8927,.01456,1.01819,.18205,.79187,1.05305-.66626,2.56392-1.81543,4.89157-3.53711,6.91451-1.61438,1.89687-1.62634,1.9418-.6582,4.17307,.47131,1.08618,1.14587,1.90405,2.38757,2.09741,.5249,.08174,.76221,.3078,.5813,.89232-.34229,1.10609-.64502,2.22519-.93384,3.34668-.14185,.55128-.42871,.75584-1.01672,.78699-2.80029,.14825-4.32739-.72881-5.53625-3.30984-.32727-.69873-.58093-1.43268-.84937-2.15749-.08276-.22342-.08411-.48897-.37732-.55424-.51111-.11375-1.875,.85985-1.94971,1.43259-.13733,1.05234-.20752,2.11349-.34924,3.1651-.13855,1.02815-.23755,1.10342-1.28186,1.11426-1.31018,.0136-2.62097-.01714-3.93066,.01024-.65649,.01372-.87109-.28662-.79602-.88518,.40149-3.20056,.79883-6.40164,1.2074-9.60129,.33533-2.62592,.69543-5.24873,1.02478-7.87538,.33557-2.67651,.64343-5.35651,.97119-8.03403,.13269-1.08353,.17346-1.12383,1.23181-1.13429,1.31018-.01299,2.62183,.03279,3.9303-.01657,.74341-.02805,.9436,.28368,.85669,.94791-.30664,2.34471-.60168,4.6909-.90686,7.0358-.33459,2.57014-.67554,5.13948-1.05237,8.00281l-.00037-.00003Z"/><path class="c" d="M792.55206,176.24574c.09814,2.79283-.56329,5.3772-2.19556,7.66685-1.81128,2.5407-4.38721,3.73193-7.42517,3.99039-.96075,.08176-1.95288,.08405-2.90369-.05786-3.43695-.51295-6.27826-2.64651-6.67438-7.26645-.26593-3.10168,.35974-6.07373,2.1944-8.6853,1.97205-2.80719,4.69995-4.23276,8.12231-4.34718,1.16626-.039,2.32312,.00226,3.45886,.32838,3.26508,.93745,5.35883,3.65321,5.42218,7.06253,.00812,.4361,.0011,.87247,.0011,1.30865l-.00006-.00002Zm-6.11139,.13684c-.03412-.27679-.04846-.76422-.15967-1.22853-.3844-1.60509-1.68298-2.42236-3.27118-2.03975-.71393,.172-1.31335,.59607-1.79895,1.14777-1.59906,1.8168-1.81897,3.98158-1.44763,6.23779,.16504,1.00299,1.24872,1.99609,2.55817,1.90915,1.00104-.06645,1.73291-.52609,2.36938-1.19705,1.22443-1.29082,1.65747-2.89581,1.74988-4.82939v.00002Z"/><path class="c" d="M693.74573,141.41017c.04352-.51604-.11993-.93845-.51331-1.29312-1.4762-1.33099-2.60217-2.98486-4.04053-4.35959-.83142-.79459-1.44623-1.8101-2.32489-2.57784-.36554-.31938-.43292-.73724-.42322-1.18628,.46362-.21252,.95581-.11414,1.43433-.11522,3.68481-.00842,7.36969-.00041,11.0545-.00534,2.16992-.0029,2.70947-.46072,3.099-2.59111,.21576-1.18025,.91742-1.77073,2.10492-1.77144,2.85529-.0006,5.71051-.00015,8.63403-.00015,.02032,1.91348-.36316,3.69432-.47632,5.4957-.07532,1.19855-.28821,2.38852-.4408,3.58217-.3595,2.81281-2.02557,4.70496-4.89282,4.84602-4.39679,.21632-8.81036,.22125-13.21497-.02382l.00006,.00002Z"/><path class="c" d="M840.07037,183.53656c-1.93762,2.72279-4.42566,4.19237-7.62848,4.37265-1.35553,.07629-2.72772,.08566-4.03821-.34657-3.3587-1.10783-4.95099-3.45799-5.23206-7.10506-.26898-3.49043,.61121-6.74541,2.93451-9.45412,1.88208-2.19431,4.31281-3.3775,7.24371-3.46153,1.41742-.04066,2.78607,.06906,4.12146,.65022,4.11957,1.7928,4.23187,7.05585,.9035,9.46249-1.54932,1.12025-3.26343,1.89391-5.10022,2.39308-.8869,.24103-1.80243,.37746-2.68793,.62268-.37463,.10374-.98041-.05133-1.04498,.54369-.05255,.48418,.39697,.75716,.73132,1.01833,1.09302,.85384,2.79907,.9017,4.00049-.29765,1.10175-1.09979,1.88727-.85562,2.92865-.13408,.87103,.60349,1.81366,1.10382,2.86816,1.73589l.00006-.00002Zm-10.62799-6.6993c1.60339-.22478,2.91925-.63385,4.13049-1.34273,1.01917-.59641,1.47491-1.54587,1.1098-2.22447-.35468-.6591-1.40314-.80286-2.4646-.25819-1.49969,.7695-2.36884,2.03133-2.7757,3.82539Z"/><path class="c" d="M855.70172,179.45406c-.12866-3.61372,1.01575-6.73746,3.6452-9.26801,1.78937-1.72202,3.95636-2.54387,6.42139-2.64265,1.3653-.0547,2.69507,.04372,3.98102,.5851,3.69141,1.55417,4.59692,5.95377,1.8028,8.82602-1.46594,1.50693-3.33752,2.28033-5.2796,2.91495-1.14978,.37569-2.32269,.65709-3.52881,.82709-.97925,.138-1.0639,.47954-.41119,1.19321,1.0675,1.16714,2.89392,1.21216,4.34979,.15071,.48444-.35323,.73303-1.17703,1.46338-1.00917,.54083,.12431,1.0144,.5432,1.51642,.8334,.62817,.36311,1.26117,.71849,1.88068,1.09579,.97845,.59587,.99341,.66438,.30243,1.49005-1.73645,2.07494-3.98486,3.21381-6.65753,3.44244-1.34558,.1151-2.70605,.08847-4.04333-.2626-3.05963-.80318-5.18134-3.27908-5.43604-6.43408-.04657-.57716-.00665-1.16132-.00665-1.74222l.00006-.00003Zm6.1571-2.60457c1.60858-.23505,2.95117-.58594,4.15326-1.32552,1.01245-.62291,1.46515-1.62766,1.09399-2.22917-.4729-.76648-1.42615-.86865-2.59082-.24239-1.453,.7813-2.21246,2.06557-2.65649,3.79706l.00006,.00002Z"/><path class="c" d="M1080.04773,184.13698c-2.74634,4.15765-7.69812,4.96339-11.46997,3.75124-1.89954-.61047-3.27661-1.85764-4.03992-3.70464-1.87903-4.54677-.08728-11.46162,4.5155-14.06052,2.56726-1.44958,5.27905-1.83994,8.10559-.82465,1.86572,.67017,3.13354,1.91589,3.45178,3.93274,.3396,2.15199-.41907,3.88361-2.1272,5.22995-1.87805,1.48029-4.09045,2.16167-6.36035,2.71565-.32922,.08037-.67078,.11617-.99414,.21388-.39648,.11983-1.01746-.06033-1.15222,.38287-.1864,.61284,.46008,.90579,.85278,1.21275,.86853,.67874,2.32825,.60188,3.40454-.13348,.31714-.21669,.60645-.48779,.86438-.77373,.35046-.3886,.71777-.44907,1.15869-.18726,1.23975,.73602,2.48071,1.46964,3.79041,2.24516l.00012,.00002Zm-10.16431-6.48135c1.31238,.00664,2.4137-.48247,3.50952-.94453,.53516-.22563,.9884-.62749,1.3252-1.10744,.64758-.92284,.25073-1.73302-.86401-1.80782-.65161-.04372-1.27588,.11801-1.78357,.49866-1.10254,.82661-1.90198,1.87674-2.18713,3.36111v.00002Z"/><path class="c" d="M1126.78357,188.37869c-2.2887-.04944-4.40808-.49043-6.05591-2.29074-1.09607-1.19757-1.69788-2.60884-1.85278-4.16216-.42065-4.2159,.60681-7.94206,3.85889-10.90239,2.31958-2.11143,6.90344-3.02141,9.93701-1.47169,3.63,1.85439,4.04553,6.51144,.74243,8.94135-1.94678,1.43205-4.17896,2.20467-6.51196,2.72391-.42493,.09457-.86023,.14301-1.28442,.24036-.84924,.19489-.92273,.47604-.31787,1.14754,.85364,.94753,2.35718,1.12738,3.5968,.41701,.25098-.14381,.48071-.32722,.71057-.50496,1.12219-.86792,1.12378-.87399,2.41101-.13443,.75488,.43369,1.47998,.92372,2.25488,1.31662,.70789,.35887,.58594,.71471,.17224,1.22089-1.83203,2.24155-4.21887,3.3278-7.07861,3.45757-.19373,.00879-.38818,.00114-.58228,.00114Zm-1.98206-10.62883c1.74512-.3434,3.19556-.63693,4.39502-1.60925,.56628-.45898,.88232-1.02695,.63892-1.76595-.16846-.5116-.89478-.71182-1.77197-.52573-.18762,.03979-.38757,.07245-.55176,.1629-1.41394,.77908-2.30713,1.9377-2.71021,3.73804v-.00002Z"/><path class="c" d="M1093.33618,175.207c-.47412-.41425-.85144-.79243-1.27722-1.10484-.67627-.49628-1.41797-.83821-2.29724-.7204-.53992,.07233-.90344,.40219-1.05994,.87856-.14038,.42708,.22083,.73586,.52271,.93959,.59924,.4044,1.23645,.75835,1.88049,1.08954,1.0354,.53242,2.02991,1.12212,2.99451,1.77798,2.95776,2.01137,2.52698,7.01524-.11169,8.7995-2.48169,1.67809-5.14343,1.81873-7.92517,1.1824-1.67712-.38368-3.17688-1.14175-4.38281-2.42316-.36902-.39217-.44617-.66592-.02661-1.07672,.8302-.81282,1.62769-1.66011,2.41467-2.5153,.38208-.41534,.65503-.2365,.96436,.07114,.73193,.72818,1.58276,1.25613,2.573,1.58067,.62366,.20439,1.24512,.18655,1.86743,.10767,.39197-.04968,.73462-.25485,.87927-.66821,.16931-.48367-.19666-.74194-.49646-.93781-.56494-.36916-1.17651-.66985-1.78027-.9762-1.12463-.57069-2.20312-1.20441-3.19336-1.99602-3.11292-2.48854-2.18921-7.16083,.49585-9.05061,3.47058-2.44267,8.44275-1.43735,10.85193,.98172,.55615,.5584,.52942,.89723-.02246,1.38652-.97107,.86105-1.9021,1.76717-2.87085,2.67398h-.00012Z"/><path class="c" d="M850.54034,169.93697c.35413-.09151,.55212-.38626,.77747-.62907,.60895-.65628,1.37476-1.07581,2.18054-1.4007,2.04608-.82491,2.49054-.45619,2.16742,1.70818-.18445,1.23579-.36102,2.47336-.50476,3.71432-.06946,.59914-.15704,.96597-.95032,.8335-1.97571-.32994-3.17944,.77699-4.06787,2.37563-.99225,1.78545-1.12524,3.7738-1.37329,5.73541-.19336,1.52922-.39697,3.05743-.56348,4.58961-.04779,.44009-.13947,.75914-.65424,.75909-1.8291-.00014-3.65814-.00005-5.5694-.00005,.24762-2.26999,.45422-4.37578,.71143-6.47539,.45062-3.67792,.95746-7.34909,1.39166-11.02885,.2688-2.27768,.22815-2.28247,2.49799-2.28249h3.86841c-.00244,.69753,.03564,1.30292-.11359,1.90785-.08936,.11925-.1203,.24368,.01617,.34081,.01776,.01266,.12177-.0956,.18585-.14786Z"/><path class="e" d="M963.20081,181.16095c.00421,.33629,.09045,.69682-.00073,1.00497-.6228,2.10472,.06812,4.06635,.60559,6.04764-5.25726-.6109-9.13367-4.01157-10.37219-9.07237-.49054-2.00446-.21387-4.01007-.03497-6.00954,.11475-1.28233,.37555-2.55162,.57086-3.82681,1.48871-.17949,2.92688,.43443,4.41309,.28145,.63519-.06541,1.23053,.09058,1.81982,.29517,.05133,.28525,.02094,.5596-.01691,.85081-.19153,1.47479-.414,2.95239-.47845,4.43538-.11792,2.71297,1.0741,4.7254,3.49377,5.99332l.00012-.00002Z"/><path class="g" d="M717.32001,89.50903c.00555,2.71692,.01111,5.43383,.01672,8.15074-4.65991,.0754-9.31982,.08175-13.97974,.00112-.00085-2.71715-.00165-5.4343-.0025-8.15145,.72552-.02643,1.45154-.08534,2.17639-.07389,3.92957,.06208,7.86078-.15318,11.78906,.07347h.00006Z"/><path class="e" d="M971.69971,187.66972c-1.41779-.966-1.93207-2.40538-2.06592-4.02061-.05078-.61285,.00531-1.23456,.01263-1.85219,2.36932-.12251,3.64844-1.0728,4.47131-3.24332,.74725-1.97115,.81049-4.05753,1.09985-6.1062,.05334-.37775-.04224-.78212,.24207-1.10805,2.01556,.39949,4.09167,.16286,6.10547,.58009,.14612,1.50473-.20184,2.97798-.3526,4.45638-.24097,2.36353-.8924,4.64067-2.24475,6.64619-1.74707,2.59085-4.30054,3.94827-7.26807,4.64772v-.00002Z"/><path class="g" d="M714.42157,116.77304c.00104,2.74713,.00208,5.49426,.00317,8.24139-3.01013,.07381-6.02032,.08205-9.03052-.0007-.00073-2.71643-.00146-5.43286-.00214-8.14926,3.00983-.03046,6.01965-.06095,9.02948-.09143Z"/><path class="f" d="M705.39209,116.86445c.00073,2.71643,.0014,5.43286,.0022,8.14928-2.23523,.07527-4.47046,.08659-6.70569-.00148-.00159-2.71422-.00311-5.42844-.00452-8.14264,2.23596-.14974,4.47198-.12138,6.70801-.00516Z"/><path class="f" d="M703.35449,89.50945c.00085,2.71715,.00165,5.4343,.00244,8.15145-1.74988,.00406-3.49963,.00811-5.24945,.01217-.00134-2.71903-.00262-5.43806-.00409-8.15712,1.75012-.15242,3.50055-.12183,5.2511-.0065Z"/><path class="f" d="M981.56519,171.91942c-2.01379-.41724-4.0899-.1806-6.10547-.58009-.10529-1.47844,.24115-2.91466,.41034-4.36745,2.10474-.14075,4.17407,.48238,6.28119,.28998-.03497,1.57262-.1731,3.13232-.586,4.65756h-.00006Z"/><path class="g" d="M960.20239,169.88145c-.58929-.20461-1.18463-.36058-1.81982-.29517-1.48621,.15298-2.92438-.46094-4.41309-.28145,.09534-1.37283,.20502-2.74387,.53345-4.08644,2.10962-.16042,4.19031,.21523,6.28467,.33717-.22034,1.43855-.19714,2.90996-.58514,4.3259l-.00006-.00002Z"/><path class="c" d="M695.57928,89.51004c-1.8988,.0174-3.79767,.0348-5.69568,.05198,1.89612-.34446,3.79559-.22827,5.69568-.05198Z"/><path class="f" d="M614.60913,146.26959c-.32825,.01257-.65649,.02513-.9848,.03772,.31824-.27312,.65015-.19098,.9848-.03772Z"/><path class="g" d="M619.75385,141.3699c.06976-.00143,.13403,.01659,.19238,.05399-.00037-.00005-.10571,.04314-.10571,.04314l-.08667-.09711v-.00002Z"/><path class="g" d="M627.90619,131.80698c.18353-.02615,.32874,.03209,.42755,.19337-.17383,.00513-.31995-.05162-.42755-.19337Z"/><path class="d" d="M886.25635,185.23653c.06384-.06419,.12769-.12839,.19159-.19257,.1236,.12491,.10205,.25298,.00934,.3831-.0694-.05994-.13672-.12363-.20093-.19054Z"/><path class="c" d="M697.22943,116.67949c.15393,.05371,.30786,.10742,.46234,.16097-.18677,.04115-.34491-.00149-.46234-.16097Z"/><path class="d" d="M850.54034,169.93697c-.06409,.05226-.16809,.16052-.18585,.14786-.13654-.09712-.10559-.22156-.01617-.34081,.06982,.06068,.13751,.12515,.20209,.19295h-.00006Z"/></g></svg>
