<?xml version="1.0" encoding="UTF-8" standalone="no"?>
<svg
   width="2372"
   height="569"
   viewBox="0 0 2372 569"
   fill="none"
   version="1.1"
   id="svg824"
   sodipodi:docname="Solana-USDT-Dropdown.svg"
   inkscape:version="1.2.1 (9c6d41e4, 2022-07-14)"
   xmlns:inkscape="http://www.inkscape.org/namespaces/inkscape"
   xmlns:sodipodi="http://sodipodi.sourceforge.net/DTD/sodipodi-0.dtd"
   xmlns="http://www.w3.org/2000/svg"
   xmlns:svg="http://www.w3.org/2000/svg">
  <sodipodi:namedview
     id="namedview826"
     pagecolor="#ffffff"
     bordercolor="#000000"
     borderopacity="0.25"
     inkscape:showpageshadow="2"
     inkscape:pageopacity="0.0"
     inkscape:pagecheckerboard="0"
     inkscape:deskcolor="#d1d1d1"
     showgrid="false"
     inkscape:zoom="0.41476274"
     inkscape:cx="1186.2203"
     inkscape:cy="284.5"
     inkscape:window-width="1309"
     inkscape:window-height="456"
     inkscape:window-x="224"
     inkscape:window-y="25"
     inkscape:window-maximized="0"
     inkscape:current-layer="svg824" />
  <path
     d="M462.792 505.07C413.975 544.672 351.759 568.4 284.001 568.4C127.152 568.4 0.00195312 441.25 0.00195312 284.401C0.00195312 127.553 127.152 0.402344 284.001 0.402344C349.731 0.402344 410.247 22.7324 458.374 60.2207H458.959C506.419 95.8594 565.407 116.977 629.328 116.977C693.249 116.977 752.237 95.8594 799.697 60.2207H802.012C850.139 22.7324 910.654 0.402344 976.385 0.402344H2087.54C2244.39 0.402344 2371.54 127.553 2371.54 284.401C2371.54 441.25 2244.39 568.4 2087.54 568.4H976.385C909.602 568.4 848.202 545.35 799.709 506.77H798.184C750.985 471.814 692.571 451.143 629.328 451.143C567.117 451.143 509.578 471.146 462.792 505.07Z"
     fill="url(#paint0_linear_897_508)"
     id="path788" />
  <path
     fill-rule="evenodd"
     clip-rule="evenodd"
     d="M1118.08 310.166C1116.13 310.312 1106.08 310.912 1083.67 310.912C1065.84 310.912 1053.19 310.377 1048.75 310.166C979.859 307.136 928.439 295.144 928.439 280.785C928.439 266.427 979.859 254.451 1048.75 251.372V298.223C1053.25 298.547 1066.15 299.308 1083.98 299.308C1105.37 299.308 1116.08 298.417 1118.01 298.239V251.405C1186.75 254.468 1238.06 266.46 1238.06 280.786C1238.06 295.111 1186.77 307.103 1118.01 310.15L1118.08 310.166ZM1118.08 246.559V204.636H1214.01V140.705H952.812V204.636H1048.73V246.543C970.767 250.125 912.136 265.568 912.136 284.075C912.136 302.582 970.767 318.009 1048.73 321.607V455.951H1118.06V321.558C1195.85 317.977 1254.38 302.549 1254.38 284.059C1254.38 265.568 1195.89 250.141 1118.06 246.543L1118.08 246.559Z"
     fill="white"
     id="path790" />
  <path
     d="M1442.85 408.763C1427.07 408.763 1414.97 405.624 1406.54 399.348C1398.11 393.071 1392.37 384.284 1389.32 372.986C1386.27 361.508 1384.75 348.148 1384.75 332.905V188.452H1413.8V334.25C1413.8 343.575 1414.43 352.093 1415.69 359.805C1416.94 367.516 1419.63 373.613 1423.76 378.097C1428.06 382.58 1434.43 384.822 1442.85 384.822C1451.46 384.822 1457.83 382.58 1461.95 378.097C1466.08 373.613 1468.77 367.516 1470.02 359.805C1471.28 352.093 1471.91 343.575 1471.91 334.25V188.452H1500.69V332.905C1500.69 348.148 1499.17 361.508 1496.12 372.986C1493.07 384.284 1487.33 393.071 1478.9 399.348C1470.65 405.624 1458.64 408.763 1442.85 408.763ZM1584.07 408.763C1571.52 408.763 1561.03 406.073 1552.6 400.693C1544.35 395.313 1538.07 387.87 1533.77 378.366C1529.46 368.861 1526.95 357.832 1526.24 345.279L1553.14 338.016C1553.67 345.727 1554.84 353.169 1556.63 360.343C1558.61 367.516 1561.74 373.434 1566.05 378.097C1570.35 382.58 1576.36 384.822 1584.07 384.822C1591.96 384.822 1597.88 382.67 1601.83 378.366C1605.95 373.882 1608.01 367.516 1608.01 359.267C1608.01 349.403 1605.77 341.513 1601.29 335.595C1596.8 329.497 1591.15 323.4 1584.34 317.303L1547.76 285.023C1540.58 278.746 1535.29 271.931 1531.89 264.579C1528.48 257.047 1526.77 247.811 1526.77 236.872C1526.77 220.911 1531.35 208.537 1540.49 199.75C1549.64 190.962 1562.1 186.569 1577.88 186.569C1586.49 186.569 1594.02 187.734 1600.48 190.066C1607.12 192.218 1612.59 195.625 1616.89 200.288C1621.37 204.95 1624.87 210.868 1627.38 218.042C1630.07 225.036 1631.86 233.285 1632.76 242.79L1606.94 249.784C1606.4 242.61 1605.32 236.065 1603.71 230.147C1602.09 224.049 1599.22 219.207 1595.1 215.621C1591.15 211.855 1585.42 209.972 1577.88 209.972C1570.35 209.972 1564.43 212.034 1560.13 216.159C1556.01 220.104 1553.94 226.022 1553.94 233.913C1553.94 240.548 1555.02 246.018 1557.17 250.322C1559.5 254.626 1563.18 259.019 1568.2 263.503L1605.05 295.783C1613.3 302.956 1620.57 311.564 1626.84 321.607C1633.12 331.47 1636.26 343.216 1636.26 356.846C1636.26 367.606 1634.02 376.931 1629.53 384.822C1625.05 392.533 1618.86 398.451 1610.97 402.576C1603.26 406.7 1594.29 408.763 1584.07 408.763ZM1659.84 406.342V188.452H1707.18C1723.32 188.452 1736.05 190.962 1745.38 195.984C1754.88 200.826 1761.61 208.178 1765.55 218.042C1769.68 227.905 1771.74 240.189 1771.74 254.895V335.057C1771.74 350.479 1769.68 363.481 1765.55 374.062C1761.61 384.642 1755.06 392.712 1745.92 398.272C1736.95 403.652 1724.84 406.342 1709.6 406.342H1659.84ZM1690.23 384.553H1707.45C1718.57 384.553 1726.46 382.401 1731.12 378.097C1735.78 373.793 1738.56 367.516 1739.46 359.267C1740.54 351.017 1741.07 341.064 1741.07 329.408V258.661C1741.07 247.363 1740.36 238.217 1738.92 231.223C1737.49 224.229 1734.35 219.118 1729.51 215.89C1724.67 212.662 1717.04 211.048 1706.64 211.048H1690.23V384.553ZM1825.63 406.342V211.048H1788.78V188.452H1891.81V211.048H1856.03V406.342H1825.63Z"
     fill="white"
     id="path792" />
  <path
     fill-rule="evenodd"
     clip-rule="evenodd"
     d="M2215.77 307.769C2219.23 304.176 2221.16 299.38 2221.16 294.389C2221.16 289.398 2219.23 284.602 2215.77 281.01L2073.71 135.099C2072.86 134.224 2071.85 133.528 2070.73 133.053C2069.61 132.578 2068.4 132.333 2067.19 132.333C2065.97 132.333 2064.77 132.578 2063.65 133.053C2062.53 133.528 2061.51 134.224 2060.66 135.099L2047.62 148.506C2045.89 150.302 2044.93 152.7 2044.93 155.196C2044.93 157.691 2045.89 160.09 2047.62 161.886L2170.21 287.81C2171.94 289.61 2172.91 292.013 2172.91 294.513C2172.91 297.014 2171.94 299.416 2170.21 301.217L2047.7 426.948C2045.97 428.744 2045.01 431.142 2045.01 433.638C2045.01 436.134 2045.97 438.531 2047.7 440.327L2060.75 453.708C2061.59 454.583 2062.61 455.278 2063.73 455.753C2064.85 456.228 2066.05 456.473 2067.27 456.473C2068.49 456.473 2069.69 456.228 2070.81 455.753C2071.93 455.278 2072.94 454.583 2073.79 453.708L2215.77 307.769Z"
     fill="white"
     id="path794" />
  <path
     d="M182.48 354.447C184.256 352.671 186.698 351.635 189.288 351.635H424.167C428.459 351.635 430.605 356.815 427.571 359.849L381.173 406.248C379.397 408.024 376.955 409.06 374.365 409.06H139.485C135.193 409.06 133.047 403.88 136.081 400.846L182.48 354.447Z"
     fill="url(#paint1_linear_897_508)"
     id="path796" />
  <path
     d="M182.48 181.21C184.33 179.434 186.772 178.398 189.288 178.398H424.167C428.459 178.398 430.605 183.579 427.571 186.613L381.173 233.011C379.397 234.787 376.955 235.823 374.365 235.823H139.485C135.193 235.823 133.047 230.643 136.081 227.609L182.48 181.21Z"
     fill="url(#paint2_linear_897_508)"
     id="path798" />
  <path
     d="M381.173 267.274C379.397 265.498 376.955 264.462 374.365 264.462H139.485C135.193 264.462 133.047 269.642 136.081 272.676L182.48 319.074C184.256 320.85 186.698 321.886 189.288 321.886H424.167C428.459 321.886 430.605 316.706 427.571 313.672L381.173 267.274Z"
     fill="url(#paint3_linear_897_508)"
     id="path800" />
  <defs
     id="defs822">
    <linearGradient
       id="paint0_linear_897_508"
       x1="0.00195312"
       y1="284.401"
       x2="2371.54"
       y2="284.401"
       gradientUnits="userSpaceOnUse">
      <stop
         offset="0.22"
         id="stop802" />
      <stop
         offset="0.405"
         stop-color="#50A389"
         id="stop804" />
    </linearGradient>
    <linearGradient
       id="paint1_linear_897_508"
       x1="401.729"
       y1="-628.783"
       x2="-216.601"
       y2="-333.93"
       gradientUnits="userSpaceOnUse">
      <stop
         stop-color="#00FFA3"
         id="stop807" />
      <stop
         offset="1"
         stop-color="#DC1FFF"
         id="stop809" />
    </linearGradient>
    <linearGradient
       id="paint2_linear_897_508"
       x1="330.651"
       y1="-81.9914"
       x2="-287.679"
       y2="212.862"
       gradientUnits="userSpaceOnUse">
      <stop
         stop-color="#00FFA3"
         id="stop812" />
      <stop
         offset="1"
         stop-color="#DC1FFF"
         id="stop814" />
    </linearGradient>
    <linearGradient
       id="paint3_linear_897_508"
       x1="365.964"
       y1="132.009"
       x2="203.409"
       y2="443.367"
       gradientUnits="userSpaceOnUse">
      <stop
         stop-color="#00FFA3"
         id="stop817" />
      <stop
         offset="1"
         stop-color="#DC1FFF"
         id="stop819" />
    </linearGradient>
  </defs>
</svg>
