<?xml version="1.0" encoding="utf-8"?>
<!-- Generator: Adobe Illustrator 28.0.0, SVG Export Plug-In . SVG Version: 6.00 Build 0)  -->
<svg version="1.1" id="Layer_1" xmlns="http://www.w3.org/2000/svg" xmlns:xlink="http://www.w3.org/1999/xlink" x="0px" y="0px"
	 viewBox="0 0 659 109.1" style="enable-background:new 0 0 659 109.1;" xml:space="preserve">
<style type="text/css">
	
		.st0{clip-path:url(#SVGID_00000131368419717772564170000013829454314681673646_);fill:url(#SVGID_00000138531206564854990300000001031534817037222068_);}
	.st1{clip-path:url(#SVGID_00000131368419717772564170000013829454314681673646_);}
</style>
<g>
	<defs>
		<rect id="SVGID_1_" x="6.5" y="6.6" width="646" height="96"/>
	</defs>
	<clipPath id="SVGID_00000023263856585564054680000005823066577911469228_">
		<use xlink:href="#SVGID_1_"  style="overflow:visible;"/>
	</clipPath>
	
		<linearGradient id="SVGID_00000127007611788266095490000006292371009178491325_" gradientUnits="userSpaceOnUse" x1="17.3087" y1="17.2662" x2="105.3887" y2="116.5663" gradientTransform="matrix(1 0 0 -1 0 122.1102)">
		<stop  offset="8.000000e-02" style="stop-color:#9945FF"/>
		<stop  offset="0.3" style="stop-color:#8752F3"/>
		<stop  offset="0.5" style="stop-color:#5497D5"/>
		<stop  offset="0.6" style="stop-color:#43B4CA"/>
		<stop  offset="0.72" style="stop-color:#28E0B9"/>
		<stop  offset="0.97" style="stop-color:#19FB9B"/>
	</linearGradient>
	
		<path style="clip-path:url(#SVGID_00000023263856585564054680000005823066577911469228_);fill:url(#SVGID_00000127007611788266095490000006292371009178491325_);" d="
		M115,82.2l-17.7,19c-0.4,0.4-0.8,0.7-1.4,1c-0.5,0.2-1.1,0.3-1.6,0.3h-84c-0.4,0-0.8-0.1-1.1-0.3c-0.3-0.2-0.6-0.5-0.8-0.9
		s-0.2-0.8-0.1-1.2c0.1-0.4,0.2-0.8,0.5-1.1l17.7-19c0.4-0.4,0.8-0.7,1.4-1c0.5-0.2,1.1-0.3,1.6-0.3h84c0.4,0,0.8,0.1,1.1,0.3
		c0.3,0.2,0.6,0.5,0.8,0.9c0.2,0.4,0.2,0.8,0.1,1.2S115.3,82,115,82.2z M97.3,44c-0.4-0.4-0.8-0.7-1.4-1c-0.5-0.2-1.1-0.3-1.6-0.3
		h-84c-0.4,0-0.8,0.1-1.1,0.3c-0.3,0.2-0.6,0.5-0.8,0.9s-0.2,0.8-0.1,1.2s0.2,0.8,0.5,1.1l17.7,19c0.4,0.4,0.8,0.7,1.4,1
		c0.5,0.2,1.1,0.3,1.6,0.3h84c0.4,0,0.8-0.1,1.1-0.3c0.3-0.2,0.6-0.5,0.8-0.9c0.2-0.4,0.2-0.8,0.1-1.2c-0.1-0.4-0.2-0.8-0.5-1.1
		L97.3,44z M10.3,30.3h84c0.6,0,1.1-0.1,1.6-0.3c0.5-0.2,1-0.6,1.4-1L115,10c0.3-0.3,0.5-0.7,0.5-1.1c0.1-0.4,0-0.8-0.1-1.2
		c-0.2-0.4-0.4-0.7-0.8-0.9c-0.3-0.2-0.7-0.3-1.1-0.3h-84c-0.6,0-1.1,0.1-1.6,0.3c-0.5,0.2-1,0.6-1.4,1l-17.7,19
		c-0.3,0.3-0.5,0.7-0.5,1.1c-0.1,0.4,0,0.8,0.1,1.2c0.2,0.4,0.4,0.7,0.8,0.9C9.5,30.2,9.9,30.3,10.3,30.3z"/>
	<path style="clip-path:url(#SVGID_00000023263856585564054680000005823066577911469228_);" d="M217.4,47.2h-44.9V32.4h56.6V17.6
		h-56.8c-1.9,0-3.9,0.4-5.7,1.1c-1.8,0.7-3.4,1.8-4.8,3.2c-1.4,1.4-2.5,3-3.2,4.8c-0.8,1.8-1.1,3.7-1.2,5.6v15
		c0,1.9,0.4,3.9,1.1,5.7c0.8,1.8,1.8,3.4,3.2,4.8c1.4,1.4,3,2.4,4.8,3.2c1.8,0.7,3.7,1.1,5.7,1.1h45v14.8h-58.8v14.8h58.9
		c1.9,0,3.9-0.4,5.7-1.1c1.8-0.7,3.4-1.8,4.8-3.2c1.4-1.4,2.5-3,3.2-4.8c0.8-1.8,1.1-3.7,1.2-5.6v-15c0-1.9-0.4-3.9-1.1-5.7
		c-0.8-1.8-1.8-3.4-3.2-4.8c-1.4-1.4-3-2.4-4.8-3.2S219.4,47.1,217.4,47.2z"/>
	<path style="clip-path:url(#SVGID_00000023263856585564054680000005823066577911469228_);" d="M304.5,17.6h-45.1
		c-1.9,0-3.9,0.4-5.7,1.1c-1.8,0.7-3.4,1.8-4.8,3.2c-1.4,1.4-2.5,3-3.2,4.8c-0.8,1.8-1.1,3.7-1.2,5.7v44.6c0,1.9,0.4,3.9,1.2,5.7
		c0.8,1.8,1.9,3.4,3.2,4.8c1.4,1.4,3,2.4,4.8,3.2c1.8,0.7,3.7,1.1,5.7,1.1h45.1c1.9,0,3.9-0.4,5.7-1.1c1.8-0.7,3.4-1.8,4.8-3.2
		c1.4-1.4,2.5-3,3.2-4.8c0.8-1.8,1.1-3.7,1.2-5.6V32.2c0-1.9-0.4-3.9-1.2-5.6c-0.8-1.8-1.8-3.4-3.2-4.8c-1.4-1.4-3-2.4-4.8-3.2
		C308.4,17.9,306.4,17.5,304.5,17.6z M304.4,76.8h-44.9V32.4h44.9L304.4,76.8z"/>
	<path style="clip-path:url(#SVGID_00000023263856585564054680000005823066577911469228_);" d="M462.5,17.6h-44
		c-1.9,0-3.9,0.4-5.7,1.1c-1.8,0.7-3.4,1.8-4.8,3.2c-1.4,1.4-2.5,3-3.2,4.8c-0.8,1.8-1.1,3.7-1.2,5.6v59.3h15V67.2h43.8v24.3h15
		V32.2c0-1.9-0.4-3.9-1.2-5.7c-0.8-1.8-1.9-3.4-3.3-4.8c-1.4-1.4-3-2.4-4.8-3.2C466.4,17.9,464.4,17.5,462.5,17.6z M462.4,52.4
		h-43.8V32.4h43.8V52.4z"/>
	<path style="clip-path:url(#SVGID_00000023263856585564054680000005823066577911469228_);" d="M637.7,17.6h-44
		c-1.9,0-3.9,0.4-5.7,1.1c-1.8,0.7-3.4,1.8-4.8,3.2c-1.4,1.4-2.5,3-3.2,4.8c-0.8,1.8-1.1,3.7-1.2,5.6v59.3h15V67.2h43.7v24.3h15
		V32.2c0-1.9-0.4-3.9-1.2-5.6c-0.8-1.8-1.8-3.4-3.2-4.8c-1.4-1.4-3-2.4-4.8-3.2C641.5,17.9,639.6,17.5,637.7,17.6z M637.5,52.4
		h-43.8V32.4h43.8V52.4z"/>
	<path style="clip-path:url(#SVGID_00000023263856585564054680000005823066577911469228_);" d="M550.5,76.8h-6l-21.5-53
		c-0.7-1.8-2-3.4-3.6-4.5c-1.6-1.1-3.6-1.7-5.5-1.7h-13.3c-1.3,0-2.6,0.2-3.8,0.7c-1.2,0.5-2.3,1.2-3.2,2.1c-0.9,0.9-1.6,2-2.2,3.2
		c-0.5,1.2-0.8,2.5-0.8,3.8v64.2h15V32.4h6l21.4,53c0.7,1.8,2,3.4,3.7,4.5c1.6,1.1,3.6,1.7,5.5,1.7h13.3c1.3,0,2.6-0.2,3.8-0.7
		c1.2-0.5,2.3-1.2,3.2-2.1c0.9-0.9,1.7-2,2.2-3.2c0.5-1.2,0.8-2.5,0.8-3.8V17.6h-15V76.8z"/>
	<path style="clip-path:url(#SVGID_00000023263856585564054680000005823066577911469228_);" d="M347.6,17.6h-15v59.3
		c0,1.9,0.4,3.9,1.2,5.7c0.8,1.8,1.9,3.4,3.2,4.8s3,2.4,4.8,3.2c1.8,0.7,3.7,1.1,5.7,1.1h45V76.8h-44.9V17.6z"/>
</g>
</svg>
