<?xml version="1.0" encoding="UTF-8" standalone="no"?>
<svg
   width="570"
   height="570"
   viewBox="0 0 570 570"
   fill="none"
   version="1.1"
   id="svg1021"
   sodipodi:docname="Solana-icon.svg"
   inkscape:version="1.2.1 (9c6d41e4, 2022-07-14)"
   xmlns:inkscape="http://www.inkscape.org/namespaces/inkscape"
   xmlns:sodipodi="http://sodipodi.sourceforge.net/DTD/sodipodi-0.dtd"
   xmlns="http://www.w3.org/2000/svg"
   xmlns:svg="http://www.w3.org/2000/svg">
  <sodipodi:namedview
     id="namedview1023"
     pagecolor="#ffffff"
     bordercolor="#000000"
     borderopacity="0.25"
     inkscape:showpageshadow="2"
     inkscape:pageopacity="0.0"
     inkscape:pagecheckerboard="0"
     inkscape:deskcolor="#d1d1d1"
     showgrid="false"
     inkscape:zoom="0.41403509"
     inkscape:cx="285"
     inkscape:cy="285"
     inkscape:window-width="1309"
     inkscape:window-height="456"
     inkscape:window-x="224"
     inkscape:window-y="25"
     inkscape:window-maximized="0"
     inkscape:current-layer="svg1021" />
  <path
     d="M389.712 0.402344H180.575C81.1639 0.402344 0.575195 80.9911 0.575195 180.402V389.539C0.575195 488.951 81.164 569.539 180.575 569.539H389.712C489.123 569.539 569.712 488.951 569.712 389.539V180.402C569.712 80.9911 489.123 0.402344 389.712 0.402344Z"
     fill="black"
     id="path996" />
  <path
     d="M185.797 345.689C187.573 343.913 190.015 342.877 192.605 342.877H427.485C431.777 342.877 433.923 348.057 430.889 351.091L384.49 397.49C382.714 399.266 380.272 400.302 377.682 400.302H142.803C138.51 400.302 136.364 395.122 139.398 392.088L185.797 345.689Z"
     fill="url(#paint0_linear_897_496)"
     id="path998" />
  <path
     d="M185.797 172.453C187.647 170.677 190.089 169.641 192.605 169.641H427.485C431.777 169.641 433.923 174.821 430.889 177.855L384.49 224.253C382.714 226.029 380.272 227.065 377.682 227.065H142.803C138.51 227.065 136.364 221.885 139.398 218.851L185.797 172.453Z"
     fill="url(#paint1_linear_897_496)"
     id="path1000" />
  <path
     d="M384.49 258.516C382.714 256.74 380.272 255.704 377.682 255.704H142.803C138.51 255.704 136.364 260.884 139.398 263.918L185.797 310.317C187.573 312.093 190.015 313.129 192.605 313.129H427.485C431.777 313.129 433.923 307.949 430.889 304.915L384.49 258.516Z"
     fill="url(#paint2_linear_897_496)"
     id="path1002" />
  <defs
     id="defs1019">
    <linearGradient
       id="paint0_linear_897_496"
       x1="405.047"
       y1="-637.541"
       x2="-213.284"
       y2="-342.688"
       gradientUnits="userSpaceOnUse">
      <stop
         stop-color="#00FFA3"
         id="stop1004" />
      <stop
         offset="1"
         stop-color="#DC1FFF"
         id="stop1006" />
    </linearGradient>
    <linearGradient
       id="paint1_linear_897_496"
       x1="333.969"
       y1="-90.7492"
       x2="-284.362"
       y2="204.104"
       gradientUnits="userSpaceOnUse">
      <stop
         stop-color="#00FFA3"
         id="stop1009" />
      <stop
         offset="1"
         stop-color="#DC1FFF"
         id="stop1011" />
    </linearGradient>
    <linearGradient
       id="paint2_linear_897_496"
       x1="369.282"
       y1="123.251"
       x2="206.726"
       y2="434.609"
       gradientUnits="userSpaceOnUse">
      <stop
         stop-color="#00FFA3"
         id="stop1014" />
      <stop
         offset="1"
         stop-color="#DC1FFF"
         id="stop1016" />
    </linearGradient>
  </defs>
</svg>
