<svg width="641" height="614" viewBox="0 0 641 614" fill="none" xmlns="http://www.w3.org/2000/svg">
<path d="M284.929 613.028C442.128 613.028 569.563 485.594 569.563 328.395C569.563 171.196 442.128 43.7617 284.929 43.7617C127.731 43.7617 0.295898 171.196 0.295898 328.395C0.295898 485.594 127.731 613.028 284.929 613.028Z" fill="#50A389"/>
<path fill-rule="evenodd" clip-rule="evenodd" d="M319.747 353.655C317.803 353.801 307.755 354.401 285.343 354.401C267.517 354.401 254.86 353.866 250.42 353.655C181.53 350.625 130.11 338.633 130.11 324.275C130.11 309.917 181.531 297.941 250.42 294.862V341.712C254.925 342.036 267.825 342.798 285.651 342.798C307.042 342.798 317.754 341.906 319.682 341.728V294.894C388.426 297.957 439.733 309.949 439.733 324.275C439.733 338.601 388.442 350.593 319.682 353.639L319.747 353.655ZM319.747 290.049V248.125H415.684V184.194H154.483V248.125H250.404V290.032C172.439 293.614 113.808 309.058 113.808 327.564C113.808 346.071 172.439 361.499 250.404 365.096V499.44H319.731V365.048C397.517 361.466 456.052 346.039 456.052 327.548C456.052 309.058 397.566 293.63 319.731 290.032L319.747 290.049Z" fill="white"/>
<mask id="mask0_887_148" style="mask-type:luminance" maskUnits="userSpaceOnUse" x="344" y="0" width="297" height="297">
<path d="M492.5 296.556C574.3 296.556 640.613 230.243 640.613 148.443C640.613 66.6424 574.3 0.330078 492.5 0.330078C410.7 0.330078 344.387 66.6424 344.387 148.443C344.387 230.243 410.7 296.556 492.5 296.556Z" fill="white"/>
</mask>
<g mask="url(#mask0_887_148)">
<path d="M654.637 -13.6953H330.363V310.579H654.637V-13.6953Z" fill="#161516"/>
</g>
<path d="M434.703 183.768C435.736 182.734 437.157 182.132 438.664 182.132H575.311C577.808 182.132 579.056 185.145 577.291 186.91L550.298 213.904C549.264 214.937 547.844 215.54 546.337 215.54H409.69C407.192 215.54 405.944 212.526 407.709 210.761L434.703 183.768Z" fill="url(#paint0_linear_887_148)"/>
<path d="M434.703 82.9827C435.779 81.9494 437.2 81.3467 438.664 81.3467H575.311C577.808 81.3467 579.056 84.3603 577.291 86.1255L550.298 113.119C549.264 114.152 547.844 114.755 546.337 114.755H409.69C407.192 114.755 405.944 111.741 407.709 109.976L434.703 82.9827Z" fill="url(#paint1_linear_887_148)"/>
<path d="M550.298 133.052C549.264 132.019 547.844 131.416 546.337 131.416H409.69C407.192 131.416 405.944 134.43 407.709 136.195L434.703 163.189C435.736 164.222 437.157 164.825 438.664 164.825H575.311C577.808 164.825 579.056 161.811 577.291 160.046L550.298 133.052Z" fill="url(#paint2_linear_887_148)"/>
<defs>
<linearGradient id="paint0_linear_887_148" x1="562.257" y1="-388.253" x2="202.527" y2="-216.714" gradientUnits="userSpaceOnUse">
<stop stop-color="#00FFA3"/>
<stop offset="1" stop-color="#DC1FFF"/>
</linearGradient>
<linearGradient id="paint1_linear_887_148" x1="520.906" y1="-70.1421" x2="161.175" y2="101.397" gradientUnits="userSpaceOnUse">
<stop stop-color="#00FFA3"/>
<stop offset="1" stop-color="#DC1FFF"/>
</linearGradient>
<linearGradient id="paint2_linear_887_148" x1="541.45" y1="54.3581" x2="446.879" y2="235.499" gradientUnits="userSpaceOnUse">
<stop stop-color="#00FFA3"/>
<stop offset="1" stop-color="#DC1FFF"/>
</linearGradient>
</defs>
</svg>
