<svg width="2372" height="569" viewBox="0 0 2372 569" fill="none" xmlns="http://www.w3.org/2000/svg">
<path d="M462.792 505.449C413.975 545.051 351.759 568.779 284.001 568.779C127.152 568.779 0.00195312 441.629 0.00195312 284.78C0.00195312 127.932 127.152 0.78125 284.001 0.78125C349.731 0.78125 410.247 23.1113 458.374 60.5996H458.959C506.419 96.2383 565.407 117.355 629.328 117.355C693.249 117.355 752.237 96.2383 799.697 60.5996H802.012C850.139 23.1113 910.654 0.78125 976.385 0.78125H2087.54C2244.39 0.78125 2371.54 127.932 2371.54 284.78C2371.54 441.629 2244.39 568.779 2087.54 568.779H976.385C909.602 568.779 848.202 545.729 799.709 507.148H798.184C750.985 472.193 692.571 451.521 629.328 451.521C567.117 451.521 509.578 471.524 462.792 505.449Z" fill="url(#paint0_linear_906_172)"/>
<path d="M1442.85 409.142C1427.07 409.142 1414.97 406.003 1406.54 399.727C1398.11 393.45 1392.37 384.663 1389.32 373.365C1386.27 361.887 1384.75 348.527 1384.75 333.284V188.831H1413.8V334.629C1413.8 343.954 1414.43 352.472 1415.69 360.184C1416.94 367.895 1419.63 373.992 1423.76 378.476C1428.06 382.959 1434.43 385.201 1442.85 385.201C1451.46 385.201 1457.83 382.959 1461.95 378.476C1466.08 373.992 1468.77 367.895 1470.02 360.184C1471.28 352.472 1471.91 343.954 1471.91 334.629V188.831H1500.69V333.284C1500.69 348.527 1499.17 361.887 1496.12 373.365C1493.07 384.663 1487.33 393.45 1478.9 399.727C1470.65 406.003 1458.64 409.142 1442.85 409.142ZM1584.07 409.142C1571.52 409.142 1561.03 406.452 1552.6 401.072C1544.35 395.692 1538.07 388.249 1533.77 378.745C1529.46 369.24 1526.95 358.211 1526.24 345.658L1553.14 338.395C1553.67 346.106 1554.84 353.548 1556.63 360.722C1558.61 367.895 1561.74 373.813 1566.05 378.476C1570.35 382.959 1576.36 385.201 1584.07 385.201C1591.96 385.201 1597.88 383.049 1601.83 378.745C1605.95 374.261 1608.01 367.895 1608.01 359.646C1608.01 349.782 1605.77 341.892 1601.29 335.974C1596.8 329.876 1591.15 323.779 1584.34 317.682L1547.76 285.402C1540.58 279.125 1535.29 272.31 1531.89 264.958C1528.48 257.426 1526.77 248.19 1526.77 237.251C1526.77 221.29 1531.35 208.916 1540.49 200.129C1549.64 191.341 1562.1 186.948 1577.88 186.948C1586.49 186.948 1594.02 188.113 1600.48 190.445C1607.12 192.597 1612.59 196.004 1616.89 200.667C1621.37 205.329 1624.87 211.247 1627.38 218.421C1630.07 225.415 1631.86 233.664 1632.76 243.169L1606.94 250.163C1606.4 242.989 1605.32 236.444 1603.71 230.526C1602.09 224.428 1599.22 219.586 1595.1 216C1591.15 212.234 1585.42 210.351 1577.88 210.351C1570.35 210.351 1564.43 212.413 1560.13 216.538C1556.01 220.483 1553.94 226.401 1553.94 234.292C1553.94 240.927 1555.02 246.397 1557.17 250.701C1559.5 255.005 1563.18 259.398 1568.2 263.882L1605.05 296.162C1613.3 303.335 1620.57 311.943 1626.84 321.986C1633.12 331.849 1636.26 343.595 1636.26 357.225C1636.26 367.985 1634.02 377.31 1629.53 385.201C1625.05 392.912 1618.86 398.83 1610.97 402.955C1603.26 407.079 1594.29 409.142 1584.07 409.142ZM1659.84 406.721V188.831H1707.18C1723.32 188.831 1736.05 191.341 1745.38 196.363C1754.88 201.205 1761.61 208.557 1765.55 218.421C1769.68 228.284 1771.74 240.568 1771.74 255.274V335.436C1771.74 350.858 1769.68 363.86 1765.55 374.441C1761.61 385.021 1755.06 393.091 1745.92 398.651C1736.95 404.031 1724.84 406.721 1709.6 406.721H1659.84ZM1690.23 384.932H1707.45C1718.57 384.932 1726.46 382.78 1731.12 378.476C1735.78 374.172 1738.56 367.895 1739.46 359.646C1740.54 351.396 1741.07 341.443 1741.07 329.787V259.04C1741.07 247.742 1740.36 238.596 1738.92 231.602C1737.49 224.608 1734.35 219.497 1729.51 216.269C1724.67 213.041 1717.04 211.427 1706.64 211.427H1690.23V384.932ZM1856.3 409.142C1840.88 409.142 1828.86 405.914 1820.25 399.458C1811.82 393.002 1805.91 384.304 1802.5 373.365C1799.27 362.425 1797.66 350.231 1797.66 336.781V259.847C1797.66 245.141 1799.27 232.319 1802.5 221.38C1805.91 210.44 1811.82 202.012 1820.25 196.094C1828.86 189.996 1840.88 186.948 1856.3 186.948C1869.93 186.948 1880.69 189.458 1888.58 194.48C1896.65 199.501 1902.39 206.674 1905.8 216C1909.38 225.325 1911.18 236.533 1911.18 249.625V266.841H1882.39V251.508C1882.39 243.438 1881.94 236.354 1881.05 230.257C1880.33 223.98 1878.18 219.138 1874.59 215.731C1871 212.323 1865 210.62 1856.57 210.62C1847.96 210.62 1841.68 212.503 1837.74 216.269C1833.79 219.855 1831.19 225.056 1829.94 231.871C1828.86 238.506 1828.32 246.307 1828.32 255.274V341.623C1828.32 352.562 1829.22 361.26 1831.01 367.716C1832.81 373.992 1835.77 378.476 1839.89 381.166C1844.01 383.856 1849.57 385.201 1856.57 385.201C1864.82 385.201 1870.74 383.407 1874.32 379.821C1877.91 376.055 1880.15 370.944 1881.05 364.488C1881.94 358.032 1882.39 350.5 1882.39 341.892V325.752H1911.18V341.892C1911.18 355.162 1909.56 366.909 1906.33 377.131C1903.11 387.173 1897.55 395.064 1889.66 400.803C1881.76 406.362 1870.65 409.142 1856.3 409.142Z" fill="white"/>
<path fill-rule="evenodd" clip-rule="evenodd" d="M2215.77 308.148C2219.23 304.555 2221.16 299.759 2221.16 294.768C2221.16 289.777 2219.23 284.981 2215.77 281.388L2073.71 135.478C2072.86 134.603 2071.85 133.907 2070.73 133.432C2069.61 132.957 2068.4 132.712 2067.19 132.712C2065.97 132.712 2064.77 132.957 2063.65 133.432C2062.53 133.907 2061.51 134.603 2060.66 135.478L2047.62 148.885C2045.89 150.681 2044.93 153.079 2044.93 155.575C2044.93 158.07 2045.89 160.469 2047.62 162.265L2170.21 288.189C2171.94 289.989 2172.91 292.392 2172.91 294.892C2172.91 297.392 2171.94 299.795 2170.21 301.596L2047.7 427.327C2045.97 429.123 2045.01 431.521 2045.01 434.017C2045.01 436.512 2045.97 438.91 2047.7 440.706L2060.75 454.087C2061.59 454.962 2062.61 455.657 2063.73 456.132C2064.85 456.607 2066.05 456.852 2067.27 456.852C2068.49 456.852 2069.69 456.607 2070.81 456.132C2071.93 455.657 2072.94 454.962 2073.79 454.087L2215.77 308.148Z" fill="white"/>
<path d="M155.115 406.471H211.188C221.14 406.471 226.115 406.471 230.597 405.138C235.475 403.687 239.938 401.098 243.618 397.586C246.999 394.359 249.467 390.042 254.402 381.408L327.815 252.979C332.68 244.47 335.112 240.214 336.179 235.726C337.341 230.841 337.338 225.753 336.172 220.868C335.101 216.382 332.665 212.127 327.794 203.623L299.479 154.187L299.476 154.183C292.78 142.489 289.431 136.642 285.177 134.47C280.581 132.122 275.135 132.126 270.543 134.48C266.291 136.659 262.95 142.512 256.269 154.219L133.498 369.298C126.914 380.833 123.621 386.602 123.888 391.333C124.175 396.445 126.89 401.114 131.192 403.896C135.174 406.471 141.821 406.471 155.115 406.471Z" fill="white"/>
<path d="M346.228 406.471H411.237C424.673 406.471 431.391 406.471 435.384 403.871C439.701 401.06 442.406 396.351 442.657 391.21C442.888 386.453 439.5 380.657 432.722 369.067L400.162 313.39L400.155 313.378C393.478 301.961 390.138 296.251 385.916 294.116C381.351 291.809 375.958 291.812 371.397 294.127C367.178 296.269 363.844 301.987 357.177 313.423L324.726 369.098C317.974 380.68 314.598 386.473 314.835 391.227C315.09 396.364 317.796 401.067 322.111 403.873C326.105 406.471 332.813 406.471 346.228 406.471Z" fill="white"/>
<path d="M1161.39 330.264C1161.39 288.839 1136.53 274.636 1086.82 268.719C1051.31 263.984 1044.21 254.516 1044.21 237.944C1044.21 221.371 1056.05 210.722 1079.72 210.722C1101.02 210.722 1112.86 217.823 1118.78 235.577C1119.96 239.128 1123.51 241.494 1127.06 241.494H1146C1150.74 241.494 1154.29 237.944 1154.29 233.211V232.027C1149.55 205.986 1128.25 185.866 1101.02 183.5V155.094C1101.02 150.358 1097.47 146.807 1091.56 145.623H1073.8C1069.07 145.623 1065.52 149.174 1064.33 155.094V182.315C1028.82 187.051 1006.34 210.722 1006.34 240.313C1006.34 279.372 1030.01 294.756 1079.72 300.676C1112.86 306.593 1123.51 313.695 1123.51 332.633C1123.51 351.572 1106.94 364.591 1084.45 364.591C1053.68 364.591 1043.03 351.569 1039.48 333.815C1038.29 329.083 1034.74 326.714 1031.19 326.714H1011.07C1006.34 326.714 1002.79 330.265 1002.79 335V336.184C1007.52 365.772 1026.46 387.077 1065.52 392.997V421.403C1065.52 426.136 1069.07 429.687 1074.98 430.871H1092.74C1097.47 430.871 1101.02 427.321 1102.21 421.403V392.997C1137.72 387.077 1161.39 362.222 1161.39 330.264Z" fill="white"/>
<path d="M1022.89 454.547C930.573 421.408 883.228 318.435 917.555 227.296C935.309 177.585 974.367 139.71 1022.89 121.956C1027.63 119.59 1030 116.039 1030 110.119V93.5498C1030 88.8144 1027.63 85.2637 1022.89 84.082C1021.71 84.082 1019.34 84.0821 1018.16 85.2638C905.718 120.772 844.17 240.317 879.678 352.758C900.982 419.039 951.878 469.935 1018.16 491.239C1022.89 493.606 1027.63 491.239 1028.81 486.504C1030 485.322 1030 484.138 1030 481.772V465.199C1030 461.649 1026.44 456.916 1022.89 454.547ZM1148.36 85.2638C1143.62 82.8976 1138.89 85.2637 1137.7 89.9991C1136.52 91.1836 1136.52 92.3653 1136.52 94.7344V111.304C1136.52 116.039 1140.07 120.772 1143.62 123.141C1235.94 156.28 1283.29 259.253 1248.96 350.392C1231.21 400.103 1192.15 437.977 1143.62 455.731C1138.89 458.098 1136.52 461.648 1136.52 467.568V484.138C1136.52 488.873 1138.89 492.424 1143.62 493.606C1144.81 493.606 1147.17 493.606 1148.36 492.424C1260.8 456.916 1322.35 337.37 1286.84 224.929C1265.53 157.464 1213.45 106.569 1148.36 85.2638Z" fill="white"/>
<defs>
<linearGradient id="paint0_linear_906_172" x1="0.00195312" y1="284.78" x2="2371.54" y2="284.78" gradientUnits="userSpaceOnUse">
<stop offset="0.16" stop-color="#D75049"/>
<stop offset="0.38" stop-color="#2775CA"/>
</linearGradient>
</defs>
</svg>
