<svg width="656" height="596" viewBox="0 0 656 596" fill="none" xmlns="http://www.w3.org/2000/svg">
<path d="M284.852 568.978C442.272 568.978 568.916 442.334 568.916 284.915C568.916 127.495 442.272 0.850586 284.852 0.850586C127.432 0.850586 0.788086 127.495 0.788086 284.915C0.788086 442.334 127.432 568.978 284.852 568.978Z" fill="#2775CA"/>
<path d="M362.977 329.89C362.977 288.465 338.122 274.262 288.411 268.345C252.903 263.61 245.801 254.142 245.801 237.57C245.801 220.997 257.638 210.348 281.309 210.348C302.614 210.348 314.451 217.449 320.368 235.203C321.552 238.754 325.103 241.12 328.654 241.12H347.59C352.325 241.12 355.876 237.57 355.876 232.837V231.653C351.14 205.612 329.836 185.492 302.614 183.126V154.72C302.614 149.984 299.063 146.434 293.146 145.249H275.392C270.657 145.249 267.106 148.8 265.921 154.72V181.941C230.413 186.677 207.927 210.348 207.927 239.939C207.927 278.998 231.598 294.382 281.309 300.302C314.451 306.219 325.103 313.321 325.103 332.26C325.103 351.198 308.531 364.217 286.044 364.217C255.269 364.217 244.616 351.195 241.066 333.441C239.884 328.709 236.333 326.34 232.782 326.34H212.659C207.927 326.34 204.376 329.891 204.376 334.626V335.81C209.108 365.398 228.047 386.703 267.106 392.623V421.03C267.106 425.762 270.657 429.313 276.574 430.497H294.328C299.063 430.497 302.614 426.947 303.798 421.03V392.623C339.306 386.703 362.977 361.848 362.977 329.89Z" fill="white"/>
<path d="M224.483 454.173C132.162 421.034 84.8172 318.061 119.144 226.922C136.898 177.211 175.956 139.336 224.483 121.582C229.218 119.216 231.585 115.665 231.585 109.745V93.1758C231.585 88.4404 229.218 84.8897 224.483 83.708C223.298 83.708 220.932 83.7081 219.748 84.8898C107.307 120.398 45.7585 239.943 81.2664 352.384C102.571 418.665 153.467 469.561 219.748 490.865C224.483 493.232 229.218 490.865 230.4 486.13C231.585 484.948 231.585 483.764 231.585 481.398V464.825C231.585 461.275 228.034 456.542 224.483 454.173ZM349.945 84.8898C345.21 82.5235 340.475 84.8897 339.293 89.6251C338.109 90.8096 338.109 91.9913 338.109 94.3604V110.93C338.109 115.665 341.659 120.398 345.21 122.767C437.531 155.906 484.876 258.879 450.55 350.018C432.796 399.729 393.737 437.603 345.21 455.357C340.475 457.724 338.109 461.274 338.109 467.194V483.764C338.109 488.499 340.475 492.05 345.21 493.232C346.395 493.232 348.761 493.232 349.945 492.05C462.387 456.542 523.935 336.996 488.427 224.555C467.122 157.09 415.042 106.195 349.945 84.8898Z" fill="white"/>
<g clip-path="url(#clip0_906_163)">
<path d="M552.604 316.244H486.619C425.868 316.244 376.619 365.493 376.619 426.244V492.229C376.619 552.98 425.868 602.229 486.619 602.229H552.604C613.355 602.229 662.604 552.98 662.604 492.229V426.244C662.604 365.493 613.355 316.244 552.604 316.244Z" fill="white"/>
</g>
<path d="M555.759 323.089H483.465C428.236 323.089 383.465 367.86 383.465 423.089V495.383C383.465 550.611 428.236 595.383 483.465 595.383H555.759C610.987 595.383 655.759 550.611 655.759 495.383V423.089C655.759 367.86 610.987 323.089 555.759 323.089Z" fill="#D75049"/>
<path d="M452.963 521.685H482.124C487.3 521.685 489.888 521.685 492.218 520.992C494.755 520.237 497.076 518.891 498.99 517.064C500.749 515.386 502.032 513.141 504.599 508.65L542.779 441.859C545.308 437.433 546.574 435.22 547.128 432.886C547.732 430.345 547.731 427.699 547.125 425.159C546.568 422.825 545.301 420.613 542.767 416.19L528.042 390.48L528.04 390.478C524.558 384.396 522.816 381.355 520.604 380.226C518.214 379.005 515.381 379.007 512.993 380.231C510.782 381.364 509.044 384.408 505.57 390.497L441.721 502.352C438.296 508.352 436.584 511.351 436.723 513.812C436.872 516.471 438.284 518.899 440.521 520.345C442.592 521.685 446.049 521.685 452.963 521.685Z" fill="white"/>
<path d="M552.354 521.685H586.164C593.151 521.685 596.645 521.685 598.722 520.332C600.967 518.871 602.374 516.422 602.504 513.748C602.624 511.274 600.862 508.26 597.337 502.232L580.404 473.276L580.4 473.27C576.928 467.333 575.191 464.363 572.995 463.253C570.621 462.053 567.816 462.054 565.444 463.258C563.25 464.372 561.516 467.346 558.049 473.294L541.172 502.248C537.661 508.272 535.905 511.285 536.028 513.757C536.161 516.428 537.568 518.874 539.812 520.334C541.889 521.685 545.378 521.685 552.354 521.685Z" fill="white"/>
<defs>
<clipPath id="clip0_906_163">
<rect x="1" y="0.78125" width="569" height="569" rx="284.5" fill="white"/>
</clipPath>
</defs>
</svg>
