<svg width="2372" height="569" viewBox="0 0 2372 569" fill="none" xmlns="http://www.w3.org/2000/svg">
<path d="M462.792 505.25C413.975 544.852 351.759 568.58 284.001 568.58C127.152 568.58 0.00195312 441.43 0.00195312 284.581C0.00195312 127.732 127.152 0.582031 284.001 0.582031C349.731 0.582031 410.247 22.9121 458.374 60.4004H458.959C506.419 96.0391 565.407 117.156 629.328 117.156C693.249 117.156 752.237 96.0391 799.697 60.4004H802.012C850.139 22.9121 910.654 0.582031 976.385 0.582031H2087.54C2244.39 0.582031 2371.54 127.732 2371.54 284.581C2371.54 441.43 2244.39 568.58 2087.54 568.58H976.385C909.602 568.58 848.202 545.529 799.709 506.949H798.184C750.985 471.994 692.571 451.322 629.328 451.322C567.117 451.322 509.578 471.325 462.792 505.25Z" fill="url(#paint0_linear_906_222)"/>
<path d="M1442.85 408.942C1427.07 408.942 1414.97 405.804 1406.54 399.527C1398.11 393.251 1392.37 384.463 1389.32 373.165C1386.27 361.688 1384.75 348.328 1384.75 333.084V188.631H1413.8V334.429C1413.8 343.755 1414.43 352.273 1415.69 359.984C1416.94 367.696 1419.63 373.793 1423.76 378.276C1428.06 382.76 1434.43 385.001 1442.85 385.001C1451.46 385.001 1457.83 382.76 1461.95 378.276C1466.08 373.793 1468.77 367.696 1470.02 359.984C1471.28 352.273 1471.91 343.755 1471.91 334.429V188.631H1500.69V333.084C1500.69 348.328 1499.17 361.688 1496.12 373.165C1493.07 384.463 1487.33 393.251 1478.9 399.527C1470.65 405.804 1458.64 408.942 1442.85 408.942ZM1584.07 408.942C1571.52 408.942 1561.03 406.252 1552.6 400.872C1544.35 395.492 1538.07 388.05 1533.77 378.545C1529.46 369.041 1526.95 358.012 1526.24 345.458L1553.14 338.195C1553.67 345.907 1554.84 353.349 1556.63 360.522C1558.61 367.696 1561.74 373.614 1566.05 378.276C1570.35 382.76 1576.36 385.001 1584.07 385.001C1591.96 385.001 1597.88 382.849 1601.83 378.545C1605.95 374.062 1608.01 367.696 1608.01 359.446C1608.01 349.583 1605.77 341.692 1601.29 335.774C1596.8 329.677 1591.15 323.58 1584.34 317.482L1547.76 285.202C1540.58 278.926 1535.29 272.111 1531.89 264.758C1528.48 257.226 1526.77 247.991 1526.77 237.051C1526.77 221.091 1531.35 208.717 1540.49 199.929C1549.64 191.142 1562.1 186.748 1577.88 186.748C1586.49 186.748 1594.02 187.914 1600.48 190.245C1607.12 192.397 1612.59 195.805 1616.89 200.467C1621.37 205.13 1624.87 211.048 1627.38 218.221C1630.07 225.215 1631.86 233.465 1632.76 242.969L1606.94 249.963C1606.4 242.79 1605.32 236.244 1603.71 230.326C1602.09 224.229 1599.22 219.387 1595.1 215.8C1591.15 212.034 1585.42 210.151 1577.88 210.151C1570.35 210.151 1564.43 212.214 1560.13 216.338C1556.01 220.284 1553.94 226.202 1553.94 234.092C1553.94 240.728 1555.02 246.197 1557.17 250.501C1559.5 254.805 1563.18 259.199 1568.2 263.682L1605.05 295.962C1613.3 303.136 1620.57 311.744 1626.84 321.786C1633.12 331.65 1636.26 343.396 1636.26 357.025C1636.26 367.785 1634.02 377.111 1629.53 385.001C1625.05 392.713 1618.86 398.631 1610.97 402.755C1603.26 406.88 1594.29 408.942 1584.07 408.942ZM1659.84 406.521V188.631H1707.18C1723.32 188.631 1736.05 191.142 1745.38 196.163C1754.88 201.005 1761.61 208.358 1765.55 218.221C1769.68 228.085 1771.74 240.369 1771.74 255.074V335.236C1771.74 350.659 1769.68 363.661 1765.55 374.241C1761.61 384.822 1755.06 392.892 1745.92 398.451C1736.95 403.831 1724.84 406.521 1709.6 406.521H1659.84ZM1690.23 384.732H1707.45C1718.57 384.732 1726.46 382.58 1731.12 378.276C1735.78 373.972 1738.56 367.696 1739.46 359.446C1740.54 351.197 1741.07 341.244 1741.07 329.587V258.84C1741.07 247.542 1740.36 238.396 1738.92 231.402C1737.49 224.408 1734.35 219.297 1729.51 216.069C1724.67 212.841 1717.04 211.227 1706.64 211.227H1690.23V384.732ZM1856.3 408.942C1840.88 408.942 1828.86 405.714 1820.25 399.258C1811.82 392.802 1805.91 384.105 1802.5 373.165C1799.27 362.226 1797.66 350.031 1797.66 336.581V259.647C1797.66 244.942 1799.27 232.12 1802.5 221.18C1805.91 210.241 1811.82 201.812 1820.25 195.894C1828.86 189.797 1840.88 186.748 1856.3 186.748C1869.93 186.748 1880.69 189.259 1888.58 194.28C1896.65 199.302 1902.39 206.475 1905.8 215.8C1909.38 225.126 1911.18 236.334 1911.18 249.425V266.641H1882.39V251.308C1882.39 243.238 1881.94 236.155 1881.05 230.057C1880.33 223.781 1878.18 218.939 1874.59 215.531C1871 212.124 1865 210.42 1856.57 210.42C1847.96 210.42 1841.68 212.303 1837.74 216.069C1833.79 219.656 1831.19 224.857 1829.94 231.671C1828.86 238.307 1828.32 246.108 1828.32 255.074V341.423C1828.32 352.363 1829.22 361.06 1831.01 367.516C1832.81 373.793 1835.77 378.276 1839.89 380.966C1844.01 383.656 1849.57 385.001 1856.57 385.001C1864.82 385.001 1870.74 383.208 1874.32 379.621C1877.91 375.855 1880.15 370.744 1881.05 364.288C1881.94 357.832 1882.39 350.3 1882.39 341.692V325.552H1911.18V341.692C1911.18 354.963 1909.56 366.709 1906.33 376.931C1903.11 386.974 1897.55 394.865 1889.66 400.603C1881.76 406.163 1870.65 408.942 1856.3 408.942Z" fill="white"/>
<path fill-rule="evenodd" clip-rule="evenodd" d="M2215.77 307.948C2219.23 304.356 2221.16 299.56 2221.16 294.569C2221.16 289.578 2219.23 284.781 2215.77 281.189L2073.71 135.279C2072.86 134.404 2071.85 133.708 2070.73 133.233C2069.61 132.758 2068.4 132.513 2067.19 132.513C2065.97 132.513 2064.77 132.758 2063.65 133.233C2062.53 133.708 2061.51 134.404 2060.66 135.279L2047.62 148.686C2045.89 150.482 2044.93 152.88 2044.93 155.375C2044.93 157.871 2045.89 160.269 2047.62 162.066L2170.21 287.989C2171.94 289.79 2172.91 292.193 2172.91 294.693C2172.91 297.193 2171.94 299.596 2170.21 301.397L2047.7 427.127C2045.97 428.924 2045.01 431.322 2045.01 433.818C2045.01 436.313 2045.97 438.711 2047.7 440.507L2060.75 453.887C2061.59 454.762 2062.61 455.457 2063.73 455.932C2064.85 456.407 2066.05 456.652 2067.27 456.652C2068.49 456.652 2069.69 456.407 2070.81 455.932C2071.93 455.457 2072.94 454.762 2073.79 453.887L2215.77 307.948Z" fill="white"/>
<path d="M281.501 457.775C377.123 457.775 454.694 380.258 454.694 284.582C454.694 188.96 377.178 111.389 281.501 111.389C190.812 111.389 116.331 181.208 108.959 270H337.823V299.109H108.959C116.331 387.955 190.812 457.775 281.501 457.775Z" fill="white"/>
<path d="M1161.39 330.264C1161.39 288.839 1136.53 274.636 1086.82 268.719C1051.31 263.984 1044.21 254.516 1044.21 237.944C1044.21 221.371 1056.05 210.722 1079.72 210.722C1101.02 210.722 1112.86 217.823 1118.78 235.577C1119.96 239.128 1123.51 241.494 1127.06 241.494H1146C1150.74 241.494 1154.29 237.944 1154.29 233.211V232.027C1149.55 205.986 1128.25 185.866 1101.02 183.5V155.094C1101.02 150.358 1097.47 146.807 1091.56 145.623H1073.8C1069.07 145.623 1065.52 149.174 1064.33 155.094V182.315C1028.82 187.051 1006.34 210.722 1006.34 240.313C1006.34 279.372 1030.01 294.756 1079.72 300.676C1112.86 306.593 1123.51 313.695 1123.51 332.633C1123.51 351.572 1106.94 364.591 1084.45 364.591C1053.68 364.591 1043.03 351.569 1039.48 333.815C1038.29 329.083 1034.74 326.714 1031.19 326.714H1011.07C1006.34 326.714 1002.79 330.265 1002.79 335V336.184C1007.52 365.772 1026.46 387.077 1065.52 392.997V421.403C1065.52 426.136 1069.07 429.687 1074.98 430.871H1092.74C1097.47 430.871 1101.02 427.321 1102.21 421.403V392.997C1137.72 387.077 1161.39 362.222 1161.39 330.264Z" fill="white"/>
<path d="M1022.89 454.547C930.573 421.408 883.228 318.435 917.555 227.296C935.309 177.585 974.367 139.71 1022.89 121.956C1027.63 119.59 1030 116.039 1030 110.119V93.5498C1030 88.8144 1027.63 85.2637 1022.89 84.082C1021.71 84.082 1019.34 84.0821 1018.16 85.2638C905.718 120.772 844.17 240.317 879.678 352.758C900.982 419.039 951.878 469.935 1018.16 491.239C1022.89 493.606 1027.63 491.239 1028.81 486.504C1030 485.322 1030 484.138 1030 481.772V465.199C1030 461.649 1026.44 456.916 1022.89 454.547ZM1148.36 85.2638C1143.62 82.8976 1138.89 85.2637 1137.7 89.9991C1136.52 91.1836 1136.52 92.3653 1136.52 94.7344V111.304C1136.52 116.039 1140.07 120.772 1143.62 123.141C1235.94 156.28 1283.29 259.253 1248.96 350.392C1231.21 400.103 1192.15 437.977 1143.62 455.731C1138.89 458.098 1136.52 461.648 1136.52 467.568V484.138C1136.52 488.873 1138.89 492.424 1143.62 493.606C1144.81 493.606 1147.17 493.606 1148.36 492.424C1260.8 456.916 1322.35 337.37 1286.84 224.929C1265.53 157.464 1213.45 106.569 1148.36 85.2638Z" fill="white"/>
<defs>
<linearGradient id="paint0_linear_906_222" x1="0.00195312" y1="284.581" x2="2371.54" y2="284.581" gradientUnits="userSpaceOnUse">
<stop offset="0.16" stop-color="#0052FF"/>
<stop offset="0.38" stop-color="#2775CA"/>
</linearGradient>
</defs>
</svg>
