<svg width="656" height="596" viewBox="0 0 656 596" fill="none" xmlns="http://www.w3.org/2000/svg">
<path d="M284.852 568.979C442.272 568.979 568.916 442.335 568.916 284.916C568.916 127.496 442.272 0.851562 284.852 0.851562C127.432 0.851562 0.788086 127.496 0.788086 284.916C0.788086 442.335 127.432 568.979 284.852 568.979Z" fill="#2775CA"/>
<path d="M362.977 329.891C362.977 288.466 338.122 274.263 288.411 268.346C252.903 263.611 245.801 254.143 245.801 237.571C245.801 220.998 257.638 210.349 281.309 210.349C302.614 210.349 314.451 217.45 320.368 235.204C321.552 238.755 325.103 241.121 328.654 241.121H347.59C352.325 241.121 355.876 237.571 355.876 232.838V231.654C351.14 205.613 329.836 185.493 302.614 183.127V154.721C302.614 149.985 299.063 146.435 293.146 145.25H275.392C270.657 145.25 267.106 148.801 265.921 154.721V181.942C230.413 186.678 207.927 210.349 207.927 239.94C207.927 278.999 231.598 294.383 281.309 300.303C314.451 306.22 325.103 313.322 325.103 332.261C325.103 351.199 308.531 364.218 286.044 364.218C255.269 364.218 244.616 351.196 241.066 333.442C239.884 328.71 236.333 326.341 232.782 326.341H212.659C207.927 326.341 204.376 329.892 204.376 334.627V335.811C209.108 365.399 228.047 386.704 267.106 392.624V421.031C267.106 425.763 270.657 429.314 276.574 430.498H294.328C299.063 430.498 302.614 426.948 303.798 421.031V392.624C339.306 386.704 362.977 361.849 362.977 329.891Z" fill="white"/>
<path d="M224.483 454.174C132.162 421.035 84.8172 318.062 119.144 226.923C136.898 177.212 175.956 139.337 224.483 121.583C229.218 119.217 231.585 115.666 231.585 109.746V93.1767C231.585 88.4414 229.218 84.8907 224.483 83.709C223.298 83.709 220.932 83.7091 219.748 84.8908C107.307 120.399 45.7585 239.944 81.2664 352.385C102.571 418.666 153.467 469.562 219.748 490.866C224.483 493.233 229.218 490.866 230.4 486.131C231.585 484.949 231.585 483.765 231.585 481.399V464.826C231.585 461.276 228.034 456.543 224.483 454.174ZM349.945 84.8908C345.21 82.5245 340.475 84.8907 339.293 89.626C338.109 90.8106 338.109 91.9922 338.109 94.3613V110.931C338.109 115.666 341.659 120.399 345.21 122.768C437.531 155.907 484.876 258.88 450.55 350.019C432.796 399.73 393.737 437.604 345.21 455.358C340.475 457.725 338.109 461.275 338.109 467.195V483.765C338.109 488.5 340.475 492.051 345.21 493.233C346.395 493.233 348.761 493.233 349.945 492.051C462.387 456.543 523.935 336.997 488.427 224.556C467.122 157.091 415.042 106.196 349.945 84.8908Z" fill="white"/>
<g clip-path="url(#clip0_906_213)">
<path d="M552.604 316.045H486.619C425.868 316.045 376.619 365.294 376.619 426.045V492.029C376.619 552.781 425.868 602.029 486.619 602.029H552.604C613.355 602.029 662.604 552.781 662.604 492.029V426.045C662.604 365.294 613.355 316.045 552.604 316.045Z" fill="white"/>
</g>
<path d="M555.759 322.891H483.465C428.236 322.891 383.465 367.662 383.465 422.891V495.185C383.465 550.413 428.236 595.185 483.465 595.185H555.759C610.987 595.185 655.759 550.413 655.759 495.185V422.891C655.759 367.662 610.987 322.891 555.759 322.891Z" fill="#0052FF"/>
<path d="M521.969 538.391C565.781 538.391 601.322 502.874 601.322 459.037C601.322 415.225 565.806 379.684 521.969 379.684C480.417 379.684 446.291 411.673 442.913 452.356H547.774V465.693H442.913C446.291 506.401 480.417 538.391 521.969 538.391Z" fill="white"/>
<defs>
<clipPath id="clip0_906_213">
<rect x="1" y="0.582031" width="569" height="569" rx="284.5" fill="white"/>
</clipPath>
</defs>
</svg>
