<?xml version="1.0" encoding="UTF-8" standalone="no"?>
<svg
   width="656"
   height="596"
   viewBox="0 0 656 596"
   fill="none"
   version="1.1"
   id="svg617"
   sodipodi:docname="USDT-Base.svg"
   inkscape:version="1.2.1 (9c6d41e4, 2022-07-14)"
   xmlns:inkscape="http://www.inkscape.org/namespaces/inkscape"
   xmlns:sodipodi="http://sodipodi.sourceforge.net/DTD/sodipodi-0.dtd"
   xmlns="http://www.w3.org/2000/svg"
   xmlns:svg="http://www.w3.org/2000/svg">
  <sodipodi:namedview
     id="namedview619"
     pagecolor="#ffffff"
     bordercolor="#000000"
     borderopacity="0.25"
     inkscape:showpageshadow="2"
     inkscape:pageopacity="0.0"
     inkscape:pagecheckerboard="0"
     inkscape:deskcolor="#d1d1d1"
     showgrid="false"
     inkscape:zoom="0.39597315"
     inkscape:cx="328.30508"
     inkscape:cy="298"
     inkscape:window-width="1309"
     inkscape:window-height="456"
     inkscape:window-x="224"
     inkscape:window-y="25"
     inkscape:window-maximized="0"
     inkscape:current-layer="svg617" />
  <path
     d="M285.257 569.738C442.456 569.738 569.891 442.304 569.891 285.105C569.891 127.906 442.456 0.47168 285.257 0.47168C128.059 0.47168 0.624023 127.906 0.624023 285.105C0.624023 442.304 128.059 569.738 285.257 569.738Z"
     fill="#50A389"
     id="path600" />
  <path
     fill-rule="evenodd"
     clip-rule="evenodd"
     d="M320.075 310.365C318.131 310.511 308.083 311.111 285.671 311.111C267.845 311.111 255.188 310.576 250.748 310.365C181.859 307.335 130.439 295.343 130.439 280.985C130.439 266.627 181.859 254.651 250.748 251.572V298.422C255.253 298.746 268.153 299.508 285.979 299.508C307.37 299.508 318.082 298.616 320.011 298.438V251.604C388.754 254.667 440.061 266.659 440.061 280.985C440.061 295.31 388.77 307.303 320.011 310.349L320.075 310.365ZM320.075 246.759V204.835H416.012V140.904H154.812V204.835H250.732V246.742C172.767 250.324 114.136 265.768 114.136 284.274C114.136 302.781 172.767 318.209 250.732 321.806V456.15H320.059V321.758C397.846 318.176 456.38 302.749 456.38 284.258C456.38 265.768 397.894 250.34 320.059 246.742L320.075 246.759Z"
     fill="white"
     id="path602" />
  <g
     clip-path="url(#clip0_897_441)"
     id="g606">
    <path
       d="M552.604 316.064H486.619C425.868 316.064 376.619 365.313 376.619 426.064V492.049C376.619 552.8 425.868 602.049 486.619 602.049H552.604C613.355 602.049 662.604 552.8 662.604 492.049V426.064C662.604 365.313 613.355 316.064 552.604 316.064Z"
       fill="white"
       id="path604" />
  </g>
  <path
     d="M555.759 322.909H483.465C428.236 322.909 383.465 367.681 383.465 422.909V495.203C383.465 550.432 428.236 595.203 483.465 595.203H555.759C610.987 595.203 655.759 550.432 655.759 495.203V422.909C655.759 367.681 610.987 322.909 555.759 322.909Z"
     fill="#0052FF"
     id="path608" />
  <path
     d="M521.969 538.409C565.781 538.409 601.322 502.893 601.322 459.056C601.322 415.244 565.806 379.702 521.969 379.702C480.417 379.702 446.291 411.692 442.913 452.375H547.774V465.712H442.913C446.291 506.42 480.417 538.409 521.969 538.409Z"
     fill="white"
     id="path610" />
  <defs
     id="defs615">
    <clipPath
       id="clip0_897_441">
      <rect
         x="1"
         y="0.601562"
         width="569"
         height="569"
         rx="284.5"
         fill="white"
         id="rect612" />
    </clipPath>
  </defs>
</svg>
