<?xml version="1.0" encoding="UTF-8" standalone="no"?>
<svg
   width="656"
   height="596"
   viewBox="0 0 656 596"
   fill="none"
   version="1.1"
   id="svg390"
   sodipodi:docname="USDT-Avalanche.svg"
   inkscape:version="1.2.1 (9c6d41e4, 2022-07-14)"
   xmlns:inkscape="http://www.inkscape.org/namespaces/inkscape"
   xmlns:sodipodi="http://sodipodi.sourceforge.net/DTD/sodipodi-0.dtd"
   xmlns="http://www.w3.org/2000/svg"
   xmlns:svg="http://www.w3.org/2000/svg">
  <sodipodi:namedview
     id="namedview392"
     pagecolor="#ffffff"
     bordercolor="#000000"
     borderopacity="0.25"
     inkscape:showpageshadow="2"
     inkscape:pageopacity="0.0"
     inkscape:pagecheckerboard="0"
     inkscape:deskcolor="#d1d1d1"
     showgrid="false"
     inkscape:zoom="0.39597315"
     inkscape:cx="328.30508"
     inkscape:cy="298"
     inkscape:window-width="1309"
     inkscape:window-height="456"
     inkscape:window-x="224"
     inkscape:window-y="25"
     inkscape:window-maximized="0"
     inkscape:current-layer="svg390" />
  <path
     d="M285.257 569.938C442.456 569.938 569.891 442.503 569.891 285.304C569.891 128.106 442.456 0.670898 285.257 0.670898C128.059 0.670898 0.624023 128.106 0.624023 285.304C0.624023 442.503 128.059 569.938 285.257 569.938Z"
     fill="#50A389"
     id="path371" />
  <path
     fill-rule="evenodd"
     clip-rule="evenodd"
     d="M320.075 310.564C318.131 310.71 308.083 311.31 285.671 311.31C267.845 311.31 255.188 310.775 250.748 310.564C181.859 307.534 130.439 295.542 130.439 281.184C130.439 266.826 181.859 254.85 250.748 251.771V298.621C255.253 298.945 268.153 299.707 285.979 299.707C307.37 299.707 318.082 298.816 320.011 298.637V251.803C388.754 254.866 440.061 266.858 440.061 281.184C440.061 295.51 388.77 307.502 320.011 310.548L320.075 310.564ZM320.075 246.958V205.034H416.012V141.104H154.812V205.034H250.732V246.942C172.767 250.523 114.136 265.967 114.136 284.474C114.136 302.98 172.767 318.408 250.732 322.006V456.349H320.059V321.957C397.846 318.375 456.38 302.948 456.38 284.457C456.38 265.967 397.894 250.539 320.059 246.942L320.075 246.958Z"
     fill="white"
     id="path373" />
  <g
     clip-path="url(#clip0_897_245)"
     id="g377">
    <path
       d="M552.604 316.264H486.619C425.868 316.264 376.619 365.512 376.619 426.264V492.248C376.619 552.999 425.868 602.248 486.619 602.248H552.604C613.355 602.248 662.604 552.999 662.604 492.248V426.264C662.604 365.512 613.355 316.264 552.604 316.264Z"
       fill="white"
       id="path375" />
  </g>
  <path
     d="M555.759 323.108H483.465C428.236 323.108 383.465 367.88 383.465 423.108V495.402C383.465 550.631 428.236 595.402 483.465 595.402H555.759C610.987 595.402 655.759 550.631 655.759 495.402V423.108C655.759 367.88 610.987 323.108 555.759 323.108Z"
     fill="#D75049"
     id="path379" />
  <path
     d="M452.963 521.704H482.124C487.3 521.704 489.888 521.704 492.218 521.011C494.755 520.257 497.076 518.91 498.99 517.083C500.749 515.405 502.032 513.16 504.599 508.67L542.779 441.878C545.308 437.453 546.574 435.239 547.128 432.905C547.732 430.365 547.731 427.719 547.125 425.178C546.568 422.845 545.301 420.632 542.767 416.21L528.042 390.5L528.04 390.497C524.558 384.416 522.816 381.375 520.604 380.245C518.214 379.024 515.381 379.026 512.993 380.251C510.782 381.384 509.044 384.428 505.57 390.516L441.721 502.372C438.296 508.371 436.584 511.371 436.723 513.831C436.872 516.49 438.284 518.918 440.521 520.365C442.592 521.704 446.049 521.704 452.963 521.704Z"
     fill="white"
     id="path381" />
  <path
     d="M552.354 521.704H586.164C593.151 521.704 596.645 521.704 598.722 520.352C600.967 518.89 602.374 516.441 602.504 513.768C602.624 511.293 600.862 508.279 597.337 502.252L580.404 473.296L580.4 473.29C576.928 467.352 575.191 464.382 572.995 463.272C570.621 462.072 567.816 462.074 565.444 463.278C563.25 464.392 561.516 467.366 558.049 473.313L541.172 502.268C537.661 508.291 535.905 511.304 536.028 513.776C536.161 516.448 537.568 518.894 539.812 520.353C541.889 521.704 545.378 521.704 552.354 521.704Z"
     fill="white"
     id="path383" />
  <defs
     id="defs388">
    <clipPath
       id="clip0_897_245">
      <rect
         x="1"
         y="0.800781"
         width="569"
         height="569"
         rx="284.5"
         fill="white"
         id="rect385" />
    </clipPath>
  </defs>
</svg>
