<?xml version="1.0" encoding="UTF-8" standalone="no"?>
<svg
   width="656"
   height="596"
   viewBox="0 0 656 596"
   fill="none"
   version="1.1"
   id="svg183"
   sodipodi:docname="USDT-Polygon.svg"
   inkscape:version="1.2.1 (9c6d41e4, 2022-07-14)"
   xmlns:inkscape="http://www.inkscape.org/namespaces/inkscape"
   xmlns:sodipodi="http://sodipodi.sourceforge.net/DTD/sodipodi-0.dtd"
   xmlns="http://www.w3.org/2000/svg"
   xmlns:svg="http://www.w3.org/2000/svg">
  <sodipodi:namedview
     id="namedview185"
     pagecolor="#ffffff"
     bordercolor="#000000"
     borderopacity="0.25"
     inkscape:showpageshadow="2"
     inkscape:pageopacity="0.0"
     inkscape:pagecheckerboard="0"
     inkscape:deskcolor="#d1d1d1"
     showgrid="false"
     inkscape:zoom="0.39597315"
     inkscape:cx="328.30508"
     inkscape:cy="298"
     inkscape:window-width="1309"
     inkscape:window-height="456"
     inkscape:window-x="224"
     inkscape:window-y="25"
     inkscape:window-maximized="0"
     inkscape:current-layer="svg183" />
  <path
     d="M285.257 570.137C442.456 570.137 569.891 442.702 569.891 285.503C569.891 128.305 442.456 0.870117 285.257 0.870117C128.059 0.870117 0.624023 128.305 0.624023 285.503C0.624023 442.702 128.059 570.137 285.257 570.137Z"
     fill="#50A389"
     id="path161" />
  <path
     fill-rule="evenodd"
     clip-rule="evenodd"
     d="M320.075 310.764C318.131 310.91 308.083 311.509 285.671 311.509C267.845 311.509 255.188 310.974 250.748 310.764C181.859 307.733 130.439 295.741 130.439 281.383C130.439 267.025 181.859 255.049 250.748 251.97V298.82C255.253 299.144 268.153 299.906 285.979 299.906C307.37 299.906 318.082 299.015 320.011 298.836V252.003C388.754 255.065 440.061 267.058 440.061 281.383C440.061 295.709 388.77 307.701 320.011 310.748L320.075 310.764ZM320.075 247.157V205.233H416.012V141.303H154.812V205.233H250.732V247.141C172.767 250.722 114.136 266.166 114.136 284.673C114.136 303.18 172.767 318.607 250.732 322.205V456.548H320.059V322.156C397.846 318.575 456.38 303.147 456.38 284.657C456.38 266.166 397.894 250.738 320.059 247.141L320.075 247.157Z"
     fill="white"
     id="path163" />
  <g
     clip-path="url(#clip0_897_189)"
     id="g167">
    <path
       d="M552.604 316.463H486.619C425.868 316.463 376.619 365.712 376.619 426.463V492.447C376.619 553.199 425.868 602.447 486.619 602.447H552.604C613.355 602.447 662.604 553.199 662.604 492.447V426.463C662.604 365.712 613.355 316.463 552.604 316.463Z"
       fill="white"
       id="path165" />
  </g>
  <path
     d="M555.759 323.308H483.465C428.236 323.308 383.465 368.079 383.465 423.308V495.602C383.465 550.83 428.236 595.602 483.465 595.602H555.759C610.987 595.602 655.759 550.83 655.759 495.602V423.308C655.759 368.079 610.987 323.308 555.759 323.308Z"
     fill="url(#paint0_linear_897_189)"
     id="path169" />
  <path
     d="M555.581 486.291L590.768 465.973C592.631 464.897 593.784 462.896 593.784 460.743V420.112C593.784 417.964 592.626 415.958 590.768 414.881L555.581 394.563C553.717 393.487 551.406 393.492 549.543 394.563L514.356 414.881C512.492 415.958 511.339 417.964 511.339 420.112V486.374C511.339 490.304 509.243 493.936 505.839 495.901L492.164 503.795C488.761 505.759 484.568 505.76 481.165 503.795L467.49 495.901C464.086 493.936 461.989 490.304 461.989 486.374V470.583C461.989 466.652 464.086 463.021 467.49 461.056L482.596 452.336C485.113 450.882 488.215 450.882 490.733 452.336C496.159 455.467 502.94 451.552 502.94 445.287V445.047C502.94 442.089 501.362 439.356 498.801 437.878L489.681 432.614C488.767 432.086 487.721 431.807 486.659 431.807C485.598 431.807 484.552 432.086 483.643 432.614L448.456 452.932C446.592 454.009 445.439 456.01 445.439 458.163V498.794C445.439 500.942 446.597 502.948 448.456 504.024L483.643 524.342C485.501 525.414 487.817 525.414 489.681 524.342L524.868 504.029C526.732 502.953 527.884 500.947 527.884 498.799V426.699C527.884 426.382 528.055 426.088 528.331 425.931L547.059 415.117C550.463 413.152 554.656 413.151 558.06 415.116L571.734 423.01C575.138 424.975 577.234 428.606 577.234 432.537V448.328C577.234 452.258 575.138 455.89 571.734 457.854L556.622 466.578C554.108 468.03 551.011 468.029 548.497 466.578C543.08 463.45 536.309 467.358 536.309 473.613V473.876C536.309 476.832 537.886 479.564 540.446 481.043L549.543 486.296C551.407 487.368 553.717 487.363 555.581 486.291Z"
     fill="white"
     id="path171" />
  <defs
     id="defs181">
    <linearGradient
       id="paint0_linear_897_189"
       x1="333.703"
       y1="345.688"
       x2="614.803"
       y2="517.707"
       gradientUnits="userSpaceOnUse">
      <stop
         stop-color="#8E489C"
         id="stop173" />
      <stop
         offset="1"
         stop-color="#6E56A4"
         id="stop175" />
    </linearGradient>
    <clipPath
       id="clip0_897_189">
      <rect
         x="1"
         y="1"
         width="569"
         height="569"
         rx="284.5"
         fill="white"
         id="rect178" />
    </clipPath>
  </defs>
</svg>
