<?xml version="1.0" encoding="UTF-8" standalone="no"?>
<svg
   width="656"
   height="596"
   viewBox="0 0 656 596"
   fill="none"
   version="1.1"
   id="svg457"
   sodipodi:docname="USDT-BNBChain.svg"
   inkscape:version="1.2.1 (9c6d41e4, 2022-07-14)"
   xmlns:inkscape="http://www.inkscape.org/namespaces/inkscape"
   xmlns:sodipodi="http://sodipodi.sourceforge.net/DTD/sodipodi-0.dtd"
   xmlns="http://www.w3.org/2000/svg"
   xmlns:svg="http://www.w3.org/2000/svg">
  <sodipodi:namedview
     id="namedview459"
     pagecolor="#ffffff"
     bordercolor="#000000"
     borderopacity="0.25"
     inkscape:showpageshadow="2"
     inkscape:pageopacity="0.0"
     inkscape:pagecheckerboard="0"
     inkscape:deskcolor="#d1d1d1"
     showgrid="false"
     inkscape:zoom="0.39597315"
     inkscape:cx="328.30508"
     inkscape:cy="298"
     inkscape:window-width="1309"
     inkscape:window-height="456"
     inkscape:window-x="224"
     inkscape:window-y="25"
     inkscape:window-maximized="0"
     inkscape:current-layer="svg457" />
  <path
     d="M285.257 569.938C442.456 569.938 569.891 442.503 569.891 285.304C569.891 128.106 442.456 0.670898 285.257 0.670898C128.059 0.670898 0.624023 128.106 0.624023 285.304C0.624023 442.503 128.059 569.938 285.257 569.938Z"
     fill="#50A389"
     id="path422" />
  <path
     fill-rule="evenodd"
     clip-rule="evenodd"
     d="M320.075 310.564C318.131 310.71 308.083 311.31 285.671 311.31C267.845 311.31 255.188 310.775 250.748 310.564C181.859 307.534 130.439 295.542 130.439 281.184C130.439 266.826 181.859 254.85 250.748 251.771V298.621C255.253 298.945 268.153 299.707 285.979 299.707C307.37 299.707 318.082 298.816 320.011 298.637V251.803C388.754 254.866 440.061 266.858 440.061 281.184C440.061 295.51 388.77 307.502 320.011 310.548L320.075 310.564ZM320.075 246.958V205.034H416.012V141.104H154.812V205.034H250.732V246.942C172.767 250.523 114.136 265.967 114.136 284.474C114.136 302.98 172.767 318.408 250.732 322.006V456.349H320.059V321.957C397.846 318.375 456.38 302.948 456.38 284.457C456.38 265.967 397.894 250.539 320.059 246.942L320.075 246.958Z"
     fill="white"
     id="path424" />
  <g
     clip-path="url(#clip0_897_333)"
     id="g428">
    <path
       d="M552.604 316.264H486.619C425.868 316.264 376.619 365.512 376.619 426.264V492.248C376.619 552.999 425.868 602.248 486.619 602.248H552.604C613.355 602.248 662.604 552.999 662.604 492.248V426.264C662.604 365.512 613.355 316.264 552.604 316.264Z"
       fill="white"
       id="path426" />
  </g>
  <path
     d="M555.759 323.108H483.465C428.236 323.108 383.465 367.88 383.465 423.108V495.402C383.465 550.631 428.236 595.402 483.465 595.402H555.759C610.987 595.402 655.759 550.631 655.759 495.402V423.108C655.759 367.88 610.987 323.108 555.759 323.108Z"
     fill="#F0B90B"
     id="path430" />
  <path
     d="M521.77 546.442C521.734 546.17 521.484 546.124 521.305 546.014C516.391 543.012 511.48 540.006 506.553 537.026C506.081 536.74 505.887 536.451 505.89 535.88C505.914 530.154 505.904 524.428 505.907 518.702C505.907 518.462 505.861 518.217 505.952 517.977C506.216 517.885 506.368 518.095 506.544 518.203C511.482 521.206 516.421 524.209 521.347 527.235C521.767 527.493 522.05 527.495 522.469 527.237C527.337 524.246 532.218 521.276 537.099 518.305C537.321 518.169 537.521 517.981 537.781 517.942C537.961 518.03 537.906 518.182 537.906 518.303C537.909 524.252 537.903 530.201 537.922 536.15C537.923 536.569 537.723 536.738 537.428 536.918C532.491 539.924 527.555 542.932 522.622 545.945C522.406 546.078 522.113 546.136 522.037 546.442H521.77Z"
     fill="#FCFCFC"
     id="path432" />
  <path
     d="M566.146 436.929C565.709 437.079 565.705 437.079 565.705 437.612C565.704 443.608 565.704 449.605 565.704 455.601C565.704 455.735 565.686 455.872 565.707 456.002C565.77 456.395 565.575 456.597 565.249 456.781C563.429 457.81 561.621 458.86 559.81 459.903C552.661 464.021 545.515 468.144 538.356 472.245C537.94 472.484 537.904 472.771 537.905 473.166C537.91 483.309 537.909 493.451 537.909 503.594C537.909 504.247 537.625 504.746 537.057 505.09C532.196 508.054 527.331 511.014 522.479 513.994C522.067 514.247 521.784 514.271 521.357 514.008C516.393 510.955 511.417 507.921 506.432 504.903C506.007 504.646 505.893 504.361 505.894 503.888C505.907 493.455 505.899 483.023 505.918 472.59C505.919 472.028 505.763 471.722 505.272 471.44C496.496 466.405 487.735 461.342 478.953 456.316C478.311 455.948 478.085 455.565 478.09 454.822C478.125 449.115 478.118 443.408 478.095 437.702C478.092 437.152 478.283 436.881 478.74 436.624C483.644 433.866 488.54 431.095 493.425 428.304C493.907 428.028 494.254 428.013 494.748 428.292C503.656 433.32 512.581 438.316 521.483 443.354C522.279 443.805 522.848 443.861 523.688 443.372C532.374 438.312 541.094 433.313 549.797 428.283C550.227 428.034 550.546 427.993 551.001 428.253C555.885 431.044 560.785 433.81 565.677 436.587C565.843 436.681 566.053 436.726 566.146 436.929Z"
     fill="#FCFCFC"
     id="path434" />
  <path
     d="M450.308 453.159C450.611 453.137 450.768 453.317 450.95 453.428C455.832 456.4 460.712 459.377 465.593 462.351C465.932 462.557 466.251 462.811 466.691 462.77C466.918 462.749 466.998 462.9 466.994 463.111C466.991 463.29 466.995 463.468 466.995 463.646C466.995 473.967 466.995 484.287 466.995 494.607C466.995 494.763 467.011 494.921 466.992 495.075C466.95 495.41 467.101 495.598 467.387 495.759C468.742 496.524 470.087 497.308 471.436 498.085C479.027 502.459 486.615 506.839 494.216 511.196C494.669 511.456 494.81 511.732 494.808 512.24C494.79 518.013 494.797 523.786 494.794 529.559C494.794 529.774 494.844 529.998 494.739 530.22C494.491 530.257 494.324 530.08 494.142 529.975C480.999 522.365 467.857 514.751 454.716 507.137C453.446 506.401 452.188 505.643 450.899 504.943C450.445 504.696 450.294 504.418 450.295 503.901C450.312 494.116 450.308 484.33 450.308 474.545C450.308 467.657 450.308 460.77 450.308 453.882V453.159Z"
     fill="#FCFCFC"
     id="path436" />
  <path
     d="M550.502 529.585C550.397 529.298 550.433 529.073 550.433 528.853C550.431 523.08 550.437 517.307 550.42 511.534C550.418 511.029 550.553 510.747 551.009 510.486C559.805 505.441 568.588 500.375 577.375 495.315C578.231 494.822 578.233 494.826 578.233 493.833C578.233 483.758 578.238 473.683 578.22 463.608C578.219 463.014 578.372 462.66 578.899 462.333C584.004 459.17 589.088 455.973 594.178 452.787C594.382 452.659 594.591 452.539 594.839 452.391C594.971 452.655 594.917 452.899 594.918 453.128C594.921 458.923 594.921 464.718 594.921 470.513C594.921 481.391 594.917 492.268 594.931 503.145C594.932 503.668 594.795 503.966 594.317 504.242C581.839 511.448 569.373 518.673 556.905 525.897C555.039 526.978 553.174 528.062 551.308 529.144C551.061 529.287 550.807 529.418 550.502 529.585Z"
     fill="#FCFCFC"
     id="path438" />
  <path
     d="M478.225 404.943C478.47 404.685 478.801 404.549 479.101 404.375C485.295 400.782 491.49 397.191 497.687 393.602C505.768 388.92 513.854 384.246 521.925 379.546C522.445 379.243 522.8 379.271 523.305 379.564C537.69 387.915 552.086 396.249 566.479 404.588C566.649 404.686 566.846 404.75 566.985 404.956C566.855 405.132 566.643 405.198 566.462 405.296C561.305 408.099 556.144 410.893 550.992 413.706C550.571 413.936 550.26 413.93 549.841 413.688C540.965 408.559 532.078 403.45 523.204 398.317C522.755 398.058 522.44 398.062 521.999 398.311C513.09 403.335 504.172 408.344 495.254 413.353C494.868 413.57 494.495 413.956 494.074 413.922C493.688 413.891 493.324 413.565 492.956 413.357C488.195 410.664 483.435 407.968 478.676 405.271C478.525 405.186 478.352 405.127 478.225 404.943Z"
     fill="#FCFCFC"
     id="path440" />
  <path
     d="M466.218 449.4C465.97 449.415 465.807 449.244 465.626 449.133C460.725 446.149 455.83 443.154 450.921 440.183C450.466 439.908 450.293 439.618 450.295 439.08C450.316 433.262 450.314 427.444 450.297 421.627C450.296 421.148 450.434 420.872 450.851 420.619C455.835 417.6 460.807 414.562 465.777 411.519C466.11 411.315 466.368 411.253 466.739 411.471C472.049 414.593 477.369 417.698 482.686 420.808C482.742 420.841 482.792 420.884 482.867 420.94C482.772 421.175 482.535 421.225 482.356 421.329C477.176 424.364 471.995 427.399 466.803 430.414C466.401 430.647 466.259 430.895 466.26 431.355C466.276 437.128 466.271 442.901 466.268 448.674C466.268 448.914 466.316 449.159 466.218 449.4Z"
     fill="#FCFCFC"
     id="path442" />
  <path
     d="M578.232 449.506C578.232 449.155 578.232 448.914 578.232 448.673C578.232 442.923 578.226 437.172 578.244 431.422C578.245 430.916 578.105 430.631 577.66 430.362C572.75 427.393 567.856 424.399 562.959 421.41C562.755 421.286 562.53 421.188 562.364 420.996C562.429 420.789 562.619 420.744 562.761 420.657C567.752 417.608 572.749 414.568 577.732 411.507C578.115 411.272 578.372 411.293 578.741 411.519C583.726 414.577 588.719 417.623 593.719 420.657C594.08 420.876 594.247 421.093 594.246 421.544C594.228 427.428 594.23 433.312 594.242 439.196C594.243 439.594 594.146 439.843 593.792 440.057C588.754 443.114 583.724 446.184 578.692 449.251C578.581 449.318 578.465 449.377 578.232 449.506Z"
     fill="#FCFCFC"
     id="path444" />
  <path
     d="M538.561 420.993C536.732 422.063 535.006 423.071 533.28 424.08C529.654 426.2 526.025 428.314 522.408 430.449C522.058 430.655 521.809 430.679 521.453 430.461C516.451 427.394 511.439 424.342 506.431 421.285C506.3 421.205 506.174 421.116 506.054 421.037C506.06 420.811 506.245 420.783 506.367 420.712C511.641 417.625 516.921 414.547 522.19 411.452C522.509 411.265 522.725 411.282 523.026 411.466C528.049 414.542 533.079 417.607 538.107 420.675C538.234 420.753 538.352 420.846 538.561 420.993Z"
     fill="#FCFCFC"
     id="path446" />
  <path
     d="M493.98 497.531C493.537 497.284 493.11 497.051 492.687 496.811C488.005 494.159 483.325 491.504 478.64 488.859C478.31 488.673 478.096 488.507 478.098 488.06C478.115 481.864 478.11 475.668 478.111 469.472C478.111 469.383 478.122 469.295 478.127 469.215C478.283 469.095 478.387 469.218 478.49 469.281C483.561 472.37 488.629 475.465 493.703 478.549C494.004 478.731 494.121 478.931 494.12 479.293C494.107 485.2 494.111 491.106 494.108 497.013C494.108 497.16 494.157 497.322 493.98 497.531Z"
     fill="#FCFCFC"
     id="path448" />
  <path
     d="M566.339 469.876C566.437 470.067 566.391 470.269 566.391 470.464C566.394 476.28 566.387 482.097 566.405 487.914C566.407 488.405 566.244 488.659 565.824 488.895C560.903 491.663 555.992 494.451 551.077 497.232C550.908 497.328 550.753 497.464 550.541 497.468C550.383 497.352 550.434 497.186 550.434 497.042C550.431 491.359 550.435 485.676 550.423 479.993C550.422 479.606 550.559 479.397 550.88 479.203C555.878 476.167 560.869 473.118 565.864 470.076C566.009 469.988 566.136 469.841 566.339 469.876Z"
     fill="#FCFCFC"
     id="path450" />
  <defs
     id="defs455">
    <clipPath
       id="clip0_897_333">
      <rect
         x="1"
         y="0.800781"
         width="569"
         height="569"
         rx="284.5"
         fill="white"
         id="rect452" />
    </clipPath>
  </defs>
</svg>
