<?xml version="1.0" encoding="UTF-8"?><svg id="b" xmlns="http://www.w3.org/2000/svg" viewBox="0 0 483.71228 417.17004"><defs><style>.e,.f,.g,.h,.i{stroke-width:0px;}.f{fill:#289e7c;}.g{fill:#804adf;}.h{fill:#fff;}.i{fill:#fafbfb;}</style></defs><g id="c"><path class="h" d="m208.28812,414.17004C95.09183,414.17004,3.00003,322.07825,3.00003,208.88196S95.09183,3.59387,208.28812,3.59387c40.39307,0,79.36865,11.68457,112.91113,33.8208,16.84326-21.60205,42.92676-34.41455,70.35352-34.41455,49.16211,0,89.15918,39.99658,89.15918,89.15918,0,41.65234-28.9707,77.75195-69.2959,86.91992,1.43359,9.85596,2.16016,19.86816,2.16016,29.80273,0,113.19629-92.0918,205.28809-205.28809,205.28809Z"/><path class="h" d="m391.55286,6c47.58456,0,86.15942,38.57495,86.15942,86.15955,0,41.94995-29.98636,76.88062-69.69006,84.56866,1.673,10.47284,2.55408,21.20984,2.55408,32.15375,0,111.7207-90.5675,202.28809-202.28809,202.28809S6,320.60266,6,208.88196,96.5675,6.59387,208.28821,6.59387c42.11208,0,81.21494,12.87329,113.59836,34.89233,15.66629-21.5011,41.02686-35.48621,69.66629-35.48621m0-6c-14.76686,0-29.45229,3.58179-42.46872,10.35828-10.89267,5.67065-20.65933,13.58179-28.52205,23.06311C287.05023,11.92737,248.35445.59387,208.28821.59387c-28.11607,0-55.39435,5.50793-81.077,16.37085-24.80357,10.49097-47.07814,25.50842-66.205,44.63531-19.12693,19.12683-34.14442,41.40143-44.63543,66.2049C5.50792,153.48761,0,180.76587,0,208.88196s5.50792,55.39435,16.37078,81.07697c10.491,24.80353,25.5085,47.07812,44.63543,66.20496,19.12686,19.12683,41.40143,34.14435,66.205,44.63538,25.68264,10.86285,52.96093,16.37079,81.077,16.37079s55.39429-5.50793,81.07693-16.37079c24.8035-10.49103,47.07806-25.50854,66.20493-44.63538,19.12692-19.12683,34.14442-41.40143,44.63544-66.20496,10.86285-25.68262,16.37079-52.96088,16.37079-81.07697,0-9.17029-.61014-18.40613-1.81619-27.52875,40.28351-10.43634,68.95218-47.06757,68.95218-89.19366,0-50.81696-41.34256-92.15955-92.15942-92.15955h0Z"/><circle class="f" cx="208.09463" cy="209.27139" r="202.28812"/><path class="i" d="m207.89508,106.49471c29.31027-.00201,58.62079.05523,87.93051-.07094,3.87589-.01667,5.49628.63099,5.35983,5.12809-.36838,12.14168-.27573,24.30717.02563,36.45352.09354,3.77061-1.21924,4.38171-4.53799,4.3605-19.48386-.12444-38.97079.08704-58.45227-.16118-4.45987-.05681-5.78992,1.20953-5.53654,5.59378.36444,6.30688.31837,12.66071.01949,18.97423-.18716,3.95345.80846,5.42723,5.10573,5.65253,23.13896,1.21298,46.12401,3.74992,68.47459,10.24886,6.38791,1.85742,12.64401,4.19701,18.10928,8.17595,7.39932,5.38705,7.42978,10.98741-.1655,16.20888-9.25208,6.36049-20.00476,8.8895-30.73602,11.26456-18.24866,4.03882-36.78439,6.08284-55.4222,6.92894-4.60236.20892-5.36412,1.78633-5.33975,5.91528.16592,28.14104-.00052,56.28398.16214,84.42509.02522,4.36234-.85114,6.16162-5.71346,6.03467-12.9808-.33884-25.97864-.23706-38.96498-.02277-3.83742.06329-5.08881-.87531-5.06079-4.96313.19508-28.47372-.01984-56.95053.22992-85.42343.04163-4.74451-1.51299-5.72318-5.87431-5.97066-23.45552-1.33105-46.77126-3.79791-69.38605-10.66019-5.90731-1.79253-11.66503-4.00185-16.74118-7.61635-7.38813-5.26085-7.5106-11.18642.06156-16.24722,11.18264-7.47389,24.16335-10.10262,37.06957-12.61832,16.35962-3.18881,32.91074-4.99319,49.56601-5.61105,4.0564-.15047,5.47186-1.60004,5.27107-5.69244-.31789-6.47888-.31863-12.99542-.00835-19.47473.18678-3.90007-.89755-5.14952-4.95264-5.10686-19.48248.20499-38.96964-.03177-58.45203.17862-4.18478.0452-5.31324-1.13872-5.21014-5.30154.29677-11.98219.27816-23.98026.00856-35.96365-.086-3.82263,1.03206-4.7352,4.73028-4.71718,29.47611.14366,58.95322.08013,88.43003.07812l-.00002.00003Zm11.63213,121.4734c23.0013-.67783,50.92018-1.89346,78.19313-8.96982,5.9472-1.54309,11.92966-3.21048,16.90509-7.05736,4.81805-3.72516,4.72528-7.08548-.08017-10.87167-3.06302-2.41335-6.67679-3.81429-10.2999-4.97542-22.23645-7.1265-45.31825-8.78207-68.40796-10.37538-3.04044-.20981-3.09785,1.48944-3.08002,3.72423.06786,8.49065-.10947,16.98553.10028,25.47157.08032,3.2504-.95099,4.35413-4.19894,4.46101-13.8195.45476-27.62939.28876-41.44727-.0094-3.43773-.07416-4.0806-1.57558-4.02505-4.58543.15051-8.1554-.14764-16.32227.13464-24.47063.13159-3.79848-.97951-4.94131-4.77312-4.61377-13.09569,1.13065-26.22664,1.94264-39.21481,4.03087-11.66578,1.87563-23.33914,3.88486-34.15034,8.99445-3.44444,1.62791-7.44529,3.36803-7.45052,7.86958-.00526,4.53459,4.17772,6.13309,7.5027,7.83569,6.262,3.20656,13.07465,4.90985,19.92803,6.33092,29.49559,6.11606,59.38963,7.37497,94.36418,7.21056h.00005Z"/><path class="f" d="m219.5272,227.96811c-34.97455.16441-64.86861-1.09448-94.36419-7.21056-6.85338-1.42107-13.66603-3.12436-19.92803-6.33092-3.32498-1.70261-7.50796-3.3011-7.5027-7.83569.00523-4.50157,4.00608-6.24168,7.45052-7.86958,10.81121-5.1096,22.48457-7.11884,34.15035-8.99445,12.98817-2.08823,26.11913-2.90022,39.21481-4.03087,3.79361-.32755,4.90469.81531,4.77312,4.61377-.28229,8.14836.01585,16.31523-.13464,24.47061-.05554,3.00986.58733,4.51128,4.02505,4.58543,13.81786.29816,27.62776.46416,41.44727.0094,3.24796-.10689,4.27927-1.21062,4.19894-4.46101-.20973-8.48602-.03242-16.98093-.10028-25.47157-.01785-2.23479.03957-3.93404,3.08002-3.72423,23.08971,1.59331,46.17149,3.24889,68.40797,10.37538,3.62308,1.16113,7.23688,2.56207,10.2999,4.97542,4.80545,3.78619,4.89822,7.14651.08017,10.87167-4.97543,3.84688-10.95789,5.51427-16.90509,7.05736-27.27295,7.07635-55.19183,8.29199-78.19315,8.96982l-.00005.00002Z"/><circle class="g" cx="391.35943" cy="92.5489" r="86.15943"/><g id="d"><path class="e" d="m380.22965,94.61223c.03337-.45424.07291-.7456.07336-1.03702.00432-2.79957.00218-5.59914.00163-8.39871-.00023-1.15684-.00552-2.31372.00093-3.47052.00208-.37218-.08762-.65776-.444-.86228-2.9878-1.71464-5.95944-3.45766-8.95566-5.15738-.97637-.55388-2.0559-.71876-3.14905-.37544-.50149.1575-.98201.40432-1.44376.6614-1.1715.65223-2.32706,1.33308-3.48894,2.00259-6.79107,3.91323-13.57798,7.8337-20.3762,11.73444-1.61305.92555-2.43875,2.27589-2.43923,4.13049-.0024,9.30106-.00219,18.60212-.00442,27.90318-.00044,1.85192.80092,3.23901,2.40264,4.16233,8.07268,4.65354,16.14557,9.30672,24.21994,13.95732,1.51062.87007,3.03407.87131,4.54375.00273,8.11689-4.66991,16.23362-9.34014,24.33971-14.02874.49-.28341.9422-.67827,1.31729-1.1046.75232-.85508.97885-1.90619.978-3.03013-.00719-9.55557-.00522-19.11112-.00591-28.66669-.00051-6.96423.00461-13.92847-.01152-20.89266-.00132-.5712.1597-.92548.67508-1.22116,5.27469-3.02616,10.53859-6.07118,15.79525-9.12856.4588-.26684.79978-.2585,1.26149.00952,5.27913,3.06449,10.56963,6.10942,15.8654,9.14509.45356.25999.63568.55782.63384,1.09762-.02053,6.03868-.02517,12.07752.00375,18.11612.00314.65651-.23089.98806-.77224,1.29635-3.55615,2.02525-7.09449,4.08173-10.63982,6.12598-1.72268.9933-3.45436,1.97124-5.167,2.98149-.38356.22625-.70732.30495-1.07546.01906-.10844-.08421-.2395-.13915-.35965-.20842-3.24505-1.87069-6.48958-3.74232-9.73613-5.61042-.20849-.11998-.43259-.21282-.74999-.36719-.03578.38717-.08157.65326-.08178.91937-.00308,3.93328.00902,7.86661-.00905,11.79979-.00254.5537.17583.87862.6638,1.15651,2.81289,1.60196,5.6115,3.22919,8.40589,4.86336,1.62745.95174,3.22748.95611,4.85127-.01088,1.43028-.85176,2.88099-1.66923,4.32332-2.50074,6.57056-3.78796,13.14159-7.57509,19.71187-11.36355,1.51216-.87193,2.26764-2.16604,2.26576-3.92928-.01001-9.39359-.00941-18.78721-.00127-28.18082.00153-1.76449-.7773-3.07245-2.27201-3.93656-8.08655-4.67499-16.18255-9.33365-24.2763-13.99619-1.55804-.89753-3.11625-.88113-4.67161.01576-8.03154,4.63136-16.06025,9.26766-24.0985,13.88735-1.63617.94033-2.42515,2.28927-2.42317,4.19446.01712,16.49664.00513,32.99331.02414,49.48995.00074.64517-.20775.98947-.75658,1.30338-5.23831,2.9961-10.46579,6.01126-15.68166,9.04625-.50739.29523-.88187.3004-1.38499.00824-5.21849-3.03021-10.44599-6.04502-15.68372-9.04185-.52336-.29944-.73895-.62453-.73637-1.24774.02506-6.03865.02226-12.07746.00264-18.11615-.00188-.57909.17012-.91086.6844-1.20513,5.27807-3.02015,10.54301-6.06332,15.80301-9.1149.42749-.248.75624-.27079,1.19944-.01357,3.33949,1.93816,6.69476,3.84914,10.04616,5.76674.21582.12349.44053.23148.80222.42039Z"/><path class="h" d="m380.22965,94.61223c-.36169-.18891-.5864-.2969-.80222-.42039-3.3514-1.9176-6.70667-3.82858-10.04616-5.76674-.4432-.25722-.77196-.23444-1.19944.01357-5.26,3.05158-10.52494,6.09475-15.80301,9.1149-.51427.29427-.68628.62604-.6844,1.20513.01962,6.03869.02242,12.0775-.00264,18.11615-.00258.62321.213.9483.73637,1.24774,5.23773,2.99682,10.46523,6.01164,15.68372,9.04185.50312.29215.8776.28698,1.38499-.00824,5.21587-3.035,10.44334-6.05016,15.68166-9.04625.54883-.31391.75732-.65822.75658-1.30338-.01901-16.49663-.00702-32.99331-.02414-49.48995-.00198-1.90519.787-3.25413,2.42317-4.19446,8.03825-4.61968,16.06696-9.25599,24.0985-13.88735,1.55535-.89689,3.11357-.91329,4.67161-.01576,8.09375,4.66254,16.18975,9.3212,24.2763,13.99619,1.4947.86411,2.27354,2.17206,2.27201,3.93656-.00814,9.3936-.00874,18.78722.00127,28.18082.00188,1.76324-.7536,3.05735-2.26576,3.92928-6.57027,3.78846-13.1413,7.57559-19.71187,11.36355-1.44232.83151-2.89303,1.64898-4.32332,2.50074-1.62379.96699-3.22382.96262-4.85127.01088-2.79439-1.63417-5.593-3.2614-8.40589-4.86336-.48797-.27789-.66634-.60281-.6638-1.15651.01806-3.93319.00596-7.86652.00905-11.79979.00021-.26611.046-.5322.08178-.91937.3174.15437.5415.24722.74999.36719,3.24655,1.8681,6.49108,3.73973,9.73613,5.61042.12016.06927.25122.12421.35965.20842.36813.28589.6919.2072,1.07546-.01906,1.71264-1.01025,3.44433-1.98819,5.167-2.98149,3.54533-2.04425,7.08367-4.10073,10.63982-6.12598.54135-.30829.77538-.63984.77224-1.29635-.02893-6.0386-.02428-12.07743-.00375-18.11612.00184-.53979-.18028-.83762-.63384-1.09762-5.29577-3.03568-10.58627-6.0806-15.8654-9.14509-.46171-.26802-.8027-.27636-1.26149-.00952-5.25667,3.05738-10.52057,6.1024-15.79525,9.12856-.51538.29568-.6764.64996-.67508,1.22116.01613,6.96419.01101,13.92843.01152,20.89266.00069,9.55557-.00127,19.11112.00591,28.66669.00085,1.12394-.22568,2.17505-.978,3.03013-.37509.42633-.82729.82119-1.31729,1.1046-8.1061,4.68859-16.22283,9.35883-24.33971,14.02874-1.50969.86858-3.03313.86734-4.54375-.00273-8.07437-4.6506-16.14726-9.30378-24.21994-13.95732-1.60172-.92332-2.40308-2.31041-2.40264-4.16233.00223-9.30106.00202-18.60212.00442-27.90318.00048-1.85461.82618-3.20494,2.43923-4.13049,6.79823-3.90074,13.58514-7.82122,20.3762-11.73444,1.16188-.66951,2.31745-1.35036,3.48894-2.00259.46176-.25709.94228-.5039,1.44376-.6614,1.09315-.34332,2.17269-.17844,3.14905.37544,2.99621,1.69972,5.96785,3.44274,8.95566,5.15738.35638.20452.44608.4901.444.86228-.00645,1.1568-.00116,2.31368-.00093,3.47052.00055,2.79958.00269,5.59915-.00163,8.39871-.00045.29142-.03999.58278-.07336,1.03702Z"/></g></g></svg>
